<svg width="20" height="20" viewBox="0 0 20 20" fill="none" xmlns="http://www.w3.org/2000/svg">
  <rect width="20" height="20" fill="none" />
  <path fill-rule="evenodd" clip-rule="evenodd"
    d="M3.33333 2.5H5C5.22101 2.5 5.43297 2.58884 5.58926 2.74698C5.74554 2.90512 5.83333 3.11961 5.83333 3.34325V7.98611C5.83333 8.21623 5.64679 8.40278 5.41667 8.40278C5.18655 8.40278 5 8.21623 5 7.98611V6.29464H3.33333V7.98611C3.33333 8.21623 3.14679 8.40278 2.91667 8.40278C2.68655 8.40278 2.5 8.21623 2.5 7.98611V3.34325C2.5 3.11961 2.5878 2.90512 2.74408 2.74698C2.90036 2.58884 3.11232 2.5 3.33333 2.5ZM3.33333 3.34325V5.45139H5V3.34325H3.33333Z"
    fill="#254E8D" />
  <path fill-rule="evenodd" clip-rule="evenodd"
    d="M7.5 5.45139C7.5 5.17525 7.72386 4.95139 8 4.95139L17 4.95139C17.2761 4.95139 17.5 5.17525 17.5 5.45139C17.5 5.72753 17.2761 5.95139 17 5.95139L8 5.95139C7.72386 5.95139 7.5 5.72753 7.5 5.45139Z"
    fill="#254E8D" />
  <path fill-rule="evenodd" clip-rule="evenodd"
    d="M5.83333 12.0982C5.83333 11.7627 5.70164 11.441 5.46722 11.2038C5.2328 10.9666 4.91485 10.8333 4.58333 10.8333H3.33333C2.8731 10.8333 2.5 11.2064 2.5 11.6667V16.5694C2.5 16.6615 2.57462 16.7361 2.66667 16.7361H4.58333C4.91485 16.7361 5.2328 16.6028 5.46722 16.3656C5.70164 16.1284 5.83333 15.8067 5.83333 15.4712V14.628C5.8315 14.3159 5.71575 14.0156 5.50833 13.7847C5.71575 13.5538 5.8315 13.2535 5.83333 12.9415V12.0982ZM3.33333 11.6766H4.58333C4.69384 11.6766 4.79982 11.721 4.87796 11.8001C4.9561 11.8791 5 11.9864 5 12.0982V12.9415C5 13.0533 4.9561 13.1605 4.87796 13.2396C4.79982 13.3187 4.69384 13.3631 4.58333 13.3631H3.33333V11.6766ZM5 15.4712C5 15.5831 4.9561 15.6903 4.87796 15.7694C4.79982 15.8484 4.69384 15.8929 4.58333 15.8929H3.33333V14.2063H4.58333C4.69384 14.2063 4.79982 14.2508 4.87796 14.3298C4.9561 14.4089 5 14.5162 5 14.628V15.4712Z"
    fill="#254E8D" />
  <path fill-rule="evenodd" clip-rule="evenodd"
    d="M7.5 13.7847C7.5 13.5086 7.72386 13.2847 8 13.2847L17 13.2847C17.2761 13.2847 17.5 13.5086 17.5 13.7847C17.5 14.0609 17.2761 14.2847 17 14.2847L8 14.2847C7.72386 14.2847 7.5 14.0609 7.5 13.7847Z"
    fill="#254E8D" />
</svg>