<svg width="20" height="20" viewBox="0 0 20 20" fill="none" xmlns="http://www.w3.org/2000/svg">
  <rect width="20" height="20" fill="none" />
  <path fill-rule="evenodd" clip-rule="evenodd"
    d="M3.00334 3.83668C3.09086 3.74917 3.20956 3.7 3.33332 3.7H8.33332C8.45709 3.7 8.57579 3.74917 8.66331 3.83668C8.75082 3.9242 8.79999 4.0429 8.79999 4.16667V7.5V15.8333C8.79999 15.9571 8.75082 16.0758 8.66331 16.1633C8.57579 16.2508 8.45709 16.3 8.33332 16.3H3.33332C3.20956 16.3 3.09086 16.2508 3.00334 16.1633C2.91582 16.0758 2.86666 15.9571 2.86666 15.8333V4.16667C2.86666 4.0429 2.91582 3.9242 3.00334 3.83668ZM2.15481 2.98816C2.46737 2.67559 2.8913 2.5 3.33332 2.5H8.33332C8.77535 2.5 9.19927 2.67559 9.51183 2.98816C9.82439 3.30072 9.99999 3.72464 9.99999 4.16667V7.5V15.8333C9.99999 16.2754 9.82439 16.6993 9.51183 17.0118C9.19927 17.3244 8.77535 17.5 8.33332 17.5H3.33332C2.8913 17.5 2.46737 17.3244 2.15481 17.0118C1.84225 16.6993 1.66666 16.2754 1.66666 15.8333V4.16667C1.66666 3.72464 1.84225 3.30072 2.15481 2.98816ZM12.17 4.67002C12.2575 4.5825 12.3762 4.53333 12.5 4.53333H16.6667C16.7904 4.53333 16.9091 4.5825 16.9966 4.67002C17.0842 4.75753 17.1333 4.87623 17.1333 5V7.5V15C17.1333 15.1238 17.0842 15.2425 16.9966 15.33C16.9091 15.4175 16.7904 15.4667 16.6667 15.4667H12.5C12.3762 15.4667 12.2575 15.4175 12.17 15.33C12.0825 15.2425 12.0333 15.1238 12.0333 15V5C12.0333 4.87623 12.0825 4.75753 12.17 4.67002ZM11.3215 3.82149C11.634 3.50893 12.058 3.33333 12.5 3.33333H16.6667C17.1087 3.33333 17.5326 3.50893 17.8452 3.82149C18.1577 4.13405 18.3333 4.55797 18.3333 5V7.5V15C18.3333 15.442 18.1577 15.8659 17.8452 16.1785C17.5326 16.4911 17.1087 16.6667 16.6667 16.6667H12.5C12.058 16.6667 11.634 16.4911 11.3215 16.1785C11.0089 15.8659 10.8333 15.442 10.8333 15V5C10.8333 4.55797 11.0089 4.13405 11.3215 3.82149Z"
    fill="#254E8D" />
</svg>