<svg width="20" height="20" viewBox="0 0 20 20" fill="none" xmlns="http://www.w3.org/2000/svg">
  <path fill-rule="evenodd" clip-rule="evenodd"
    d="M7.3861 3.47587C7.53797 3.66571 7.53797 3.9735 7.3861 4.16334L4.02498 8.11469C3.87311 8.30453 3.62688 8.30453 3.47501 8.11469L1.89168 6.65636C1.73981 6.46652 1.73981 6.15873 1.89168 5.96889C2.04355 5.77906 2.28978 5.77906 2.44165 5.96889L3.75 7.0835L6.83612 3.47587C6.98799 3.28604 7.23422 3.28604 7.3861 3.47587Z"
    fill="#254E8D" />
  <path fill-rule="evenodd" clip-rule="evenodd"
    d="M7.5 6.25016C7.5 5.97402 7.72386 5.75016 8 5.75016L17 5.75016C17.2761 5.75016 17.5 5.97402 17.5 6.25016C17.5 6.52631 17.2761 6.75016 17 6.75016L8 6.75016C7.72386 6.75016 7.5 6.5263 7.5 6.25016Z"
    fill="#254E8D" />
  <path fill-rule="evenodd" clip-rule="evenodd"
    d="M4.88095 11.8335H3.45238C3.19005 11.8335 2.97749 11.9253 2.8424 12.0417C2.70938 12.1563 2.66666 12.276 2.66666 12.372V14.295C2.66666 14.391 2.70938 14.5107 2.8424 14.6253C2.97749 14.7417 3.19005 14.8335 3.45238 14.8335H4.88095C5.14327 14.8335 5.35584 14.7417 5.49093 14.6253C5.62394 14.5107 5.66666 14.391 5.66666 14.295V12.372C5.66666 12.276 5.62394 12.1563 5.49093 12.0417C5.35584 11.9253 5.14327 11.8335 4.88095 11.8335ZM3.45238 10.8335H4.88095C5.86717 10.8335 6.66666 11.5223 6.66666 12.372V14.295C6.66666 15.1447 5.86717 15.8335 4.88095 15.8335H3.45238C2.46616 15.8335 1.66666 15.1447 1.66666 14.295V12.372C1.66666 11.5223 2.46616 10.8335 3.45238 10.8335Z"
    fill="#254E8D" />
  <path fill-rule="evenodd" clip-rule="evenodd"
    d="M7.5 13.3335C7.5 13.0574 7.72386 12.8335 8 12.8335L17 12.8335C17.2761 12.8335 17.5 13.0574 17.5 13.3335C17.5 13.6096 17.2761 13.8335 17 13.8335L8 13.8335C7.72386 13.8335 7.5 13.6096 7.5 13.3335Z"
    fill="#254E8D" />
</svg>