<svg width="20" height="20" viewBox="0 0 20 20" fill="none" xmlns="http://www.w3.org/2000/svg">
  <rect width="20" height="20" fill="none" />
  <path fill-rule="evenodd" clip-rule="evenodd"
    d="M9.91674 4.27012C10.1929 4.27012 10.4167 4.49397 10.4167 4.77012V5.83317H12.7745C13.0344 5.83317 13.2451 6.04386 13.2451 6.30376C13.2451 6.56366 13.0344 6.77434 12.7745 6.77434H10.4167V9.75473H11.3039C11.9675 9.75473 12.6083 10.0056 13.0842 10.4588C13.5609 10.9128 13.8333 11.5336 13.8333 12.1861C13.8333 12.8385 13.5609 13.4593 13.0842 13.9133C12.6083 14.3666 11.9675 14.6175 11.3039 14.6175H10.4167V15.4165C10.4167 15.6926 10.1929 15.9165 9.91674 15.9165C9.64059 15.9165 9.41674 15.6926 9.41674 15.4165V14.6175H6.72047C6.46057 14.6175 6.24988 14.4068 6.24988 14.1469C6.24988 13.887 6.46057 13.6763 6.72047 13.6763H9.41674V10.6959H8.77929C8.11565 10.6959 7.47486 10.445 6.99894 9.99179C6.52224 9.53779 6.24988 8.91699 6.24988 8.26454C6.24988 7.61208 6.52224 6.99129 6.99894 6.53729C7.47486 6.08403 8.11565 5.83317 8.77929 5.83317H9.41674V4.77012C9.41674 4.49397 9.64059 4.27012 9.91674 4.27012ZM8.77929 6.77434H9.41674V9.75473H8.77929C8.35085 9.75473 7.94431 9.59242 7.64803 9.31025C7.35252 9.02881 7.19106 8.65215 7.19106 8.26454C7.19106 7.87693 7.35252 7.50026 7.64803 7.21883C7.94431 6.93665 8.35085 6.77434 8.77929 6.77434ZM10.4167 13.6763V10.6959H11.3039C11.7323 10.6959 12.1389 10.8582 12.4352 11.1404C12.7307 11.4218 12.8921 11.7985 12.8921 12.1861C12.8921 12.5737 12.7307 12.9504 12.4352 13.2318C12.1389 13.514 11.7323 13.6763 11.3039 13.6763H10.4167Z"
    fill="#254E8D" />
  <path fill-rule="evenodd" clip-rule="evenodd"
    d="M18.3333 9.99984C18.3333 14.6022 14.6024 18.3332 9.99999 18.3332C5.39762 18.3332 1.66666 14.6022 1.66666 9.99984C1.66666 5.39746 5.39762 1.6665 9.99999 1.6665C14.6024 1.6665 18.3333 5.39746 18.3333 9.99984ZM17.5 9.99984C17.5 14.142 14.1421 17.4998 9.99999 17.4998C5.85785 17.4998 2.49999 14.142 2.49999 9.99984C2.49999 5.8577 5.85785 2.49984 9.99999 2.49984C14.1421 2.49984 17.5 5.8577 17.5 9.99984Z"
    fill="#254E8D" />
</svg>