<svg width="20" height="20" viewBox="0 0 20 20" fill="none" xmlns="http://www.w3.org/2000/svg">
  <rect width="20" height="20" fill="none" />
  <path fill-rule="evenodd" clip-rule="evenodd"
    d="M16.5476 4.5335H3.45238C3.23621 4.5335 3.07042 4.60925 2.97294 4.69323C2.87795 4.77506 2.86666 4.84175 2.86666 4.87196V8.4617C2.86666 8.49191 2.87795 8.55859 2.97294 8.64043C3.07041 8.72441 3.23621 8.80016 3.45238 8.80016H5V10.0002H3.45238C2.46616 10.0002 1.66666 9.31137 1.66666 8.4617V4.87196C1.66666 4.02229 2.46616 3.3335 3.45238 3.3335H16.5476C17.5338 3.3335 18.3333 4.02229 18.3333 4.87196V7.50016H17.1333V4.87196C17.1333 4.84175 17.122 4.77506 17.0271 4.69323C16.9296 4.60925 16.7638 4.5335 16.5476 4.5335ZM7.50744 9.3335H16.6592C16.8969 9.3335 17.0844 9.41506 17.1987 9.51135C17.3109 9.60585 17.3333 9.69187 17.3333 9.74375V16.0899C17.3333 16.1418 17.3109 16.2278 17.1987 16.3223C17.0844 16.4186 16.8969 16.5002 16.6592 16.5002H7.50744C7.26979 16.5002 7.08224 16.4186 6.96793 16.3223C6.85576 16.2278 6.83333 16.1418 6.83333 16.0899V9.74375C6.83333 9.69187 6.85576 9.60585 6.96793 9.51135C7.08224 9.41506 7.26979 9.3335 7.50744 9.3335ZM16.6592 8.3335H7.50744C6.58285 8.3335 5.83333 8.96489 5.83333 9.74375V16.0899C5.83333 16.8688 6.58285 17.5002 7.50744 17.5002H16.6592C17.5838 17.5002 18.3333 16.8688 18.3333 16.0899V9.74375C18.3333 8.96489 17.5838 8.3335 16.6592 8.3335Z"
    fill="#254E8D" />
</svg>