<svg width="20" height="20" viewBox="0 0 20 20" fill="none" xmlns="http://www.w3.org/2000/svg">
  <rect width="20" height="20" fill="none" />
  <path fill-rule="evenodd" clip-rule="evenodd"
    d="M9.99992 2.56396C10.2761 2.56396 10.4999 2.76747 10.4999 3.01851L10.4999 11.7093L12.7714 9.43788C12.9666 9.24262 13.2832 9.24262 13.4785 9.43788C13.6737 9.63315 13.6737 9.94973 13.4785 10.145L10.3535 13.27C10.1582 13.4653 9.84163 13.4653 9.64637 13.27L6.52137 10.145C6.3261 9.94973 6.3261 9.63315 6.52137 9.43788C6.71663 9.24262 7.03321 9.24262 7.22847 9.43788L9.49993 11.7093L9.49992 3.01851C9.49992 2.76747 9.72378 2.56396 9.99992 2.56396ZM16.3555 7.1443C16.253 7.04188 16.1319 6.96253 16 6.90959V5.87143C16.3997 5.94959 16.7704 6.14505 17.0626 6.4372C17.4494 6.82399 17.6667 7.34859 17.6667 7.8956V15.1873C17.6667 15.7343 17.4494 16.4881 17.0626 16.8748C16.6758 17.2616 16.1512 17.4789 15.6042 17.4789H4.5625C4.01549 17.4789 3.49089 17.2616 3.10409 16.8748C2.7173 16.4881 2.5 15.9634 2.5 15.4164V7.8956C2.5 7.34859 2.7173 6.82399 3.10409 6.4372C3.49089 6.0504 4.01549 5.8331 4.5625 5.8331H6.95833C7.23448 5.8331 7.45833 6.05696 7.45833 6.3331C7.45833 6.60925 7.23448 6.8331 6.95833 6.8331H4.5625C4.28071 6.8331 4.01046 6.94504 3.8112 7.1443C3.61194 7.34356 3.5 7.61381 3.5 7.8956V15.4164C3.5 15.6982 3.61194 15.9685 3.8112 16.1677C4.01046 16.367 4.28071 16.4789 4.5625 16.4789H15.6042C15.886 16.4789 16.1562 16.367 16.3555 16.1677C16.5547 15.9685 16.6667 15.6982 16.6667 15.4164V7.8956C16.6667 7.61381 16.5547 7.34356 16.3555 7.1443Z"
    fill="#254E8D" />
</svg>