<svg width="20" height="20" viewBox="0 0 20 20" fill="none" xmlns="http://www.w3.org/2000/svg">
  <rect width="20" height="20" fill="none" />
  <path fill-rule="evenodd" clip-rule="evenodd"
    d="M16.5476 4.3335H3.4524C3.19008 4.3335 2.97751 4.42533 2.84242 4.54171C2.70941 4.65631 2.66669 4.77598 2.66669 4.87196V15.1284C2.66669 15.2243 2.70941 15.344 2.84242 15.4586C2.97751 15.575 3.19008 15.6668 3.4524 15.6668H16.5476C16.81 15.6668 17.0225 15.575 17.1576 15.4586C17.2906 15.344 17.3334 15.2243 17.3334 15.1284V4.87196C17.3334 4.77598 17.2906 4.6563 17.1576 4.54171C17.0225 4.42533 16.81 4.3335 16.5476 4.3335ZM3.4524 3.3335H16.5476C17.5339 3.3335 18.3334 4.02229 18.3334 4.87196V15.1284C18.3334 15.978 17.5339 16.6668 16.5476 16.6668H3.4524C2.46618 16.6668 1.66669 15.978 1.66669 15.1284V4.87196C1.66669 4.02229 2.46618 3.3335 3.4524 3.3335Z"
    fill="#254E8D" />
  <path fill-rule="evenodd" clip-rule="evenodd"
    d="M7.81359 7.53936C7.96512 7.71254 7.94757 7.97578 7.77439 8.12731L5.63277 10.0012L7.77439 11.8752C7.94757 12.0267 7.96512 12.2899 7.81359 12.4631C7.66205 12.6363 7.39882 12.6538 7.22564 12.5023L4.72564 10.3148C4.63522 10.2357 4.58335 10.1214 4.58335 10.0012C4.58335 9.88108 4.63522 9.76678 4.72564 9.68766L7.22564 7.50016C7.39882 7.34863 7.66205 7.36618 7.81359 7.53936Z"
    fill="#254E8D" />
  <path fill-rule="evenodd" clip-rule="evenodd"
    d="M12.1865 7.53936C12.338 7.36618 12.6012 7.34863 12.7744 7.50016L15.2744 9.68766C15.3648 9.76678 15.4167 9.88108 15.4167 10.0012C15.4167 10.1214 15.3648 10.2357 15.2744 10.3148L12.7744 12.5023C12.6012 12.6538 12.338 12.6363 12.1865 12.4631C12.0349 12.2899 12.0525 12.0267 12.2256 11.8752L14.3673 10.0012L12.2256 8.12731C12.0525 7.97578 12.0349 7.71254 12.1865 7.53936Z"
    fill="#254E8D" />
  <path fill-rule="evenodd" clip-rule="evenodd"
    d="M11.0561 6.66921C11.2596 6.73024 11.375 6.94464 11.314 7.14809L9.58335 12.9168C9.52231 13.1203 9.30791 13.2357 9.10447 13.1747C8.90103 13.1137 8.78558 12.8993 8.84662 12.6958L10.5772 6.92707C10.6383 6.72362 10.8527 6.60818 11.0561 6.66921Z"
    fill="#254E8D" />
</svg>