<svg width="20" height="20" viewBox="0 0 20 20" fill="none" xmlns="http://www.w3.org/2000/svg">
  <rect width="20" height="20" fill="none" />
  <path fill-rule="evenodd" clip-rule="evenodd"
    d="M2.86667 14.8486V5.15168C2.86667 4.70984 3.17176 4.5335 3.33334 4.5335H16.6667C16.8283 4.5335 17.1333 4.70984 17.1333 5.15168V9.98706C16.5726 9.1403 15.9778 8.24855 15.8166 8.03351C15.7965 8.00681 15.7748 7.97698 15.7512 7.9446L15.7511 7.94452L15.7511 7.94447C15.4289 7.50252 14.759 6.58351 13.3332 6.58351C12.0547 6.58351 11.4163 7.35881 11.0657 7.78461L11.0656 7.78465C10.9998 7.86454 10.9442 7.93211 10.8963 7.97996C10.6738 8.20247 8.99018 10.0971 7.38601 11.9082C6.57853 12.8199 5.78412 13.7185 5.19159 14.3892L4.23998 15.4668H3.33334C3.17176 15.4668 2.86667 15.2905 2.86667 14.8486ZM18.3333 5.15168V11.8073L18.3342 11.8086L18.3333 11.8091V12.5002H17.1333V11.8024C16.9256 11.4868 16.6508 11.0698 16.3668 10.6407C15.7745 9.74567 15.1613 8.82651 15.0166 8.63351C14.9951 8.60484 14.9733 8.57547 14.9513 8.54562L14.9512 8.54555C14.6328 8.11501 14.2398 7.58352 13.3332 7.58352C12.5653 7.58352 12.2649 7.93423 11.9166 8.34087C11.8196 8.45406 11.7189 8.57157 11.6034 8.68707C11.4093 8.88122 9.7596 10.7366 8.1346 12.5713C7.32749 13.4825 6.53337 14.3808 5.941 15.0513L5.57406 15.4668H11.6667V16.6668H3.33334C2.41286 16.6668 1.66667 15.8528 1.66667 14.8486V5.15168C1.66667 4.14752 2.41286 3.3335 3.33334 3.3335H16.6667C17.5871 3.3335 18.3333 4.14752 18.3333 5.15168ZM5.00001 5.00016C4.07953 5.00016 3.33334 5.74635 3.33334 6.66683C3.33334 7.5873 4.07953 8.33349 5.00001 8.33349C5.92048 8.33349 6.66667 7.5873 6.66667 6.66683C6.66667 5.74635 5.92048 5.00016 5.00001 5.00016ZM15.1465 12.6466C15.3417 12.4513 15.6583 12.4513 15.8536 12.6466L18.3536 15.1466C18.5488 15.3419 18.5488 15.6585 18.3536 15.8537C18.1583 16.049 17.8417 16.049 17.6465 15.8537L16 14.2073V17.7085C16 17.9386 15.7761 18.1252 15.5 18.1252C15.2239 18.1252 15 17.9386 15 17.7085V14.2073L13.3536 15.8537C13.1583 16.049 12.8417 16.049 12.6465 15.8537C12.4512 15.6585 12.4512 15.3419 12.6465 15.1466L15.1465 12.6466Z"
    fill="#254E8D" />
</svg>