<svg width="20" height="20" viewBox="0 0 20 20" fill="none" xmlns="http://www.w3.org/2000/svg">
  <rect width="20" height="20" fill="none" />
  <path fill-rule="evenodd" clip-rule="evenodd"
    d="M2.86667 14.8486V5.15168C2.86667 4.70984 3.17176 4.5335 3.33334 4.5335H16.6667C16.8283 4.5335 17.1333 4.70984 17.1333 5.15168V13.0863L14.3122 10.2704C13.9967 9.95504 13.5727 9.77204 13.1268 9.75883C12.6809 9.74561 12.2467 9.9032 11.9131 10.1994L8.68685 13.3996L7.86322 12.6363C7.52745 12.3571 7.09943 12.2136 6.66322 12.2338C6.22711 12.254 5.81409 12.4368 5.50564 12.7457L2.98851 15.2629C2.91743 15.1649 2.86667 15.0289 2.86667 14.8486ZM8.29203 14.4561C8.25307 14.4122 8.22322 14.3635 8.20234 14.3121L7.22359 13.405C7.07973 13.2855 6.8964 13.2241 6.70956 13.2327C6.52261 13.2414 6.34566 13.3196 6.21346 13.4521L4.19875 15.4668H9.44838L8.51307 14.6C8.43053 14.5737 8.35378 14.5255 8.29203 14.4561ZM9.41988 14.0789L10.9175 15.4668H16.6667C16.8283 15.4668 17.1333 15.2905 17.1333 14.8486V14.4992L13.6055 10.978C13.4703 10.8428 13.2883 10.7641 13.0972 10.7584C12.9061 10.7527 12.72 10.8203 12.577 10.9472L9.41988 14.0789ZM1.66667 5.15168V14.8486C1.66667 15.8528 2.41286 16.6668 3.33334 16.6668H16.6667C17.5871 16.6668 18.3333 15.8528 18.3333 14.8486V5.15168C18.3333 4.14752 17.5871 3.3335 16.6667 3.3335H3.33334C2.41286 3.3335 1.66667 4.14752 1.66667 5.15168ZM5.00001 5.00016C4.07953 5.00016 3.33334 5.74635 3.33334 6.66683C3.33334 7.5873 4.07953 8.33349 5.00001 8.33349C5.92048 8.33349 6.66667 7.5873 6.66667 6.66683C6.66667 5.74635 5.92048 5.00016 5.00001 5.00016Z"
    fill="#254E8D" />
</svg>