<svg width="20" height="20" viewBox="0 0 20 20" fill="none" xmlns="http://www.w3.org/2000/svg">
   <path
      d="M5.90002 3.49989V3.49999L5.9 12.0015C5.9 12.5195 5.89817 12.9622 5.8457 13.2769C5.83764 13.3252 5.82904 13.366 5.82034 13.4L2.68003 13.4C2.67132 13.366 2.66269 13.3251 2.65461 13.2768C2.60207 12.9621 2.60013 12.5194 2.6 12.0015C2.6 12.0014 2.6 12.0014 2.6 12.0013L2.60002 3.49999C2.60002 3.15353 2.62941 2.92748 2.66677 2.78344C2.69586 2.67129 2.725 2.62694 2.73414 2.61508C2.75024 2.61092 2.81211 2.60001 3.00026 2.60001H3.00026L5 2.6L5.18315 2.6L5.18337 2.60001L5.18417 2.60001L5.18448 2.60001L5.18478 2.60001L5.21183 2.60001L5.50027 2.60001C5.66851 2.60001 5.75456 2.60175 5.81336 2.6103C5.82309 2.63574 5.83659 2.67886 5.84986 2.7472C5.88016 2.90322 5.90007 3.14057 5.90002 3.49989ZM2.72931 2.61666C2.72921 2.61664 2.72976 2.61636 2.73125 2.6159L2.72931 2.61666ZM16.9008 3.49989V3.49999L16.9007 16.0015C16.9007 16.5195 16.8989 16.9622 16.8464 17.2769C16.8384 17.3252 16.8298 17.366 16.8211 17.4L13.6805 17.4C13.6718 17.366 13.6632 17.3251 13.6551 17.2767C13.6025 16.9621 13.6006 16.5194 13.6005 16.0015C13.6005 16.0014 13.6005 16.0014 13.6005 16.0013L13.6005 3.49998C13.6005 3.15352 13.6299 2.92748 13.6672 2.78343C13.6963 2.67128 13.7255 2.62693 13.7346 2.61507C13.7507 2.61091 13.8126 2.6 14.0007 2.6L16.501 2.60001C16.6693 2.60001 16.7553 2.60175 16.8141 2.6103C16.8238 2.63574 16.8373 2.67886 16.8506 2.7472C16.8809 2.90322 16.9008 3.14057 16.9008 3.49989ZM13.7298 2.61665C13.7297 2.61663 13.7302 2.61635 13.7317 2.61589L13.7298 2.61665ZM11.4005 3.49989V3.49999L11.4005 7.00147C11.4005 7.51948 11.3987 7.9622 11.3462 8.27689C11.3381 8.32522 11.3295 8.36603 11.3208 8.40001L8.18002 8.40001C8.1713 8.36599 8.16268 8.32514 8.1546 8.27674C8.10206 7.96207 8.10011 7.5194 8.09998 7.00146C8.09998 7.00141 8.09998 7.00136 8.09998 7.00131L8.1 3.49999C8.1 3.15352 8.1294 2.92748 8.16675 2.78343C8.19584 2.67128 8.22499 2.62693 8.23412 2.61507C8.25023 2.61091 8.31209 2.6 8.50024 2.6L11.0008 2.60001C11.169 2.60001 11.2551 2.60175 11.3139 2.6103C11.3236 2.63574 11.3371 2.67886 11.3504 2.7472C11.3807 2.90322 11.4006 3.14057 11.4005 3.49989ZM8.2293 2.61665C8.2292 2.61663 8.22975 2.61635 8.23123 2.61589L8.2293 2.61665Z"
      stroke="#254E8D" stroke-width="1.2" stroke-linecap="round" stroke-linejoin="round" />
</svg>