<svg width="20" height="20" viewBox="0 0 20 20" fill="none" xmlns="http://www.w3.org/2000/svg">
  <rect width="20" height="20" fill="none" />
  <path fill-rule="evenodd" clip-rule="evenodd"
    d="M5.91666 5.83334H8.33332V6.83334H5.91666C5.0547 6.83334 4.22805 7.17575 3.61856 7.78525C3.00907 8.39474 2.66666 9.22139 2.66666 10.0833C2.66666 10.9453 3.00907 11.7719 3.61856 12.3814C4.22805 12.9909 5.0547 13.3333 5.91666 13.3333H8.33332V14.3333H5.91666C4.78949 14.3333 3.70848 13.8856 2.91145 13.0885C2.11442 12.2915 1.66666 11.2105 1.66666 10.0833C1.66666 8.95617 2.11442 7.87517 2.91145 7.07814C3.70848 6.28111 4.78949 5.83334 5.91666 5.83334ZM14.1667 14.3333H12.5V13.3333H14.1667C15.0286 13.3333 15.8553 12.9909 16.4648 12.3814C17.0743 11.7719 17.4167 10.9453 17.4167 10.0833C17.4167 9.22139 17.0743 8.39474 16.4648 7.78525C15.8553 7.17575 15.0286 6.83334 14.1667 6.83334H12.5V5.83334H14.1667C15.2938 5.83334 16.3749 6.28111 17.1719 7.07814C17.9689 7.87517 18.4167 8.95617 18.4167 10.0833C18.4167 11.2105 17.9689 12.2915 17.1719 13.0885C16.3749 13.8856 15.2938 14.3333 14.1667 14.3333ZM6.37849 9.50001C6.10235 9.50001 5.87849 9.72387 5.87849 10C5.87849 10.2762 6.10235 10.5 6.37849 10.5H13.6996C13.9757 10.5 14.1996 10.2762 14.1996 10C14.1996 9.72387 13.9757 9.50001 13.6996 9.50001H6.37849Z"
    fill="#254E8D" />
</svg>