<svg width="20" height="20" viewBox="0 0 20 20" fill="none" xmlns="http://www.w3.org/2000/svg">
  <path d="M4.96466 13.9573L3.02623 6.02623V13.9573H2V5.08869H3.79907L5.75017 13.0198V5.08869H6.7764V13.9573H4.96466Z"
    fill="#254E8D" />
  <path
    d="M11.9186 7.83797C11.9186 7.20449 11.83 6.72728 11.6526 6.40632C11.4837 6.07691 11.1711 5.9122 10.715 5.9122C10.3603 5.9122 10.0731 5.92487 9.85351 5.95021C9.72681 5.96711 9.61701 5.97978 9.5241 5.98822V9.68772H10.715C10.8924 9.68772 11.0529 9.65815 11.1965 9.59903C11.3485 9.53146 11.4752 9.42588 11.5766 9.28229C11.6864 9.13871 11.7708 8.94866 11.83 8.71216C11.8891 8.47567 11.9186 8.18427 11.9186 7.83797ZM13.0462 7.74928C13.0462 8.23072 12.9998 8.65304 12.9069 9.01623C12.8224 9.37098 12.683 9.6666 12.4888 9.9031C12.2945 10.1396 12.0411 10.317 11.7286 10.4352C11.4161 10.5535 11.036 10.6126 10.5883 10.6126H9.5241V13.9573H8.42185V5.08869C8.63301 5.07179 8.85684 5.0549 9.09334 5.03801C9.29605 5.02112 9.5241 5.01267 9.77749 5.01267C10.0393 5.00422 10.3012 5 10.563 5C11.0444 5 11.4456 5.07179 11.7666 5.21538C12.0876 5.35052 12.341 5.54479 12.5268 5.79818C12.721 6.04312 12.8562 6.33452 12.9322 6.67237C13.0082 7.00178 13.0462 7.36075 13.0462 7.74928Z"
    fill="#254E8D" />
  <path
    d="M18 11.4361C18 11.9598 17.9409 12.3905 17.8226 12.7284C17.7044 13.0663 17.5355 13.3323 17.3158 13.5266C17.0962 13.7208 16.8302 13.856 16.5177 13.932C16.2136 14.008 15.8715 14.046 15.4914 14.046C15.2887 14.046 15.048 14.0291 14.7693 13.9953C14.4905 13.9616 14.2414 13.9151 14.0218 13.856V12.9311C14.216 12.9818 14.4441 13.0282 14.7059 13.0705C14.9678 13.1043 15.2718 13.1212 15.6181 13.1212C16.0573 13.1212 16.3741 12.9945 16.5683 12.7411C16.7711 12.4877 16.8724 12.0949 16.8724 11.5628C16.8724 11.2587 16.8513 11.0053 16.8091 10.8026C16.7668 10.5915 16.7035 10.4225 16.619 10.2959C16.5346 10.1607 16.4248 10.0594 16.2896 9.99179C16.1629 9.92421 16.0151 9.87354 15.8462 9.83975C15.4914 9.76373 15.1916 9.6666 14.9466 9.54835C14.7017 9.4301 14.5032 9.27807 14.3512 9.09225C14.1991 8.90643 14.0851 8.67838 14.0091 8.4081C13.9415 8.13781 13.9078 7.81685 13.9078 7.44521C13.9078 6.98911 13.9669 6.60903 14.0851 6.30496C14.2118 5.99244 14.385 5.73905 14.6046 5.54479C14.8326 5.35052 15.0987 5.21116 15.4028 5.1267C15.7068 5.04223 16.0405 5 16.4036 5C16.6148 5 16.8429 5.02112 17.0878 5.06335C17.3412 5.09713 17.5608 5.13936 17.7466 5.19004V6.11492C17.527 6.06424 17.2821 6.02201 17.0118 5.98822C16.7415 5.94599 16.4966 5.92487 16.2769 5.92487C16.1165 5.92487 15.9602 5.95021 15.8082 6.00089C15.6646 6.05157 15.5337 6.13181 15.4154 6.24161C15.3056 6.35141 15.2127 6.495 15.1367 6.67237C15.0691 6.8413 15.0353 7.05246 15.0353 7.30585C15.0353 7.55924 15.048 7.77462 15.0733 7.95199C15.0987 8.12092 15.1451 8.26029 15.2127 8.37009C15.2887 8.47989 15.3901 8.56858 15.5168 8.63615C15.6435 8.69527 15.8082 8.74595 16.0109 8.78818C16.315 8.84731 16.5895 8.93177 16.8344 9.04157C17.0793 9.15137 17.2863 9.30763 17.4552 9.51034C17.6326 9.70461 17.7677 9.958 17.8606 10.2705C17.9535 10.583 18 10.9716 18 11.4361Z"
    fill="#254E8D" />
</svg>