<svg width="20" height="20" viewBox="0 0 20 20" fill="none" xmlns="http://www.w3.org/2000/svg">
  <rect width="20" height="20" fill="none" />
  <path fill-rule="evenodd" clip-rule="evenodd"
    d="M5.23438 5.67725H3.04688C2.74484 5.67725 2.5 5.92209 2.5 6.22412C2.5 6.52615 2.74484 6.77099 3.04688 6.77099H4.14063V12.2397H3.04688C2.74484 12.2397 2.5 12.4846 2.5 12.7866C2.5 13.0887 2.74484 13.3335 3.04688 13.3335H6.32813C6.63016 13.3335 6.875 13.0887 6.875 12.7866C6.875 12.4846 6.63016 12.2397 6.32813 12.2397H5.23438V5.67725ZM12.0835 12.7978C12.0835 13.0937 11.8436 13.3335 11.5477 13.3335H7.86662V10.1192C7.86695 9.83514 7.99875 9.56279 8.2331 9.36192C8.46745 9.16105 8.7852 9.04807 9.11662 9.04779H10.9915V6.90493H8.40233C8.10647 6.90493 7.86662 6.66508 7.86662 6.36922C7.86662 6.07335 8.10647 5.8335 8.40233 5.8335H10.8335C11.1649 5.83383 11.4826 5.94682 11.7169 6.14768C11.9513 6.34854 12.0831 6.62087 12.0835 6.90493V9.04779C12.0831 9.33185 11.9513 9.60418 11.7169 9.80504C11.4826 10.0059 11.1649 10.1189 10.8335 10.1192H8.9038V12.2621H11.5477C11.8436 12.2621 12.0835 12.5019 12.0835 12.7978ZM16.4583 5.8335H13.869C13.5732 5.8335 13.3333 6.07335 13.3333 6.36922C13.3333 6.66508 13.5732 6.90493 13.869 6.90493H16.5245V9.04779H14.9107C14.6148 9.04779 14.375 9.28764 14.375 9.5835C14.375 9.87937 14.6148 10.1192 14.9107 10.1192H16.5245V12.2621H13.869C13.5732 12.2621 13.3333 12.5019 13.3333 12.7978C13.3333 13.0937 13.5732 13.3335 13.869 13.3335H16.4583C16.7345 13.3331 16.9992 13.2201 17.1945 13.0193C17.3898 12.8184 17.4996 12.5461 17.5 12.2621V6.90493C17.4997 6.62087 17.3898 6.34854 17.1946 6.14768C16.9993 5.94682 16.7345 5.83383 16.4583 5.8335Z"
    fill="#254E8D" />
</svg>