<svg width="20" height="20" viewBox="0 0 20 20" fill="none" xmlns="http://www.w3.org/2000/svg">
  <rect width="20" height="20" fill="none" />
  <path fill-rule="evenodd" clip-rule="evenodd"
    d="M9.12498 10C8.93195 10.9509 8.09122 11.6667 7.08332 11.6667C6.07542 11.6667 5.23469 10.9509 5.04166 10H2.08332C1.8532 10 1.66666 9.81345 1.66666 9.58333C1.66666 9.35321 1.8532 9.16667 2.08332 9.16667H5.04166C5.23469 8.21573 6.07542 7.5 7.08332 7.5C8.09122 7.5 8.93195 8.21573 9.12498 9.16667H17.9167C18.1468 9.16667 18.3333 9.35321 18.3333 9.58333C18.3333 9.81345 18.1468 10 17.9167 10H9.12498ZM8.33332 9.58333C8.33332 10.2737 7.77368 10.8333 7.08332 10.8333C6.39297 10.8333 5.83332 10.2737 5.83332 9.58333C5.83332 8.89298 6.39297 8.33333 7.08332 8.33333C7.77368 8.33333 8.33332 8.89298 8.33332 9.58333Z"
    fill="#254E8D" />
</svg>