<svg width="44" height="44" viewBox="0 0 44 44" fill="none" xmlns="http://www.w3.org/2000/svg">
  <rect width="44" height="44" fill="none" />
  <rect x="6" y="6" width="32" height="32" fill="none" />
  <path d="M23.408 12.6985H21.464V16.1051L23.408 16.105V12.6985Z" fill="#254E8D" fill-opacity="0.8" />
  <path d="M19.3554 19.7476H15.4675V21.6916H19.3554V19.7476Z" fill="#254E8D" fill-opacity="0.8" />
  <path
    d="M17.6544 33H11.701C11.25 32.9995 10.8176 32.8202 10.4987 32.5013C10.1798 32.1824 10.0005 31.75 10 31.299V25.3456C10.0005 24.8946 10.1798 24.4622 10.4987 24.1433C10.8176 23.8244 11.25 23.6451 11.701 23.6446H17.6544C18.1054 23.6451 18.5378 23.8244 18.8567 24.1433C19.1756 24.4622 19.3549 24.8946 19.3554 25.3456V31.299C19.3549 31.75 19.1756 32.1824 18.8567 32.5013C18.5378 32.8202 18.1054 32.9995 17.6544 33ZM11.701 25.3456V31.299H17.6544V25.3456H11.701Z"
    fill="#254E8D" fill-opacity="0.8" />
  <path
    d="M32.1519 11H13.441C12.9899 11 12.5572 11.1783 12.2382 11.4957C11.9192 11.813 11.74 12.2435 11.74 12.6923V21.1538H13.441V17.7692H32.1519V31.3077H23.6469V33H32.1519C32.603 33 33.0356 32.8217 33.3546 32.5043C33.6736 32.187 33.8528 31.7565 33.8528 31.3077V12.6923C33.8528 12.2435 33.6736 11.813 33.3546 11.4957C33.0356 11.1783 32.603 11 32.1519 11ZM32.1519 16.0769H13.441V12.6923H32.1519V16.0769Z"
    fill="#254E8D" fill-opacity="0.8" />
  <path d="M25.1873 19.7476H21.2994V21.6916H25.1873V19.7476Z" fill="none" />
  <path d="M25.1873 23.6357H21.2994V25.5797H25.1873V23.6357Z" fill="none" />
  <path d="M25.1873 27.5235H21.2994V29.4675H25.1873V27.5235Z" fill="none" />
  <path d="M31.0193 19.7476H27.1314V21.6916H31.0193V19.7476Z" fill="none" />
  <path d="M31.0193 23.6357H27.1314V25.5797H31.0193V23.6357Z" fill="none" />
  <path d="M31.0193 27.5235H27.1314V29.4675H31.0193V27.5235Z" fill="none" />
</svg>