<svg width="20" height="20" viewBox="0 0 20 20" fill="none" xmlns="http://www.w3.org/2000/svg">
  <rect width="20" height="20" fill="none" />
  <path fill-rule="evenodd" clip-rule="evenodd"
    d="M5.71398 3.06229C5.5538 2.91258 5.42088 2.79468 5.30599 2.70929C5.19361 2.62578 5.06563 2.54784 4.91478 2.51566C4.74783 2.48004 4.60765 2.51139 4.50131 2.54794C4.45224 2.56481 4.40386 2.58516 4.3643 2.60191L4.34717 2.60917C4.31087 2.62457 4.27645 2.63917 4.23739 2.65453L4.23577 2.65517C3.87943 2.79704 3.53757 2.96949 3.21447 3.17036L3.21278 3.17142C2.58671 3.565 2.19336 3.92173 1.92094 4.47256C1.78452 4.7484 1.62793 5.17174 1.67534 5.80637C1.72207 6.43184 1.96502 7.23853 2.57836 8.29285L2.58591 8.30583L2.59458 8.31828L2.6014 8.32807L2.62089 8.35587C2.63796 8.3802 2.66311 8.4159 2.69565 8.46182C2.76073 8.55366 2.85544 8.68637 2.9744 8.85061C3.21226 9.17897 3.54748 9.63384 3.93716 10.1401C4.71265 11.1477 5.71768 12.3773 6.60438 13.214C8.36066 14.8712 9.71874 15.7669 11.6849 16.8103C12.7176 17.3576 13.1856 17.3997 13.7038 17.4463C13.8 17.4549 13.898 17.4637 14.0016 17.476C14.6816 17.5562 15.1101 17.4207 15.4097 17.2886C15.9925 17.0317 16.3713 16.6631 16.7889 16.0693L16.7898 16.0681C17.0027 15.7627 17.1855 15.4395 17.3357 15.1024L17.3362 15.1013C17.3524 15.0646 17.3678 15.0322 17.3841 14.9981L17.3919 14.9817C17.4096 14.9443 17.4312 14.8986 17.4491 14.8522C17.488 14.7515 17.5212 14.6187 17.4833 14.4605C17.4492 14.3178 17.3665 14.1967 17.2782 14.0906C17.1877 13.9819 17.0625 13.8558 16.9039 13.7043C16.6418 13.4543 16.5359 13.3909 16.2351 13.2108C16.1614 13.1667 16.0761 13.1156 15.9738 13.053C15.4481 12.7312 14.9062 12.4367 14.5452 12.2645C14.0801 12.0428 13.7027 11.9385 13.3212 12.0975C13.1597 12.1648 13.0233 12.2705 12.9098 12.3612C12.8853 12.3808 12.8608 12.4006 12.8361 12.4205C12.737 12.5005 12.6338 12.5838 12.5025 12.6762L12.4016 12.7474C12.2096 12.883 12.1189 12.9471 12.0242 12.9842C11.9589 13.0098 11.8766 13.0275 11.6873 12.9946L11.6766 12.9891C11.6365 12.9684 11.5768 12.937 11.5008 12.8956C11.3486 12.8127 11.1313 12.6899 10.8737 12.5319C10.3572 12.2152 9.68516 11.7605 9.05315 11.2056C8.43412 10.6621 7.86326 9.88563 7.64239 9.54426C7.42151 9.20289 7.17966 8.52788 7.17966 8.52788C7.16744 8.41872 7.21258 8.27221 7.35321 8.06171C7.42671 7.95169 7.51572 7.83953 7.61369 7.72101C7.63906 7.69032 7.66557 7.65857 7.69258 7.62624C7.76506 7.53945 7.84108 7.44842 7.90782 7.36244C8.13321 7.07206 8.34122 6.80253 8.32501 6.45884C8.31737 6.29682 8.26211 6.14601 8.19952 6.00451C8.15534 5.90465 8.09747 5.68607 7.59794 5.11912C7.16586 4.62872 6.02222 3.34927 5.71398 3.06229ZM2.46421 5.7536C2.49997 6.23233 2.57836 7.04582 3.62671 8.42753C3.86139 8.75151 4.19218 9.20036 4.57643 9.69961C5.34876 10.7031 6.32315 11.8918 7.1628 12.6841C8.8592 14.2849 10.1563 15.1411 12.0713 16.1574C13.0249 16.6628 13.4221 16.6868 13.8167 16.7106C13.9087 16.7162 14.0006 16.7217 14.0995 16.7334C14.6034 16.7929 14.882 16.6957 15.0758 16.6103C15.4796 16.4323 15.7585 16.1836 16.1301 15.6554C16.3161 15.3886 16.569 14.9048 16.7003 14.6103C16.6916 14.5975 16.6779 14.5789 16.6569 14.5536C16.5963 14.4808 16.4988 14.3806 16.3423 14.2311C16.0799 13.981 15.6073 13.6543 15.094 13.3401C14.7736 13.1439 14.629 13.0961 14.4825 13.0476C14.3972 13.0194 14.3112 12.9909 14.1895 12.9328C13.7637 12.7299 13.6747 12.7676 13.6421 12.7814L13.6399 12.7823C13.5953 12.8009 13.5376 12.839 13.42 12.933C13.4002 12.9488 13.379 12.9659 13.3564 12.9842C13.2563 13.0651 13.1292 13.1679 12.9742 13.2768C12.9445 13.2977 12.9149 13.3188 12.8851 13.3401C12.7051 13.4684 12.5212 13.5995 12.3266 13.6757C12.0608 13.7798 11.795 13.7823 11.4696 13.7166L11.4168 13.7059L11.3689 13.6822L11.367 13.6813L11.3631 13.6793L11.349 13.6722C11.3368 13.6661 11.3194 13.6572 11.297 13.6456C11.2522 13.6224 11.1876 13.5884 11.1063 13.5441C10.9439 13.4557 10.7145 13.326 10.4436 13.1599C9.90307 12.8284 9.19118 12.3476 8.51523 11.7541C7.82628 11.1492 7.31033 10.4642 6.96792 9.935C6.62551 9.40579 6.41169 8.71613 6.41169 8.71613C6.31886 8.30699 6.50116 7.93666 6.68474 7.66186C6.78026 7.51887 6.8894 7.38261 6.99078 7.25996C7.02207 7.22211 7.05211 7.18614 7.08102 7.15153C7.14995 7.06899 7.21249 6.99412 7.27043 6.91948L7.53497 6.49219C7.53371 6.46551 7.52326 6.41382 7.47001 6.29345C7.31929 6.12239 7.01421 5.75876 6.67221 5.35111C6.06553 4.62799 5.34265 3.76637 5.15904 3.59545L5.15848 3.59492C5.00034 3.44711 4.89451 3.35502 4.81752 3.29781C4.79039 3.27765 4.77053 3.26468 4.75692 3.25651C4.74031 3.26277 4.71891 3.27158 4.68733 3.28495L4.67175 3.29156C4.63596 3.30675 4.59132 3.3257 4.54171 3.34523C4.23046 3.4692 3.93183 3.61983 3.64956 3.79525C3.08996 4.14715 2.82512 4.40981 2.63722 4.78974C2.54343 4.97938 2.42844 5.27487 2.46421 5.7536Z"
    fill="#254E8D" />
</svg>