<svg width="20" height="20" viewBox="0 0 20 20" fill="none" xmlns="http://www.w3.org/2000/svg">
  <path fill-rule="evenodd" clip-rule="evenodd"
    d="M3.45239 7.66666H16.5476C16.8099 7.66666 17.0225 7.75849 17.1576 7.87487C17.2906 7.98947 17.3333 8.10914 17.3333 8.20512V10.8333H18.3333V8.20512C18.3333 7.35545 17.5338 6.66666 16.5476 6.66666H3.45239C2.46616 6.66666 1.66667 7.35545 1.66667 8.20512V11.7949C1.66667 12.6445 2.46616 13.3333 3.45239 13.3333H10.8333V12.3333H3.45239C3.19006 12.3333 2.97749 12.2415 2.8424 12.1251C2.70939 12.0105 2.66667 11.8908 2.66667 11.7949V8.20512C2.66667 8.10914 2.70939 7.98947 2.8424 7.87487C2.97749 7.75849 3.19006 7.66666 3.45239 7.66666ZM3.33334 9.49999C3.33334 9.3159 3.48258 9.16666 3.66667 9.16666H9.66667C9.85077 9.16666 10 9.3159 10 9.49999V10.5C10 10.6841 9.85077 10.8333 9.66667 10.8333H3.66667C3.48258 10.8333 3.33334 10.6841 3.33334 10.5V9.49999ZM15.5833 10C15.5833 9.72387 15.3595 9.50001 15.0833 9.50001C14.8072 9.50001 14.5833 9.72387 14.5833 10V12.4167H12.1667C11.8905 12.4167 11.6667 12.6405 11.6667 12.9167C11.6667 13.1928 11.8905 13.4167 12.1667 13.4167H14.5833V15.8333C14.5833 16.1095 14.8072 16.3333 15.0833 16.3333C15.3595 16.3333 15.5833 16.1095 15.5833 15.8333V13.4167H18C18.2761 13.4167 18.5 13.1928 18.5 12.9167C18.5 12.6405 18.2761 12.4167 18 12.4167H15.5833V10Z"
    fill="#254E8D" />
</svg>