<svg width="20" height="20" viewBox="0 0 20 20" fill="none" xmlns="http://www.w3.org/2000/svg">
  <rect width="20" height="20" fill="none" />
  <path fill-rule="evenodd" clip-rule="evenodd"
    d="M5.99999 3.83334V16.1667C5.99999 16.4428 5.77613 16.6667 5.49999 16.6667C5.22385 16.6667 4.99999 16.4428 4.99999 16.1667V14.1667H3.45237C2.46615 14.1667 1.66666 13.4779 1.66666 12.6282V7.37181C1.66666 6.52214 2.46615 5.83334 3.45237 5.83334H4.99999V3.83334C4.99999 3.5572 5.22385 3.33334 5.49999 3.33334C5.77613 3.33334 5.99999 3.5572 5.99999 3.83334ZM4.99999 7.03334V12.9667H3.45237C3.2362 12.9667 3.07041 12.8909 2.97293 12.8069C2.87795 12.7251 2.86666 12.6584 2.86666 12.6282V7.37181C2.86666 7.3416 2.87795 7.27491 2.97293 7.19308C3.07041 7.1091 3.2362 7.03334 3.45237 7.03334H4.99999ZM7.49999 5.83334V7.03334H16.5476C16.7638 7.03334 16.9296 7.1091 17.027 7.19308C17.122 7.27491 17.1333 7.3416 17.1333 7.37181V12.6282C17.1333 12.6584 17.122 12.7251 17.027 12.8069C16.9296 12.8909 16.7638 12.9667 16.5476 12.9667H7.49999V14.1667H16.5476C17.5338 14.1667 18.3333 13.4779 18.3333 12.6282V7.37181C18.3333 6.52214 17.5338 5.83334 16.5476 5.83334H7.49999Z"
    fill="#254E8D" />
</svg>