<svg width="21" height="15" viewBox="0 0 21 15" fill="none" xmlns="http://www.w3.org/2000/svg">
<g clip-path="url(#clip0_1716_4478)">
<path d="M19 0H2C0.89543 0 0 0.89543 0 2V13C0 14.1046 0.89543 15 2 15H19C20.1046 15 21 14.1046 21 13V2C21 0.89543 20.1046 0 19 0Z" fill="#FFDA2C"/>
<path fill-rule="evenodd" clip-rule="evenodd" d="M0 10H21V15H0V10Z" fill="#249F58"/>
<path fill-rule="evenodd" clip-rule="evenodd" d="M9 7H10V8H9V7ZM11 7H12V8H11V7Z" fill="#03BCDB"/>
<path fill-rule="evenodd" clip-rule="evenodd" d="M12 7H13V9H12V7ZM11 6H12V7H11V6ZM9 6H10V7H9V6ZM8 7H9V9H8V7Z" fill="#AF010D"/>
<path fill-rule="evenodd" clip-rule="evenodd" d="M10 8H11V9H10V8Z" fill="#249F58"/>
<path fill-rule="evenodd" clip-rule="evenodd" d="M11 8H12V9H11V8ZM9 8H10V9H9V8Z" fill="#D4AF2C"/>
<path fill-rule="evenodd" clip-rule="evenodd" d="M10 7H11V8H10V7Z" fill="#249F58"/>
<path fill-rule="evenodd" clip-rule="evenodd" d="M10 6H11V7H10V6Z" fill="#151515"/>
<path fill-rule="evenodd" clip-rule="evenodd" d="M0 0H21V5H0V0Z" fill="#F93939"/>
</g>
<defs>
<clipPath id="clip0_1716_4478">
<rect width="21" height="15" rx="3" fill="white"/>
</clipPath>
</defs>
</svg>
