<svg width="21" height="15" viewBox="0 0 21 15" fill="none" xmlns="http://www.w3.org/2000/svg">
<g clip-path="url(#clip0_1716_4496)">
<rect width="21" height="15" rx="3" fill="#1A47B8"/>
<path d="M10.5 12C12.9853 12 15 9.98528 15 7.5C15 5.01472 12.9853 3 10.5 3C8.01472 3 6 5.01472 6 7.5C6 9.98528 8.01472 12 10.5 12Z" fill="white"/>
<path fill-rule="evenodd" clip-rule="evenodd" d="M8.5 8H12.5V9H8.5V8Z" fill="#CBCBCB"/>
<path fill-rule="evenodd" clip-rule="evenodd" d="M8 5H9V6H8V5ZM10 4H11V5H10V4ZM12 5H13V6H12V5ZM13 7H14V8H13V7ZM12 9H13V10H12V9Z" fill="#249F58"/>
<path fill-rule="evenodd" clip-rule="evenodd" d="M11 7H12V8H11V7Z" fill="#AE6A3E"/>
<path fill-rule="evenodd" clip-rule="evenodd" d="M9 7H10V8H9V7Z" fill="#FFDA2C"/>
<path fill-rule="evenodd" clip-rule="evenodd" d="M10 10H11V11H10V10ZM8 9H9V10H8V9ZM7 7H8V8H7V7Z" fill="#249F58"/>
<path fill-rule="evenodd" clip-rule="evenodd" d="M11 6H12V7H11V6Z" fill="#151515"/>
<path fill-rule="evenodd" clip-rule="evenodd" d="M9 6H10V7H9V6Z" fill="#AE6A3E"/>
<path fill-rule="evenodd" clip-rule="evenodd" d="M0 13H21V15H0V13ZM0 0H21V2H0V0Z" fill="#F93939"/>
</g>
<defs>
<clipPath id="clip0_1716_4496">
<rect width="21" height="15" rx="3" fill="white"/>
</clipPath>
</defs>
</svg>
