<svg width="21" height="15" viewBox="0 0 21 15" fill="none" xmlns="http://www.w3.org/2000/svg">
<g clip-path="url(#clip0_1716_4430)">
<rect width="21" height="15" rx="3" fill="white"/>
<path d="M10.7059 11.6176H10.2941L10.3971 9.97059C10.3912 9.88385 10.3496 9.86105 10.1912 9.86765L8.54412 10.0735C8.54412 10.0735 8.85294 9.66176 8.85294 9.45588C8.85294 9.25 7 7.91176 7 7.91176C7 7.91176 7.41176 7.80882 7.51471 7.70588C7.61765 7.60294 7.10294 6.47059 7.10294 6.47059C7.10294 6.47059 8.14906 6.88235 8.23529 6.77941C8.32153 6.67647 8.44118 6.26471 8.44118 6.26471C8.44118 6.26471 9.26471 7.19118 9.47059 7.19118C9.67647 7.19118 9.05882 4.92647 9.05882 4.92647C9.05882 4.92647 9.57353 5.33824 9.77941 5.33824C9.98529 5.33824 10.5 4 10.5 4C10.5 4 11.0147 5.33824 11.1176 5.33824C11.2206 5.33824 11.9412 4.92647 11.9412 4.92647C11.9412 4.92647 11.4265 7.08824 11.5294 7.19118C11.6324 7.29412 12.5588 6.26471 12.5588 6.26471C12.5588 6.26471 12.6618 6.67647 12.7647 6.77941C12.8676 6.88235 13.8971 6.47059 13.8971 6.47059C13.8971 6.47059 13.3824 7.60294 13.4853 7.70588C13.5882 7.80882 14 7.91176 14 7.91176C14 7.91176 12.1471 9.25 12.1471 9.45588C12.1471 9.66176 12.3529 10.0735 12.3529 10.0735L10.8088 9.86765C10.6847 9.83206 10.6417 9.85907 10.6029 9.97059L10.7059 11.6176Z" fill="#F93939"/>
<rect x="16" width="5" height="15" fill="#F93939"/>
<rect width="5" height="15" fill="#F93939"/>
</g>
<defs>
<clipPath id="clip0_1716_4430">
<rect width="21" height="15" rx="3" fill="white"/>
</clipPath>
</defs>
</svg>
