<svg width="21" height="15" viewBox="0 0 21 15" fill="none" xmlns="http://www.w3.org/2000/svg">
<g clip-path="url(#clip0_1716_4181)">
<rect width="21" height="15" rx="3" fill="#249F58"/>
<path fill-rule="evenodd" clip-rule="evenodd" d="M10 7H0V8H10V15H11V8H21V7H11V0H10V7Z" fill="#151515"/>
<path fill-rule="evenodd" clip-rule="evenodd" d="M9 6V7H10V0H9V6H0V7H10V6H9ZM10 7H21V6H9V7H10V6H9V15H10V7Z" fill="#FFDA2C"/>
<path fill-rule="evenodd" clip-rule="evenodd" d="M12 9V8H11V15H12V9H21V8H11V9H12ZM0 8H13V9H0V8ZM11 0H12V9H11V0Z" fill="white"/>
<path d="M10.5 11C12.433 11 14 9.433 14 7.5C14 5.567 12.433 4 10.5 4C8.567 4 7 5.567 7 7.5C7 9.433 8.567 11 10.5 11Z" fill="#F93939"/>
<path fill-rule="evenodd" clip-rule="evenodd" d="M9 6H10V7H9V6ZM11 6H12V7H11V6ZM11 8H12V9H11V8ZM9 8H10V9H9V8Z" fill="#0A6A30"/>
<path fill-rule="evenodd" clip-rule="evenodd" d="M10 6H11V8H10V6Z" fill="#955DCC"/>
</g>
<defs>
<clipPath id="clip0_1716_4181">
<rect width="21" height="15" rx="3" fill="white"/>
</clipPath>
</defs>
</svg>
