<svg
  width="61"
  height="61"
  viewBox="0 0 61 61"
  fill="none"
  xmlns="http://www.w3.org/2000/svg"
>
  <path
      d="M60.9728 26.7544C60.9352 26.4453 60.7597 26.1695 60.4953 26.0044L51.7339 20.6725C51.6887 20.6507 51.6464 20.6297 51.6031 20.6045L38.8058 15.1499H38.8062C38.5551 15.0358 38.2693 15.0282 38.0125 15.128C37.7557 15.2274 37.5502 15.4267 37.4422 15.6802C37.3343 15.9332 37.3329 16.2195 37.4389 16.474C37.5445 16.7279 37.7485 16.9291 38.0044 17.0309L48.5949 21.5442L30.6437 29.1932L12.6951 21.5438L26.8719 15.5023C27.3917 15.2811 27.6333 14.68 27.4121 14.1606C27.1905 13.6408 26.5898 13.3992 26.0701 13.6203L9.7066 20.5939C9.65477 20.6177 9.60768 20.6457 9.55584 20.6695L0.793956 26.0014C0.318843 26.3006 0.168078 26.9231 0.452953 27.4068C0.568523 27.5851 0.73213 27.7273 0.925692 27.8158L9.06457 31.2848V50.8613C9.06457 51.2708 9.30902 51.6412 9.68617 51.802L30.2428 60.5634C30.5001 60.6675 30.7873 60.6675 31.0446 60.5634L51.6012 51.802C51.9784 51.6412 52.2228 51.2708 52.2228 50.8613V34.3687C52.2228 33.8037 51.7653 33.3457 51.2003 33.3457C50.6353 33.3457 50.1778 33.8037 50.1778 34.3687V50.1868L31.6666 58.075V32.1247L38.8737 36.5102C39.1039 36.6467 39.3774 36.6895 39.6385 36.6301C39.8268 36.6063 60.1793 27.8744 60.3655 27.8155C60.7793 27.6338 61.0257 27.2034 60.9734 26.7549L60.9728 26.7544ZM39.4884 34.49L32.8749 30.4674L51.117 22.6947L57.7305 26.7173L39.4884 34.49ZM21.7991 34.49L3.55699 26.7173L10.1706 22.6947L28.4127 30.4674L21.7991 34.49ZM11.1091 32.1572L21.481 36.5779C21.6089 36.6278 21.744 36.6554 21.8804 36.6597C22.0678 36.654 22.2509 36.6026 22.4136 36.5103L29.6207 32.1245V58.0747L11.1095 50.1855L11.1091 32.1572Z"
      fill="#BDC3CC"
  />
  <path
      d="M35.3564 15.5169C39.261 13.0828 40.2826 7.33527 37.5908 3.64509C34.411 -1.14609 26.9418 -1.2122 23.6441 3.43582C22.4094 5.1227 20.9713 8.64645 22.701 10.4817C23.2061 10.9802 23.8871 11.2593 24.5962 11.2584C25.3058 11.2574 25.9859 10.9764 26.4896 10.4765C27.6486 9.46491 26.9485 7.66196 27.9059 6.5405L27.9054 6.54003C28.3192 5.95933 28.9046 5.5232 29.5795 5.29255C29.9286 5.18222 30.292 5.12182 30.6582 5.11325C31.3972 5.11515 32.1172 5.34867 32.7165 5.78146C33.3157 6.21425 33.7642 6.82396 33.9987 7.52495C34.1081 7.88545 34.167 8.25926 34.1742 8.63594C34.1713 9.58997 33.787 10.5031 33.1074 11.1723C32.4739 11.7558 31.7676 11.9998 31.0172 12.5862V12.5867C29.2794 13.7357 28.2463 15.6908 28.2763 17.7744C28.3238 18.5986 28.8009 19.3372 29.5328 19.7186C30.2647 20.1005 31.1435 20.0692 31.8465 19.6364C32.5495 19.2036 32.9732 18.4326 32.9618 17.6075C33.1035 16.5327 34.5051 16.1236 35.3559 15.5168L35.3564 15.5169ZM33.5069 14.2395C32.1643 14.9705 30.8882 16.0605 30.9159 17.6485C30.9173 17.7275 30.8859 17.8036 30.8293 17.8592C30.7446 17.9396 30.621 17.9643 30.5121 17.9225C30.4027 17.8806 30.3275 17.7793 30.319 17.6628C30.1773 15.5341 32.1947 14.133 33.8645 13.1856L33.8641 13.1851C35.3522 12.1364 36.232 10.4257 36.2197 8.60567C36.2092 8.02212 36.116 7.44284 35.9429 6.88544C35.571 5.77208 34.8576 4.80372 33.9041 4.11838C32.951 3.43305 31.8058 3.06542 30.632 3.06732C30.0551 3.08016 29.4829 3.17623 28.9337 3.3522C27.8455 3.72125 26.9019 4.42419 26.2371 5.36062C25.5641 6.29991 25.2103 7.42991 25.2269 8.5851C25.2269 8.93418 24.944 9.21716 24.5944 9.21764C23.0483 9.10587 24.6748 5.26873 25.2873 4.65717C26.5505 2.96409 28.5489 1.98009 30.6611 2.01053C37.3684 2.15416 39.5438 11.1828 33.5071 14.2393L33.5069 14.2395Z"
      fill="#BDC3CC"
  />
  <path
      d="M30.6431 20.8044C26.2762 20.9409 26.2795 27.2753 30.6431 27.4133C35.0067 27.2749 35.0067 20.9428 30.6431 20.8044V20.8044ZM30.6431 25.3677C29.9592 25.352 29.4131 24.7932 29.4131 24.1088C29.4131 23.4249 29.9591 22.8656 30.6431 22.8499C31.327 22.8656 31.873 23.4249 31.873 24.1088C31.873 24.7932 31.327 25.352 30.6431 25.3677Z"
      fill="#BDC3CC"
  />
</svg>