<svg width="21" height="15" viewBox="0 0 21 15" fill="none" xmlns="http://www.w3.org/2000/svg">
<g clip-path="url(#clip0_1716_4169)">
<path d="M19 0H2C0.89543 0 0 0.89543 0 2V13C0 14.1046 0.89543 15 2 15H19C20.1046 15 21 14.1046 21 13V2C21 0.89543 20.1046 0 19 0Z" fill="#FFDA2C"/>
<path fill-rule="evenodd" clip-rule="evenodd" d="M0 10H21V15H0V10Z" fill="#F93939"/>
<path fill-rule="evenodd" clip-rule="evenodd" d="M0 0H21V5H0V0Z" fill="#249F58"/>
<path d="M10.5 12C12.9853 12 15 9.98528 15 7.5C15 5.01472 12.9853 3 10.5 3C8.01472 3 6 5.01472 6 7.5C6 9.98528 8.01472 12 10.5 12Z" fill="#1A47B8"/>
<path fill-rule="evenodd" clip-rule="evenodd" d="M10.4981 8.75002L9.02812 9.52302L9.30812 7.88602L8.12012 6.72602L9.76312 6.48902L10.4981 4.99902L11.2321 6.48902L12.8751 6.72602L11.6851 7.88602L11.9671 9.52202" fill="#FFDA2C"/>
</g>
<defs>
<clipPath id="clip0_1716_4169">
<rect width="21" height="15" rx="3" fill="white"/>
</clipPath>
</defs>
</svg>
