<svg width="21" height="15" viewBox="0 0 21 15" fill="none" xmlns="http://www.w3.org/2000/svg">
<rect width="21" height="15" rx="3" fill="#3ECBF8"/>
<path fill-rule="evenodd" clip-rule="evenodd" d="M18 10V6.5C18 5.665 17.328 5 16.5 5H14.5C13.674 5 13 5.67 13 6.5V10C13 10.182 14 12 15.5 12C17 12 18 10.177 18 10Z" fill="white"/>
<path fill-rule="evenodd" clip-rule="evenodd" d="M16 8V9.118H18V10.08H16V12H15V10.08H13V9.118H15V8H13V5H18V8H16Z" fill="#F93939"/>
<path fill-rule="evenodd" clip-rule="evenodd" d="M14 6H17V7H14V6Z" fill="#FFDA2C"/>
<path d="M9 1H2C1.44772 1 1 1.44772 1 2V7C1 7.55228 1.44772 8 2 8H9C9.55229 8 10 7.55228 10 7V2C10 1.44772 9.55229 1 9 1Z" fill="white"/>
<path fill-rule="evenodd" clip-rule="evenodd" d="M5 5H2V4H5V2H6V4H9V5H6V7H5V5ZM7.5 6V7H9V6H7.5ZM7.5 2V3H9V2H7.5ZM2 6V7H3.5V6H2ZM2 2V3H3.5V2H2Z" fill="#F93939"/>
</svg>
