<svg width="21" height="15" viewBox="0 0 21 15" fill="none" xmlns="http://www.w3.org/2000/svg">
<g clip-path="url(#clip0_1716_4202)">
<rect width="21" height="15" rx="3" fill="white"/>
<path fill-rule="evenodd" clip-rule="evenodd" d="M0 10H21V15H0V10Z" fill="#F93939"/>
<path fill-rule="evenodd" clip-rule="evenodd" d="M11.5 8C11.776 8 12 7.776 12 7.5C12 7.224 11.776 7 11.5 7C11.224 7 11 7.224 11 7.5C11 7.776 11.224 8 11.5 8ZM13.5 8C13.776 8 14 7.776 14 7.5C14 7.224 13.776 7 13.5 7C13.224 7 13 7.224 13 7.5C13 7.776 13.224 8 13.5 8Z" fill="#00B731"/>
<path fill-rule="evenodd" clip-rule="evenodd" d="M12 7H13V9H12V7Z" fill="#AE6A3E"/>
<path fill-rule="evenodd" clip-rule="evenodd" d="M10.5 7C10.776 7 11 6.776 11 6.5C11 6.224 10.776 6 10.5 6C10.224 6 10 6.224 10 6.5C10 6.776 10.224 7 10.5 7ZM12.5 7C12.776 7 13 6.776 13 6.5C13 6.224 12.776 6 12.5 6C12.224 6 12 6.224 12 6.5C12 6.776 12.224 7 12.5 7ZM14.5 7C14.776 7 15 6.776 15 6.5C15 6.224 14.776 6 14.5 6C14.224 6 14 6.224 14 6.5C14 6.776 14.224 7 14.5 7Z" fill="#FFDA2C"/>
<path fill-rule="evenodd" clip-rule="evenodd" d="M0 0H21V5H0V0Z" fill="#00B731"/>
<path fill-rule="evenodd" clip-rule="evenodd" d="M0 0V15.033L7 7.5L0 0Z" fill="#3A99FF"/>
</g>
<defs>
<clipPath id="clip0_1716_4202">
<rect width="21" height="15" rx="3" fill="white"/>
</clipPath>
</defs>
</svg>
