<svg width="21" height="15" viewBox="0 0 21 15" fill="none" xmlns="http://www.w3.org/2000/svg">
<g clip-path="url(#clip0_1716_4003)">
<rect width="21" height="15" rx="3" fill="white"/>
<path fill-rule="evenodd" clip-rule="evenodd" d="M0 10H21V15H0V10Z" fill="#249F58"/>
<path fill-rule="evenodd" clip-rule="evenodd" d="M10.5 10C11.88 10 13 8.88 13 7.5C13 6.12 11.88 5 10.5 5C9.12 5 8 6.12 8 7.5C8 8.88 9.12 10 10.5 10ZM10.5 9C11.328 9 12 8.328 12 7.5C12 6.672 11.328 6 10.5 6C9.672 6 9 6.672 9 7.5C9 8.328 9.672 9 10.5 9Z" fill="#1A47B8"/>
<path d="M10.5 8C10.7761 8 11 7.77614 11 7.5C11 7.22386 10.7761 7 10.5 7C10.2239 7 10 7.22386 10 7.5C10 7.77614 10.2239 8 10.5 8Z" fill="#1A47B8"/>
<path fill-rule="evenodd" clip-rule="evenodd" d="M0 0H21V5H0V0Z" fill="#FF6C2D"/>
</g>
<defs>
<clipPath id="clip0_1716_4003">
<rect width="21" height="15" rx="3" fill="white"/>
</clipPath>
</defs>
</svg>
