<svg width="21" height="15" viewBox="0 0 21 15" fill="none" xmlns="http://www.w3.org/2000/svg">
<rect width="21" height="15" rx="3" fill="#151515"/>
<path fill-rule="evenodd" clip-rule="evenodd" d="M0 11H21V15H0V11Z" fill="#0A6A30"/>
<path fill-rule="evenodd" clip-rule="evenodd" d="M0 10H21V11H0V10Z" fill="white"/>
<path fill-rule="evenodd" clip-rule="evenodd" d="M0 5H21V10H0V5Z" fill="#F93939"/>
<path fill-rule="evenodd" clip-rule="evenodd" d="M0 4H21V5H0V4Z" fill="white"/>
<path fill-rule="evenodd" clip-rule="evenodd" d="M12.414 5.914C12.486 5.914 12.914 5.244 12.914 4.414C12.914 3.586 12.486 2.914 12.414 2.914C12.344 2.914 11.914 3.586 11.914 4.414C11.914 5.244 12.344 5.914 12.414 5.914ZM9.475 5.475C9.425 5.525 8.645 5.355 8.061 4.768C7.476 4.182 7.304 3.404 7.355 3.354C7.405 3.304 8.183 3.474 8.769 4.061C9.355 4.647 9.526 5.425 9.476 5.476L9.475 5.475ZM11.354 10.008C11.404 9.961 12.184 10.121 12.769 10.668C13.354 11.218 13.526 11.945 13.476 11.992C13.426 12.039 12.646 11.879 12.06 11.332C11.475 10.782 11.303 10.055 11.354 10.008ZM9.475 10.008C9.425 9.961 8.645 10.121 8.061 10.668C7.476 11.218 7.304 11.945 7.355 11.992C7.405 12.039 8.183 11.879 8.769 11.332C9.355 10.782 9.526 10.055 9.476 10.008H9.475Z" fill="white"/>
<path fill-rule="evenodd" clip-rule="evenodd" d="M10.5 12C10.857 12 13 9.985 13 7.5C13 5.015 10.857 3 10.5 3C10.143 3 8 5.015 8 7.5C8 9.985 10.143 12 10.5 12Z" fill="#F93939"/>
<path fill-rule="evenodd" clip-rule="evenodd" d="M8.5 9C8.57 9 9 8.328 9 7.5C9 6.672 8.57 6 8.5 6C8.43 6 8 6.672 8 7.5C8 8.328 8.43 9 8.5 9ZM12.5 9C12.57 9 13 8.328 13 7.5C13 6.672 12.57 6 12.5 6C12.43 6 12 6.672 12 7.5C12 8.328 12.43 9 12.5 9Z" fill="#151515"/>
<path d="M11 7.5C11 6.67157 10.7761 6 10.5 6C10.2239 6 10 6.67157 10 7.5C10 8.32843 10.2239 9 10.5 9C10.7761 9 11 8.32843 11 7.5Z" fill="white"/>
</svg>
