<svg width="21" height="15" viewBox="0 0 21 15" fill="none" xmlns="http://www.w3.org/2000/svg">
<rect width="21" height="15" rx="3" fill="white"/>
<path fill-rule="evenodd" clip-rule="evenodd" d="M14 7.5C14 9.433 12.433 11 10.5 11C8.567 11 7 9.433 7 7.5C7 6.38 9.35 5.91 11.328 6.087C11.538 6.031 11.764 6 12 6C13.105 6 14 6.672 14 7.5Z" fill="#232C80"/>
<path fill-rule="evenodd" clip-rule="evenodd" d="M10 7C10 7 10.895 6 12 6C13.105 6 14 6.672 14 7.5C14 5.567 12.433 4 10.5 4C9.103 4 7.897 4.818 7.336 6.002C7 7 7 7.292 7 7.5C7.5 8 8.056 8 8.5 8C8.944 8 9.343 7.807 9.618 7.5L10 7Z" fill="#F93939"/>
<path fill-rule="evenodd" clip-rule="evenodd" d="M15 5H17L15 3H14L15 5ZM6 5H4L6 3H7L6 5ZM15 10H17L15 12H14L15 10ZM6 10H4L6 12H7L6 10Z" fill="#151515"/>
</svg>
