<svg width="21" height="15" viewBox="0 0 21 15" fill="none" xmlns="http://www.w3.org/2000/svg">
<rect width="21" height="15" rx="3" fill="#F93939"/>
<path fill-rule="evenodd" clip-rule="evenodd" d="M0 0H21V7H0V0Z" fill="#1A47B8"/>
<path fill-rule="evenodd" clip-rule="evenodd" d="M4 5H8V6H4V5Z" fill="#D4AF2C"/>
<path fill-rule="evenodd" clip-rule="evenodd" d="M5.01 3.142C4.702 3.062 4.35 3 4 3C3 3 3 3.5 3 4C3 4.5 4 5 4 5H8C8 5 9 4.5 9 4C9 3.5 9 3 8 3C7.65 3 7.298 3.062 6.99 3.142C6.997 3.095 7 3.048 7 3C7 2.448 6.552 2 6 2C5.448 2 5 2.448 5 3C5 3.048 5.003 3.095 5.01 3.142Z" fill="#FFDA2C"/>
</svg>
