<svg width="21" height="15" viewBox="0 0 21 15" fill="none" xmlns="http://www.w3.org/2000/svg">
<g clip-path="url(#clip0_1716_3909)">
<rect width="21" height="15" rx="3" fill="#FFDA2C"/>
<rect width="21" height="15" fill="#FFDA2C"/>
<rect opacity="0.3" width="21" height="15" fill="#FF6C2D"/>
<path fill-rule="evenodd" clip-rule="evenodd" d="M9 2H19V13H9V2ZM12.535 10.616L12.593 10.572L12.617 10.616C12.65 10.676 12.741 10.674 12.801 10.616L12.848 10.569L12.888 10.614C12.938 10.674 13.032 10.674 13.092 10.614C13.136 10.572 13.142 10.571 13.17 10.604C13.186 10.622 13.235 10.644 13.278 10.651C13.356 10.665 13.358 10.664 13.403 10.573C13.443 10.497 13.448 10.467 13.439 10.393C13.433 10.343 13.426 10.265 13.424 10.218C13.422 10.132 13.422 10.131 13.516 10.088C13.566 10.064 13.626 10.032 13.649 10.016C13.686 9.99002 13.789 9.82902 13.789 9.79602C13.789 9.78802 13.749 9.77602 13.699 9.76802C13.504 9.73802 13.471 9.59802 13.599 9.33802C13.806 8.91602 13.931 8.50302 13.932 8.24002C13.932 8.12302 13.937 8.08302 13.949 8.11002C13.995 8.21302 13.912 8.65002 13.786 8.96502L13.736 9.09202L13.784 9.07702C13.81 9.06702 13.967 8.98002 14.131 8.88102C14.581 8.61102 14.736 8.55702 15.028 8.57302C15.272 8.58702 15.376 8.65002 15.548 8.89102C15.64 9.01802 15.728 9.10902 15.888 9.24302C16.232 9.52902 16.246 9.55302 16.262 9.88902C16.279 10.229 16.272 10.249 16.077 10.305C15.912 10.353 15.807 10.455 15.78 10.598C15.766 10.675 15.797 10.678 15.88 10.606L15.94 10.554L15.968 10.606C16.004 10.676 16.08 10.676 16.143 10.606L16.19 10.556L16.238 10.606C16.314 10.686 16.415 10.668 16.443 10.566C16.448 10.548 16.463 10.554 16.493 10.588C16.548 10.652 16.689 10.68 16.705 10.628C16.711 10.61 16.699 10.563 16.68 10.524C16.598 10.36 16.572 10.281 16.57 10.192C16.57 10.068 16.597 10.008 16.704 9.90602C16.834 9.78302 16.874 9.62602 16.776 9.62602C16.716 9.62602 16.654 9.55302 16.616 9.43602C16.536 9.20102 16.551 8.93602 16.67 8.49602C16.79 8.04602 16.804 7.96602 16.805 7.66602C16.805 7.42302 16.802 7.38102 16.76 7.24802C16.735 7.16802 16.683 7.04602 16.646 6.98002L16.579 6.86002L16.666 6.76202C16.933 6.46802 16.879 5.98602 16.556 5.80202C16.459 5.74402 16.434 5.73902 16.262 5.74202C16.158 5.74202 16.002 5.76002 15.912 5.78202C15.82 5.80202 15.666 5.82002 15.56 5.82002C15.392 5.82002 15.364 5.81602 15.3 5.77002C15.232 5.72202 15.22 5.70002 15.207 5.59002C15.205 5.56602 15.193 5.54402 15.181 5.54002C15.158 5.53002 15.051 5.65002 15.037 5.70602C15.029 5.73202 15.022 5.73002 15 5.69602C14.985 5.67102 14.964 5.61602 14.953 5.57402C14.926 5.46602 14.959 5.38402 15.053 5.32402L15.128 5.27802L15.086 5.24202C14.996 5.16802 14.843 5.21802 14.788 5.34202C14.772 5.37502 14.755 5.40402 14.75 5.40402C14.745 5.40402 14.715 5.37102 14.684 5.33102C14.568 5.18102 14.608 4.95702 14.764 4.88802C14.846 4.85202 14.919 4.88002 14.934 4.95302C14.957 5.06502 15.03 4.91802 15.017 4.78502C15.007 4.69702 15.007 4.69302 15.054 4.69302C15.118 4.69302 15.254 4.80502 15.297 4.89302C15.347 4.99302 15.342 5.15302 15.287 5.27102L15.247 5.36402L15.301 5.35002C15.381 5.32802 15.461 5.26002 15.501 5.18002C15.543 5.09402 15.548 4.92702 15.511 4.83602C15.474 4.74902 15.478 4.73602 15.531 4.76602C15.623 4.81602 15.671 4.87002 15.708 4.96602C15.742 5.05102 15.744 5.07202 15.726 5.16102C15.716 5.21602 15.691 5.28802 15.672 5.32102C15.642 5.37402 15.642 5.38302 15.665 5.38302C15.708 5.38302 15.8 5.32802 15.832 5.28302C15.848 5.25902 15.872 5.20302 15.885 5.15502L15.908 5.07102L15.935 5.13502C15.973 5.22502 16.045 5.30802 16.135 5.35902C16.232 5.41502 16.272 5.41902 16.222 5.36702C16.188 5.33202 16.125 5.08702 16.144 5.06402C16.154 5.05002 16.286 5.18402 16.434 5.36202C16.576 5.53202 16.664 5.58602 16.794 5.58602C16.961 5.58602 17.057 5.39402 16.984 5.21302C16.939 5.10702 16.842 5.09302 16.786 5.18302C16.76 5.22502 16.753 5.25802 16.76 5.30102C16.77 5.35502 16.766 5.36102 16.73 5.36102C16.68 5.36102 16.586 5.28102 16.418 5.09302C16.161 4.80802 15.848 4.56602 15.623 4.47802C15.478 4.42002 15.169 4.39802 15.023 4.43402C14.863 4.47202 14.673 4.59402 14.571 4.72402C14.389 4.95402 14.387 5.25902 14.564 5.53802L14.614 5.61802L14.58 5.68802C14.53 5.79202 14.534 5.93102 14.59 6.03302C14.615 6.07802 14.64 6.11502 14.646 6.11502C14.652 6.11502 14.658 6.08502 14.66 6.05002C14.665 5.96002 14.694 5.90002 14.744 5.87702C14.788 5.85502 14.817 5.86502 15.022 5.97302C15.237 6.08802 15.59 6.09502 15.966 5.99302C16.151 5.94502 16.368 5.94802 16.464 6.00102C16.639 6.09902 16.68 6.35302 16.551 6.54602C16.495 6.62802 16.441 6.66202 16.261 6.72802C16.123 6.77802 16.091 6.78202 15.778 6.77802C15.511 6.77402 15.415 6.78102 15.306 6.81102C15.188 6.84402 15.116 6.84702 14.768 6.83602L14.366 6.82202L14.411 6.87202C14.435 6.89802 14.471 6.93202 14.488 6.94502C14.518 6.96702 14.518 6.97002 14.472 6.99202C14.445 7.00602 14.387 7.01602 14.342 7.01602H14.259L14.249 7.11002C14.243 7.16202 14.243 7.22002 14.249 7.24302C14.259 7.27602 14.256 7.28002 14.229 7.26802C14.213 7.25802 14.165 7.24302 14.123 7.23102C14.081 7.21902 14.025 7.19602 13.998 7.17802C13.952 7.14802 13.948 7.14802 13.93 7.18802C13.916 7.22402 13.776 7.36202 13.755 7.36202C13.752 7.36202 13.748 7.33502 13.745 7.30202C13.745 7.27002 13.725 7.18502 13.701 7.11402C13.679 7.04402 13.655 6.96602 13.649 6.94202C13.639 6.90602 13.636 6.90402 13.624 6.93202C13.617 6.94902 13.606 6.99702 13.6 7.03902C13.595 7.07902 13.574 7.14902 13.554 7.18902L13.518 7.26302L13.495 7.19902C13.471 7.13102 13.43 7.05902 13.415 7.05902C13.41 7.05902 13.401 7.08202 13.395 7.10902C13.385 7.16402 13.288 7.31902 13.265 7.31902C13.255 7.31902 13.248 7.27502 13.248 7.22202C13.248 7.16802 13.241 7.12502 13.231 7.12502C13.223 7.12502 13.215 7.13802 13.215 7.15502C13.215 7.19502 13.132 7.31802 13.105 7.31802C13.092 7.31802 13.073 7.33202 13.061 7.35002C13.031 7.39602 13.006 7.39002 13.018 7.34002C13.025 7.31502 13.021 7.26002 13.01 7.21502L12.983 7.11002C12.979 7.09402 12.95 7.09802 12.887 7.12502C12.785 7.16802 12.751 7.16102 12.803 7.10502C12.823 7.08502 12.853 7.01702 12.868 6.95302C12.884 6.88902 12.908 6.83302 12.922 6.82602C12.94 6.82002 12.939 6.82902 12.917 6.86802C12.902 6.89602 12.889 6.93402 12.889 6.95202C12.889 6.97002 12.876 7.01202 12.862 7.04702C12.848 7.08302 12.839 7.11402 12.842 7.11702C12.846 7.12202 12.884 7.10302 12.928 7.07502L13.008 7.02502V7.07002C13.008 7.09502 13.018 7.16002 13.028 7.21602L13.05 7.31602L13.104 7.28302C13.159 7.24902 13.212 7.12802 13.212 7.03502C13.212 6.98702 13.232 6.99502 13.24 7.04502L13.268 7.16502L13.292 7.25902L13.329 7.19902C13.349 7.16602 13.376 7.10202 13.387 7.05602C13.407 6.97802 13.435 6.94402 13.435 7.00102C13.435 7.04302 13.521 7.19102 13.537 7.17902C13.545 7.17302 13.561 7.11702 13.572 7.05502C13.596 6.92502 13.634 6.83702 13.659 6.85502C13.669 6.86302 13.671 6.87502 13.666 6.88502C13.662 6.89502 13.681 6.98002 13.71 7.07302C13.74 7.16602 13.77 7.26002 13.775 7.28102C13.785 7.31602 13.795 7.31102 13.857 7.23802C13.897 7.19302 13.931 7.14302 13.935 7.12602C13.941 7.10202 13.95 7.10302 13.985 7.13202C14.035 7.17402 14.205 7.24202 14.218 7.22402C14.223 7.21802 14.228 7.15902 14.228 7.09402L14.231 6.97402L14.281 6.98702C14.308 6.99502 14.364 6.99402 14.406 6.98702L14.482 6.97202L14.415 6.91002C14.378 6.87602 14.34 6.83202 14.331 6.81202C14.321 6.79202 14.287 6.77202 14.251 6.76902C14.148 6.75702 13.967 6.62202 13.967 6.55902C13.967 6.54602 13.992 6.56602 14.023 6.60402C14.091 6.68602 14.185 6.73802 14.267 6.73802H14.329L14.291 6.67202C14.269 6.63202 14.249 6.56002 14.244 6.49902C14.237 6.40402 14.229 6.38902 14.154 6.31902C14.109 6.27702 14.052 6.21402 14.029 6.17902L13.987 6.11602L13.965 6.19102C13.953 6.23302 13.938 6.26602 13.933 6.26602C13.927 6.26602 13.903 6.24202 13.883 6.21302C13.86 6.18302 13.837 6.15902 13.833 6.15902C13.826 6.15902 13.807 6.19902 13.788 6.24902L13.755 6.33602L13.729 6.28602C13.714 6.25602 13.681 6.20802 13.654 6.17602C13.627 6.14202 13.612 6.11602 13.622 6.11602C13.632 6.11602 13.666 6.15002 13.697 6.19102L13.754 6.26702L13.777 6.21102C13.79 6.17902 13.795 6.12802 13.789 6.08702C13.779 6.02702 13.781 6.02502 13.799 6.06202C13.809 6.08602 13.842 6.13202 13.872 6.16202L13.926 6.22202L13.963 6.13202C14 6.04202 14.001 6.04202 14.017 6.09402C14.04 6.16602 14.202 6.34402 14.34 6.44602C14.36 6.46202 14.352 6.40602 14.313 6.28102C14.303 6.24802 14.293 6.18802 14.293 6.14802C14.293 6.08802 14.281 6.06102 14.223 6.00302C14.141 5.91902 14.115 5.86002 14.099 5.72502C14.093 5.67002 14.079 5.60902 14.067 5.59002C14.05 5.56002 14.047 5.57702 14.052 5.67802C14.054 5.74802 14.047 5.83202 14.036 5.86802L14.016 5.93202L14 5.87802C13.99 5.84802 13.953 5.79802 13.915 5.76302C13.875 5.73002 13.85 5.69702 13.855 5.69002C13.86 5.68402 13.9 5.71402 13.942 5.75802C14.007 5.82502 14.022 5.83202 14.03 5.80302C14.04 5.76802 14.03 5.61702 14.01 5.51302C14 5.45902 14 5.45902 14.05 5.52302C14.086 5.57302 14.105 5.62902 14.12 5.72902C14.14 5.85602 14.15 5.87902 14.238 5.97902C14.291 6.04202 14.338 6.08902 14.34 6.08502C14.344 6.08102 14.35 5.92102 14.355 5.73002C14.365 5.36502 14.355 5.27802 14.288 5.16502L14.254 5.10702L14.307 5.03002C14.377 4.93002 14.409 4.85002 14.423 4.74002L14.435 4.65002L14.375 4.72702C14.325 4.78902 14.302 4.80302 14.245 4.80302C14.188 4.80302 14.165 4.79102 14.128 4.73602C14.082 4.67102 14 4.60902 13.922 4.57802C13.892 4.56802 13.882 4.57202 13.882 4.59802C13.882 4.61802 13.867 4.67202 13.847 4.72002L13.812 4.80802L13.738 4.71002C13.692 4.65002 13.638 4.60402 13.598 4.59002C13.495 4.55402 13.49 4.55702 13.49 4.66002C13.49 4.81302 13.44 4.84202 13.35 4.74002C13.283 4.66002 13.226 4.64402 13.097 4.66302L12.997 4.67802L13.017 4.73802C13.031 4.78802 13.027 4.80802 12.995 4.86502C12.943 4.95702 12.875 4.99702 12.771 4.99702C12.723 4.99702 12.663 5.01002 12.637 5.02702C12.612 5.04202 12.549 5.06102 12.497 5.06702C12.445 5.07402 12.39 5.08702 12.374 5.09402C12.35 5.10602 12.347 5.09602 12.354 5.02202C12.367 4.90802 12.308 4.82502 12.214 4.82502C12.094 4.82502 12.039 4.96802 12.086 5.15702C12.0949 5.18897 12.1038 5.23823 12.1098 5.27198L12.112 5.28402C12.119 5.31902 12.172 5.41202 12.24 5.50102C12.304 5.58702 12.364 5.67602 12.374 5.69902C12.384 5.72202 12.417 5.75902 12.447 5.78102L12.502 5.82102L12.495 5.74402C12.487 5.65802 12.501 5.64402 12.535 5.70402C12.548 5.72702 12.579 5.76202 12.605 5.78402C12.645 5.81602 12.652 5.81702 12.652 5.78802C12.652 5.76802 12.66 5.72802 12.67 5.69402L12.69 5.63402L12.72 5.71602C12.738 5.76102 12.796 5.86402 12.848 5.94602C12.95 6.10102 13.012 6.27602 12.98 6.31602C12.967 6.33302 12.932 6.33102 12.86 6.31202C12.803 6.29802 12.733 6.29002 12.704 6.29502C12.644 6.30502 12.641 6.29502 12.677 6.23502C12.715 6.17202 12.709 6.16202 12.634 6.16202C12.547 6.16202 12.332 6.10602 12.249 6.06202C12.169 6.02202 12.149 6.03202 12.126 6.13202L12.083 6.31702L12.06 6.41702L12.147 6.40702C12.195 6.40002 12.257 6.38702 12.284 6.37502C12.312 6.36502 12.337 6.35902 12.34 6.36202C12.343 6.36602 12.33 6.40602 12.313 6.45002L12.279 6.53002L12.334 6.51602C12.364 6.50802 12.409 6.48802 12.434 6.47202C12.478 6.44402 12.481 6.44602 12.516 6.51902C12.558 6.60902 12.592 6.60602 12.599 6.50902C12.607 6.41102 12.632 6.42602 12.679 6.55702C12.722 6.68302 12.769 6.72702 12.777 6.65302C12.78 6.62902 12.803 6.58802 12.83 6.56302C12.883 6.51302 12.923 6.52902 12.945 6.60702C12.97 6.68702 12.917 6.77102 12.765 6.89502C12.455 7.14302 12.277 7.48302 12.225 7.91502C12.179 8.30502 12.323 8.70902 12.612 8.99902C12.75 9.13902 12.97 9.28402 12.956 9.22902C12.898 8.99102 12.9 8.53902 12.96 8.46202C12.97 8.45002 12.966 8.49702 12.953 8.56602C12.905 8.82402 12.926 9.02902 13.05 9.51002C13.16 9.94602 13.146 10.132 12.988 10.254C12.938 10.294 12.904 10.3 12.768 10.298C12.62 10.296 12.604 10.3 12.556 10.35C12.51 10.4 12.451 10.56 12.451 10.634C12.451 10.674 12.484 10.669 12.551 10.618L12.535 10.616ZM11.415 9.81602C11.431 9.78902 11.443 9.74602 11.443 9.72102C11.443 9.68302 11.456 9.67302 11.52 9.66102L11.597 9.64702L11.547 9.59202C11.485 9.52802 11.479 9.47802 11.533 9.47802C11.586 9.47802 11.677 9.40402 11.691 9.34802C11.698 9.32402 11.694 9.29002 11.683 9.27202C11.653 9.22702 11.596 9.23402 11.586 9.28402C11.574 9.33802 11.556 9.33902 11.513 9.28402C11.449 9.20402 11.447 9.03602 11.51 8.93802C11.538 8.89202 11.538 8.88802 11.5 8.84202C11.46 8.79002 11.43 8.68902 11.45 8.66502C11.456 8.65802 11.488 8.66502 11.52 8.67902C11.568 8.69902 11.587 8.70102 11.606 8.67902C11.666 8.61902 11.601 8.53902 11.506 8.55702C11.469 8.56402 11.454 8.55702 11.448 8.53102C11.444 8.51102 11.411 8.48402 11.373 8.47102C11.307 8.44902 11.306 8.45102 11.306 8.51102C11.306 8.57802 11.276 8.59102 11.223 8.54802C11.178 8.51302 11.135 8.54002 11.135 8.60302C11.135 8.66102 11.18 8.69002 11.259 8.68302C11.319 8.67802 11.322 8.73902 11.264 8.82502L11.222 8.88802L11.255 8.95102C11.305 9.04402 11.3 9.19902 11.245 9.27602L11.205 9.33602L11.177 9.28802C11.139 9.22102 11.087 9.22602 11.072 9.29802C11.062 9.34502 11.072 9.36602 11.115 9.41602C11.145 9.44902 11.188 9.47602 11.211 9.47602C11.269 9.47602 11.267 9.53602 11.207 9.59802L11.16 9.64602L11.234 9.66102C11.274 9.66902 11.306 9.68502 11.306 9.69602C11.306 9.73602 11.356 9.86402 11.373 9.86402C11.383 9.86402 11.403 9.84402 11.416 9.81702L11.415 9.81602ZM11.668 7.64602C11.834 7.54902 11.848 7.30202 11.692 7.23602C11.627 7.21002 11.586 7.22602 11.562 7.28302C11.542 7.32802 11.555 7.40902 11.582 7.40902C11.59 7.40902 11.597 7.42302 11.597 7.44102C11.597 7.52702 11.344 7.56602 11.241 7.49602C11.205 7.47102 11.191 7.40802 11.221 7.40802C11.241 7.40802 11.258 7.34202 11.247 7.29602C11.231 7.23402 11.183 7.21202 11.115 7.23602C10.96 7.29002 10.965 7.53202 11.122 7.63602C11.252 7.71902 11.536 7.72402 11.67 7.64602H11.668ZM11.565 7.45602C11.575 7.44602 11.571 7.42602 11.555 7.40902C11.52 7.37202 11.522 7.31702 11.56 7.25402C11.59 7.20702 11.593 7.13702 11.603 6.42802C11.62 5.20402 11.688 4.28502 11.778 4.06502C11.814 3.97702 11.808 3.97502 11.716 4.06002C11.596 4.16802 11.506 4.31002 11.426 4.51002C11.274 4.89002 11.221 5.40202 11.221 6.49402C11.221 7.11402 11.225 7.19402 11.251 7.25402C11.277 7.30802 11.278 7.32902 11.261 7.38802C11.249 7.42602 11.244 7.46302 11.249 7.46802C11.283 7.51202 11.529 7.50102 11.566 7.45502L11.565 7.45602ZM11 3H10V4H11V3ZM18 3H17V4H18V3ZM11 11H10V12H11V11ZM18 11H17V12H18V11Z" fill="#AF010D"/>
<path fill-rule="evenodd" clip-rule="evenodd" d="M5 2H8V13H5V2Z" fill="#FF6C2D"/>
<path opacity="0.2" fill-rule="evenodd" clip-rule="evenodd" d="M5 2H8V13H5V2Z" fill="#151515"/>
<path fill-rule="evenodd" clip-rule="evenodd" d="M2 2H5V13H2V2Z" fill="#0A6A30"/>
</g>
<defs>
<clipPath id="clip0_1716_3909">
<rect width="21" height="15" rx="3" fill="white"/>
</clipPath>
</defs>
</svg>
