<svg width="21" height="15" viewBox="0 0 21 15" fill="none" xmlns="http://www.w3.org/2000/svg">
<g clip-path="url(#clip0_1716_4119)">
<rect width="21" height="15" rx="3" fill="#151515"/>
<path fill-rule="evenodd" clip-rule="evenodd" d="M0 11H21V15H0V11Z" fill="#249F58"/>
<path fill-rule="evenodd" clip-rule="evenodd" d="M12 7H13V8H12V7Z" fill="white"/>
<path fill-rule="evenodd" clip-rule="evenodd" d="M12.5 9C12.044 9.607 11.318 10 10.5 10C9.12 10 8 8.88 8 7.5C8 6.12 9.12 5 10.5 5C11.318 5 12.044 5.393 12.5 6H11C10.172 6 9.5 6.672 9.5 7.5C9.5 8.328 10.172 9 11 9H12.5Z" fill="white"/>
<path fill-rule="evenodd" clip-rule="evenodd" d="M0 0H21V4H0V0Z" fill="#F93939"/>
</g>
<defs>
<clipPath id="clip0_1716_4119">
<rect width="21" height="15" rx="3" fill="white"/>
</clipPath>
</defs>
</svg>
