<svg width="21" height="15" viewBox="0 0 21 15" fill="none" xmlns="http://www.w3.org/2000/svg">
<g clip-path="url(#clip0_1716_3683)">
<rect width="21" height="15" rx="3" fill="#AF010D"/>
<path fill-rule="evenodd" clip-rule="evenodd" d="M0 0L10 7H11L4 0H0ZM0 15L10 8H11L4 15H0Z" fill="#FFDA2C"/>
<path fill-rule="evenodd" clip-rule="evenodd" d="M11 7H10L17 0H21L11 7ZM11 8H10L17 15H21L11 8ZM8 7L0 6V9L8 8V7ZM13 7L21 6V9L13 8V7ZM10 5L9 0H12L11 5H10ZM10 10L9 15H12L11 10" fill="#FFDA2C"/>
<path d="M10.5 10C11.8807 10 13 8.88071 13 7.5C13 6.11929 11.8807 5 10.5 5C9.11929 5 8 6.11929 8 7.5C8 8.88071 9.11929 10 10.5 10Z" fill="#AF010D"/>
<path d="M10.5 9C11.3284 9 12 8.32843 12 7.5C12 6.67157 11.3284 6 10.5 6C9.67157 6 9 6.67157 9 7.5C9 8.32843 9.67157 9 10.5 9Z" fill="#FFDA2C"/>
</g>
<defs>
<clipPath id="clip0_1716_3683">
<rect width="21" height="15" rx="3" fill="white"/>
</clipPath>
</defs>
</svg>
