<svg width="21" height="15" viewBox="0 0 21 15" fill="none" xmlns="http://www.w3.org/2000/svg">
<g clip-path="url(#clip0_1716_4155)">
<rect width="21" height="15" rx="3" fill="#1A47B8"/>
<path d="M19 0H2C0.89543 0 0 0.89543 0 2V13C0 14.1046 0.89543 15 2 15H19C20.1046 15 21 14.1046 21 13V2C21 0.89543 20.1046 0 19 0Z" fill="#1A47B8"/>
<path fill-rule="evenodd" clip-rule="evenodd" d="M15 4V5H16V4H15ZM17 6V7H18V6H17ZM13 7V8H14V7H13ZM15 11V12H16V11H15Z" fill="#F93939"/>
<path d="M9 1H2C1.44772 1 1 1.44772 1 2V7C1 7.55228 1.44772 8 2 8H9C9.55229 8 10 7.55228 10 7V2C10 1.44772 9.55229 1 9 1Z" fill="white"/>
<path fill-rule="evenodd" clip-rule="evenodd" d="M5 5H2V4H5V2H6V4H9V5H6V7H5V5ZM7.5 6V7H9V6H7.5ZM7.5 2V3H9V2H7.5ZM2 6V7H3.5V6H2ZM2 2V3H3.5V2H2Z" fill="#F93939"/>
</g>
<defs>
<clipPath id="clip0_1716_4155">
<rect width="21" height="15" rx="3" fill="white"/>
</clipPath>
</defs>
</svg>
