<svg width="21" height="15" viewBox="0 0 21 15" fill="none" xmlns="http://www.w3.org/2000/svg">
<g clip-path="url(#clip0_1716_4037)">
<rect width="21" height="15" rx="3" fill="#F93939"/>
<path d="M19 0H2C0.89543 0 0 0.89543 0 2V13C0 14.1046 0.89543 15 2 15H19C20.1046 15 21 14.1046 21 13V2C21 0.89543 20.1046 0 19 0Z" fill="#F93939"/>
<path fill-rule="evenodd" clip-rule="evenodd" d="M0 0H21V8H0V0Z" fill="#1A47B8"/>
<path fill-rule="evenodd" clip-rule="evenodd" d="M0 0V15.033L10 7.5L0 0Z" fill="white"/>
<path d="M2.5 11C2.77614 11 3 10.7761 3 10.5C3 10.2239 2.77614 10 2.5 10C2.22386 10 2 10.2239 2 10.5C2 10.7761 2.22386 11 2.5 11Z" fill="#FFDA2C"/>
<path d="M7.5 8C7.77614 8 8 7.77614 8 7.5C8 7.22386 7.77614 7 7.5 7C7.22386 7 7 7.22386 7 7.5C7 7.77614 7.22386 8 7.5 8Z" fill="#FFDA2C"/>
<path fill-rule="evenodd" clip-rule="evenodd" d="M4.485 7.985C5.355 7.93 6 7.735 6 7.5C6 7.266 5.355 7.07 4.485 7.015C4.43 6.145 4.235 5.5 4 5.5C3.766 5.5 3.57 6.145 3.515 7.015C2.645 7.07 2 7.265 2 7.5C2 7.734 2.645 7.93 3.515 7.985C3.569 8.855 3.765 9.5 4 9.5C4.234 9.5 4.43 8.855 4.485 7.985V7.985Z" fill="#FFDA2C"/>
<path d="M2.5 5C2.77614 5 3 4.77614 3 4.5C3 4.22386 2.77614 4 2.5 4C2.22386 4 2 4.22386 2 4.5C2 4.77614 2.22386 5 2.5 5Z" fill="#FFDA2C"/>
</g>
<defs>
<clipPath id="clip0_1716_4037">
<rect width="21" height="15" rx="3" fill="white"/>
</clipPath>
</defs>
</svg>
