<svg width="21" height="15" viewBox="0 0 21 15" fill="none" xmlns="http://www.w3.org/2000/svg">
<g clip-path="url(#clip0_1716_4050)">
<rect width="21" height="15" rx="3" fill="white"/>
<path fill-rule="evenodd" clip-rule="evenodd" d="M0 10H21V15H0V10Z" fill="#1A47B8"/>
<path fill-rule="evenodd" clip-rule="evenodd" d="M11.97 7.2C11.99 7.297 12 7.397 12 7.5C12 8.328 11.328 9 10.5 9C9.672 9 9 8.328 9 7.5C9 7.397 9.01 7.297 9.03 7.2C9.17 7.656 9.774 8 10.5 8C11.226 8 11.83 7.656 11.97 7.2Z" fill="#249F58"/>
<path d="M10.5 7C10.7761 7 11 6.77614 11 6.5C11 6.22386 10.7761 6 10.5 6C10.2239 6 10 6.22386 10 6.5C10 6.77614 10.2239 7 10.5 7Z" fill="#FFDA2C"/>
<path fill-rule="evenodd" clip-rule="evenodd" d="M0 0H21V5H0V0Z" fill="#F93939"/>
</g>
<defs>
<clipPath id="clip0_1716_4050">
<rect width="21" height="15" rx="3" fill="white"/>
</clipPath>
</defs>
</svg>
