<svg width="21" height="15" viewBox="0 0 21 15" fill="none" xmlns="http://www.w3.org/2000/svg">
<rect width="21" height="15" rx="3" fill="#F93939"/>
<path d="M10.5 11C12.433 11 14 9.433 14 7.5C14 5.567 12.433 4 10.5 4C8.567 4 7 5.567 7 7.5C7 9.433 8.567 11 10.5 11Z" fill="white"/>
<path fill-rule="evenodd" clip-rule="evenodd" d="M12 7H13V8H12V7Z" fill="#F93939"/>
<path fill-rule="evenodd" clip-rule="evenodd" d="M12.5 9C12.044 9.607 11.318 10 10.5 10C9.12 10 8 8.88 8 7.5C8 6.12 9.12 5 10.5 5C11.318 5 12.044 5.393 12.5 6H11C10.172 6 9.5 6.672 9.5 7.5C9.5 8.328 10.172 9 11 9H12.5Z" fill="#F93939"/>
</svg>
