<svg width="21" height="15" viewBox="0 0 21 15" fill="none" xmlns="http://www.w3.org/2000/svg">
<rect width="21" height="15" rx="3" fill="#F93939"/>
<path fill-rule="evenodd" clip-rule="evenodd" d="M14.002 8.65201L12.84 9.262L13.062 7.969L12.122 7.052L13.422 6.862L14.002 5.686L14.582 6.863L15.882 7.053L14.942 7.968L15.164 9.261" fill="white"/>
<path fill-rule="evenodd" clip-rule="evenodd" d="M9.5 11C11.433 11 13 9.433 13 7.5C13 5.567 11.433 4 9.5 4C7.567 4 6 5.567 6 7.5C6 9.433 7.567 11 9.5 11ZM10.5 10C11.88 10 13 8.88 13 7.5C13 6.12 11.88 5 10.5 5C9.12 5 8 6.12 8 7.5C8 8.88 9.12 10 10.5 10Z" fill="white"/>
</svg>
