<svg width="21" height="15" viewBox="0 0 21 15" fill="none" xmlns="http://www.w3.org/2000/svg">
<g clip-path="url(#clip0_1716_3817)">
<rect width="21" height="15" rx="3" fill="white"/>
<path d="M19 0H2C0.89543 0 0 0.89543 0 2V13C0 14.1046 0.89543 15 2 15H19C20.1046 15 21 14.1046 21 13V2C21 0.89543 20.1046 0 19 0Z" fill="white"/>
<path fill-rule="evenodd" clip-rule="evenodd" d="M0 10H21V15H0V10Z" fill="#1A47B8"/>
<path fill-rule="evenodd" clip-rule="evenodd" d="M0 0H21V5H0V0Z" fill="#F93939"/>
<path fill-rule="evenodd" clip-rule="evenodd" d="M8.013 10L2 15.033H0V0H2L8 5H21V10H8.013Z" fill="white"/>
<path fill-rule="evenodd" clip-rule="evenodd" d="M7.7 9L0.5 15L0 15.033V0H0.5L7.7 6H21V9H7.7Z" fill="#249F58"/>
<path fill-rule="evenodd" clip-rule="evenodd" d="M0 3L6 7.5L0 12V3Z" fill="#FFDA2C"/>
<path fill-rule="evenodd" clip-rule="evenodd" d="M0 4L4.75 7.5L0 11V4Z" fill="#151515"/>
</g>
<defs>
<clipPath id="clip0_1716_3817">
<rect width="21" height="15" rx="3" fill="white"/>
</clipPath>
</defs>
</svg>
