<svg width="21" height="15" viewBox="0 0 21 15" fill="none" xmlns="http://www.w3.org/2000/svg">
<g clip-path="url(#clip0_1716_3884)">
<path d="M19 0H2C0.89543 0 0 0.89543 0 2V13C0 14.1046 0.89543 15 2 15H19C20.1046 15 21 14.1046 21 13V2C21 0.89543 20.1046 0 19 0Z" fill="#F93939"/>
<path fill-rule="evenodd" clip-rule="evenodd" d="M10.5 10C11.88 10 13 8.88 13 7.5C13 6.12 11.88 5 10.5 5C9.12 5 8 6.12 8 7.5C8 8.88 9.12 10 10.5 10ZM10.5 9C11.328 9 12 8.105 12 7C12 5.895 11.328 5 10.5 5C9.672 5 9 5.895 9 7C9 8.105 9.672 9 10.5 9ZM10.5 8C10.776 8 11 7.552 11 7C11 6.448 10.776 6 10.5 6C10.224 6 10 6.448 10 7C10 7.552 10.224 8 10.5 8Z" fill="white"/>
<path fill-rule="evenodd" clip-rule="evenodd" d="M14 0H21V15H14V0Z" fill="#249F58"/>
<path fill-rule="evenodd" clip-rule="evenodd" d="M0 0H7V15H0V0Z" fill="#151515"/>
</g>
<defs>
<clipPath id="clip0_1716_3884">
<rect width="21" height="15" rx="3" fill="white"/>
</clipPath>
</defs>
</svg>
