<svg width="21" height="15" viewBox="0 0 21 15" fill="none" xmlns="http://www.w3.org/2000/svg">
<g clip-path="url(#clip0_1716_4578)">
<rect width="21" height="15" rx="3" fill="#F93939"/>
<path d="M19 0H2C0.89543 0 0 0.89543 0 2V13C0 14.1046 0.89543 15 2 15H19C20.1046 15 21 14.1046 21 13V2C21 0.89543 20.1046 0 19 0Z" fill="#F93939"/>
<path fill-rule="evenodd" clip-rule="evenodd" d="M10.5 4L9 3L8 4H9L8 5L6 4V9L9 8L8 10H7L8 11L9 10L10.5 12V4ZM12 3L13 4H12L13 5L15 4V9L12 8L13 10H14L13 11L12 10L10.5 12V4L12 3Z" fill="#151515"/>
</g>
<defs>
<clipPath id="clip0_1716_4578">
<rect width="21" height="15" rx="3" fill="white"/>
</clipPath>
</defs>
</svg>
