<svg width="21" height="15" viewBox="0 0 21 15" fill="none" xmlns="http://www.w3.org/2000/svg">
<g clip-path="url(#clip0_1716_4562)">
<rect width="21" height="15" rx="3" fill="#F93939"/>
<path d="M19 0H2C0.89543 0 0 0.89543 0 2V13C0 14.1046 0.89543 15 2 15H19C20.1046 15 21 14.1046 21 13V2C21 0.89543 20.1046 0 19 0Z" fill="#F93939"/>
<path fill-rule="evenodd" clip-rule="evenodd" d="M0 8H21V15H0V8Z" fill="#151515"/>
<path fill-rule="evenodd" clip-rule="evenodd" d="M12.451 9.58598C12.885 9.00398 13.141 8.28198 13.141 7.49998C13.141 6.03298 12.238 4.77698 10.958 4.25598L10.353 5.10298C11.387 5.40998 12.141 6.36698 12.141 7.49998C12.141 8.09398 11.934 8.63998 11.588 9.06798L8.141 6.99998L10.837 9.69598C10.482 9.88998 10.074 9.99998 9.641 9.99998C8.801 9.99998 8.058 9.58598 7.605 8.94998L7 9.79698C7.641 10.534 8.586 11 9.641 11C10.351 11 11.013 10.788 11.565 10.424L12.141 11L13.141 9.99998L12.451 9.58598ZM8.141 4.99998H9.141V5.99998H8.141V4.99998Z" fill="#FFDA2C"/>
</g>
<defs>
<clipPath id="clip0_1716_4562">
<rect width="21" height="15" rx="3" fill="white"/>
</clipPath>
</defs>
</svg>
