<svg width="21" height="15" viewBox="0 0 21 15" fill="none" xmlns="http://www.w3.org/2000/svg">
<g clip-path="url(#clip0_1716_4457)">
<rect width="21" height="15" rx="3" fill="#FFDA2C"/>
<path d="M19 0H2C0.89543 0 0 0.89543 0 2V13C0 14.1046 0.89543 15 2 15H19C20.1046 15 21 14.1046 21 13V2C21 0.89543 20.1046 0 19 0Z" fill="#FFDA2C"/>
<path fill-rule="evenodd" clip-rule="evenodd" d="M0 0L21 10V14L0 4V0Z" fill="white"/>
<path fill-rule="evenodd" clip-rule="evenodd" d="M0 3L21 13V15L0 5V3Z" fill="#151515"/>
<path fill-rule="evenodd" clip-rule="evenodd" d="M8 7L9 8V12L7 11V9L5 7L7 5L8 6V7ZM9 9H12V10H9V9ZM13 7L12 8V12L14 11V9L16 7L14 5L13 6V7ZM9 6H12L10.5 3L9 6Z" fill="#F93939"/>
</g>
<defs>
<clipPath id="clip0_1716_4457">
<rect width="21" height="15" rx="3" fill="white"/>
</clipPath>
</defs>
</svg>
