<svg width="21" height="15" viewBox="0 0 21 15" fill="none" xmlns="http://www.w3.org/2000/svg">
<g clip-path="url(#clip0_1716_4488)">
<rect width="21" height="15" rx="3" fill="#FF6C2D"/>
<path d="M19 0H2C0.89543 0 0 0.89543 0 2V13C0 14.1046 0.89543 15 2 15H19C20.1046 15 21 14.1046 21 13V2C21 0.89543 20.1046 0 19 0Z" fill="#FF6C2D"/>
<path fill-rule="evenodd" clip-rule="evenodd" d="M0 15L21 0H0V15Z" fill="#FFDA2C"/>
<path fill-rule="evenodd" clip-rule="evenodd" d="M3 10L3.5 11.5L5.5 12L6 11L10 11.5L9 9H11L14 10L15 9L12 8L13 7H16L16.5 6H14V5H16L17 4L13 3L11 5L10 6L11 7L8 6.5L6 10L5 11L3 10Z" fill="white"/>
</g>
<defs>
<clipPath id="clip0_1716_4488">
<rect width="21" height="15" rx="3" fill="white"/>
</clipPath>
</defs>
</svg>
