<svg width="21" height="15" viewBox="0 0 21 15" fill="none" xmlns="http://www.w3.org/2000/svg">
<g clip-path="url(#clip0_1716_4227)">
<path d="M19 0H2C0.89543 0 0 0.89543 0 2V13C0 14.1046 0.89543 15 2 15H19C20.1046 15 21 14.1046 21 13V2C21 0.89543 20.1046 0 19 0Z" fill="#1A47B8"/>
<path fill-rule="evenodd" clip-rule="evenodd" d="M0 11H21V15H0V11Z" fill="#F93939"/>
<path fill-rule="evenodd" clip-rule="evenodd" d="M0 0H21V8H0V0Z" fill="#FFDA2C"/>
<path d="M10.5 10C11.3284 10 12 9.10457 12 8C12 6.89543 11.3284 6 10.5 6C9.67157 6 9 6.89543 9 8C9 9.10457 9.67157 10 10.5 10Z" fill="#3ECBF8"/>
<path fill-rule="evenodd" clip-rule="evenodd" d="M8 7V9L10 10H11L13 9V7L14 9L13 10L11 11H10L8 10L7 9L8 7Z" fill="#FFDA2C"/>
<path fill-rule="evenodd" clip-rule="evenodd" d="M6 4H9L10.5 5L12 4H15L12 5L11 6H10L9 5L6 4Z" fill="#151515"/>
</g>
<defs>
<clipPath id="clip0_1716_4227">
<rect width="21" height="15" rx="3" fill="white"/>
</clipPath>
</defs>
</svg>
