<svg width="21" height="15" viewBox="0 0 21 15" fill="none" xmlns="http://www.w3.org/2000/svg">
<g clip-path="url(#clip0_1716_3989)">
<path d="M19 0H2C0.89543 0 0 0.89543 0 2V13C0 14.1046 0.89543 15 2 15H19C20.1046 15 21 14.1046 21 13V2C21 0.89543 20.1046 0 19 0Z" fill="white"/>
<path fill-rule="evenodd" clip-rule="evenodd" d="M0 10H21V15H0V10Z" fill="#151515"/>
<path fill-rule="evenodd" clip-rule="evenodd" d="M10.5 7L9 6L8 7L9 9L10 8H11L12 9L13 7L12 6L10.5 7Z" fill="#D4AF2C"/>
<path fill-rule="evenodd" clip-rule="evenodd" d="M0 0H21V5H0V0Z" fill="#F93939"/>
</g>
<defs>
<clipPath id="clip0_1716_3989">
<rect width="21" height="15" rx="3" fill="white"/>
</clipPath>
</defs>
</svg>
