<svg width="21" height="15" viewBox="0 0 21 15" fill="none" xmlns="http://www.w3.org/2000/svg">
<g clip-path="url(#clip0_1716_3982)">
<rect width="21" height="15" rx="3" fill="#3A99FF"/>
<path d="M19 0H2C0.89543 0 0 0.89543 0 2V13C0 14.1046 0.89543 15 2 15H19C20.1046 15 21 14.1046 21 13V2C21 0.89543 20.1046 0 19 0Z" fill="#3A99FF"/>
<path fill-rule="evenodd" clip-rule="evenodd" d="M0 0H21V8H0V0Z" fill="#249F58"/>
<path fill-rule="evenodd" clip-rule="evenodd" d="M0 0L21 7.5L0 15V0Z" fill="#F93939"/>
<path fill-rule="evenodd" clip-rule="evenodd" d="M9 7.5C9 6.12 7.88 5 6.5 4.5C5.12 5 4 6.12 4 7.5C4 8.71 4.86 9.718 6 9.95V6.498C6 6.223 6.232 6 6.5 6C6.776 6 7 6.215 7 6.498V9.95C8.14 9.718 9 8.71 9 7.5V7.5ZM10 7.5C10 5.567 8.433 4 6.5 4.5C4.567 4 3 5.567 3 7.5C3 9.433 4.567 11 6.5 11C8.433 11 10 9.433 10 7.5Z" fill="#FFDA2C"/>
</g>
<defs>
<clipPath id="clip0_1716_3982">
<rect width="21" height="15" rx="3" fill="white"/>
</clipPath>
</defs>
</svg>
