<svg width="21" height="15" viewBox="0 0 21 15" fill="none" xmlns="http://www.w3.org/2000/svg">
<rect width="21" height="15" rx="3" fill="#F93939"/>
<path fill-rule="evenodd" clip-rule="evenodd" d="M3 3H18V12H3V3Z" fill="#FFDA2C"/>
<path fill-rule="evenodd" clip-rule="evenodd" d="M3 3L10.5 7.5L3 12V3Z" fill="#249F58"/>
<path fill-rule="evenodd" clip-rule="evenodd" d="M4 7H5V8H4V7Z" fill="#FFDA2C"/>
<path fill-rule="evenodd" clip-rule="evenodd" d="M18 3L10.5 7.5L18 12V3Z" fill="#249F58"/>
<path fill-rule="evenodd" clip-rule="evenodd" d="M7 1H8V2H7V1ZM10 1H11V2H10V1ZM13 1H14V2H13V1ZM7 13H8V14H7V13ZM10 13H11V14H10V13ZM13 13H14V14H13V13Z" fill="#FFDA2C"/>
<path d="M10.5 10C11.8807 10 13 8.88071 13 7.5C13 6.11929 11.8807 5 10.5 5C9.11929 5 8 6.11929 8 7.5C8 8.88071 9.11929 10 10.5 10Z" fill="#F93939"/>
<path fill-rule="evenodd" clip-rule="evenodd" d="M10.5 8.75L9.02999 9.523L9.30999 7.886L8.12199 6.726L9.76499 6.489L10.5 5L11.235 6.49L12.878 6.727L11.688 7.887L11.968 9.523" fill="#FFDA2C"/>
</svg>
