<svg width="21" height="15" viewBox="0 0 21 15" fill="none" xmlns="http://www.w3.org/2000/svg">
<rect width="21" height="15" rx="3" fill="#F93939"/>
<path fill-rule="evenodd" clip-rule="evenodd" d="M10.155 7.514C7.443 6.366 8.645 2.83 11.24 3.006C10.714 3.276 10.638 3.78 10.938 4.246C11.274 4.77 10.908 5.611 10.454 5.816C9.708 6.151 9.559 7.046 10.154 7.514H10.155ZM10.382 7.392C10.635 4.459 14.372 4.509 15.002 7.03C14.584 6.615 14.082 6.698 13.73 7.128C13.337 7.608 12.424 7.518 12.09 7.151C11.54 6.547 10.64 6.681 10.382 7.393V7.392ZM10.474 7.685C13.354 7.07 14.398 10.657 12.171 11.999C12.447 11.476 12.221 11.019 11.707 10.809C11.133 10.573 10.951 9.674 11.205 9.247C11.623 8.544 11.231 7.724 10.475 7.684L10.474 7.685ZM6.75 10.98C7.33 11.08 7.695 10.723 7.736 10.17C7.783 9.55 8.581 9.1 9.066 9.21C9.864 9.39 10.523 8.764 10.326 8.032C11.802 10.582 8.713 12.682 6.749 10.979L6.75 10.98ZM6.153 5.5C6.268 6.078 6.731 6.29 7.263 6.13C7.858 5.952 8.565 6.536 8.636 7.03C8.754 7.838 9.574 8.228 10.186 7.784C8.336 10.074 5.266 7.944 6.153 5.499V5.5Z" fill="white"/>
</svg>
