<svg width="256" height="256" viewBox="0 0 256 256" fill="none" xmlns="http://www.w3.org/2000/svg">
  <g clip-path="url(#clip0_405_116214)">
    <path
      d="M188.697 133.808L172.68 148.263C172.68 148.263 216.044 185.966 217.997 187.72C219.951 189.475 234.405 174.566 232.843 173.266C231.28 171.966 188.697 133.808 188.697 133.808Z"
      fill="#E36C7C" />
    <path
      d="M188.697 133.808L172.68 148.263C172.68 148.263 216.044 185.966 217.997 187.72C219.951 189.475 234.405 174.566 232.843 173.266C231.28 171.966 188.697 133.808 188.697 133.808Z"
      fill="url(#paint0_linear_405_116214)" />
    <path
      d="M218.387 91.2249L176.195 127.557L173.851 129.51C151.192 149.849 149.853 152.309 141.642 152.584L141.584 152.586C139.612 152.652 135.357 152.795 131.875 149.849C126.797 145.552 120.155 140.083 117.03 137.348C115.34 135.869 112.465 133.039 109.998 131.097C107.902 129.448 106.482 127.581 104.919 127.581C103.357 127.581 100.622 129.925 96.3246 133.832C92.0272 137.739 82.6511 146.333 82.6511 146.333L65.0712 161.569C65.0712 161.569 42.5857 180.688 36.7256 185.376C30.8656 190.064 16.5797 175.69 21.4895 171.703C21.9628 171.23 26.2429 167.755 29.7179 164.915C32.2165 162.84 34.2084 161.179 34.2084 161.179C34.9897 160.397 66.2433 133.051 66.2433 133.051L87.723 114.573C87.723 114.573 95.9339 106.094 105.701 106.094C108.826 106.094 112.83 106.485 126.015 118.205C129.531 121.33 131.485 122.542 135.782 126.409C137.345 127.816 139.852 130.316 140.861 130.316C141.882 130.316 143.986 128.363 145.549 127.023C145.549 127.023 195.897 84.4149 202.37 77.9421C207.839 72.4726 223.075 86.9273 218.387 91.2249Z"
      fill="url(#paint1_linear_405_116214)" />
    <path
      d="M33.238 67.1372C31.2846 68.6564 23.9305 75.1737 22.2992 76.9039C19.3366 80.0417 21.3638 81.3905 25.6611 84.9065C29.9585 88.4225 57.8962 112.712 64.8542 118.963L79.9642 105.221L41.288 71.2331C36.5999 67.1372 35.1913 65.6179 33.238 67.1372Z"
      fill="url(#paint2_linear_405_116214)" />
  </g>
  <defs>
    <linearGradient id="paint0_linear_405_116214" x1="172.68" y1="133.808" x2="183.059" y2="196.169"
      gradientUnits="userSpaceOnUse">
      <stop offset="0.114583" stop-color="#FF98A6" />
      <stop offset="1" stop-color="#E36C7C" />
    </linearGradient>
    <linearGradient id="paint1_linear_405_116214" x1="219.271" y1="186.305" x2="206.115" y2="57.7298"
      gradientUnits="userSpaceOnUse">
      <stop stop-color="#E36C7C" />
      <stop offset="0.859375" stop-color="#FF98A6" />
    </linearGradient>
    <linearGradient id="paint2_linear_405_116214" x1="20.8984" y1="66.56" x2="30.8589" y2="127.049"
      gradientUnits="userSpaceOnUse">
      <stop stop-color="#E36C7C" />
      <stop offset="0.859375" stop-color="#FF98A6" />
    </linearGradient>
    <clipPath id="clip0_405_116214">
      <rect width="256" height="256" fill="white" />
    </clipPath>
  </defs>
</svg>