<svg width="21" height="15" viewBox="0 0 21 15" fill="none" xmlns="http://www.w3.org/2000/svg">
<g clip-path="url(#clip0_1716_4175)">
<path fill-rule="evenodd" clip-rule="evenodd" d="M0 0L13 8H6L13 15H0V0Z" fill="#003495"/>
<path fill-rule="evenodd" clip-rule="evenodd" d="M1 2L9 7H3L10 14H0.999954C0.999943 13.5 1 13.544 1 12.998V2Z" fill="#DF0A37"/>
<path d="M3.5 13C4.32843 13 5 12.3284 5 11.5C5 10.6716 4.32843 10 3.5 10C2.67157 10 2 10.6716 2 11.5C2 12.3284 2.67157 13 3.5 13Z" fill="white"/>
<path fill-rule="evenodd" clip-rule="evenodd" d="M4.915 5C4.97 5.078 5 5.162 5 5.25C5 5.664 4.328 6 3.5 6C2.672 6 2 5.664 2 5.25C2 5.162 2.03 5.078 2.085 5C2.291 5.146 2.847 5.25 3.5 5.25C4.153 5.25 4.71 5.146 4.915 5Z" fill="white"/>
</g>
<defs>
<clipPath id="clip0_1716_4175">
<rect width="21" height="15" rx="3" fill="white"/>
</clipPath>
</defs>
</svg>
