<svg width="21" height="15" viewBox="0 0 21 15" fill="none" xmlns="http://www.w3.org/2000/svg">
<rect width="21" height="15" rx="3" fill="#F93939"/>
<path fill-rule="evenodd" clip-rule="evenodd" d="M0 0H7V15H0V0Z" fill="#249F58"/>
<path d="M7 10C8.65685 10 10 8.65685 10 7C10 5.34315 8.65685 4 7 4C5.34315 4 4 5.34315 4 7C4 8.65685 5.34315 10 7 10Z" fill="#FFDA2C"/>
<path fill-rule="evenodd" clip-rule="evenodd" d="M9 8V5H5V8C5 8.552 5.895 9 7 9C8.105 9 9 8.552 9 8Z" fill="#F93939"/>
<path fill-rule="evenodd" clip-rule="evenodd" d="M6 6H8V8H6V6Z" fill="white"/>
<path fill-rule="evenodd" clip-rule="evenodd" d="M6 6H7V7H6V6ZM7 7H8V8H7V7Z" fill="#1A47B8"/>
</svg>
