<svg width="21" height="15" viewBox="0 0 21 15" fill="none" xmlns="http://www.w3.org/2000/svg">
<rect width="21" height="15" rx="3" fill="#249F58"/>
<path fill-rule="evenodd" clip-rule="evenodd" d="M16.0001 10V9.00001H5.0001L7.0001 10H13.0001C13.0001 10.552 13.6721 11 14.5001 11C15.3281 11 16.0001 10.552 16.0001 10ZM8.7301 3.90601C8.7181 3.90601 8.7001 3.91201 8.6771 3.92601C8.6231 3.96201 8.5171 4.07301 8.5131 4.20101C8.5101 4.27401 8.49611 4.27401 8.54311 4.32101C8.57711 4.36901 8.6131 4.36501 8.6811 4.32801C8.7211 4.29801 8.73411 4.28101 8.74811 4.23201C8.76411 4.15201 8.6611 4.27201 8.6481 4.18001C8.6251 4.09601 8.69111 4.06001 8.75311 3.98001C8.75511 3.94001 8.7551 3.91001 8.7301 3.90801V3.90601ZM9.7331 3.91101C9.7131 3.91501 9.6901 3.94101 9.6571 3.99901C9.6341 4.06101 9.53311 4.15501 9.60711 4.34901C9.66511 4.47201 9.69011 4.67101 9.66311 4.89401C9.62111 4.95701 9.6131 4.97901 9.5581 5.04201C9.4821 5.12501 9.39811 5.10401 9.33611 5.07201C9.27611 5.03201 9.2301 5.01201 9.2031 4.88601C9.2081 4.68601 9.2201 4.35401 9.1831 4.28401C9.1291 4.17601 9.03911 4.21401 9.00111 4.24701C8.81811 4.41701 8.7271 4.70001 8.6711 4.92701C8.6211 5.09101 8.5661 5.04301 8.5281 4.97701C8.4351 4.88901 8.4281 4.20701 8.3161 4.32001C8.1361 4.83401 8.41911 5.39701 8.61611 5.34201C8.75611 5.40201 8.84611 5.13201 8.90411 4.83701C8.94411 4.75401 8.97411 4.74401 8.99411 4.78701C8.98911 5.17901 9.0241 5.26701 9.1241 5.38501C9.3481 5.55901 9.5341 5.40701 9.5491 5.39301L9.7241 5.21901C9.7641 5.17901 9.81411 5.17501 9.86911 5.21101C9.92311 5.26101 9.91611 5.34401 10.0291 5.40101C10.1271 5.44101 10.3321 5.41101 10.3791 5.32801C10.4441 5.21801 10.4591 5.18001 10.4891 5.13801C10.5351 5.07801 10.6141 5.10501 10.6141 5.12401C10.6071 5.15901 10.5611 5.19401 10.5921 5.25401C10.6471 5.29401 10.6601 5.26801 10.6921 5.25901C10.8061 5.20501 10.8921 4.95701 10.8921 4.95701C10.8971 4.86501 10.8451 4.87201 10.8121 4.89101C10.7671 4.91801 10.7651 4.92701 10.7221 4.95401C10.6651 4.96201 10.5571 4.99901 10.5041 4.91601C10.4491 4.81601 10.4491 4.67801 10.4071 4.57601C10.4071 4.57001 10.3341 4.41901 10.4011 4.41001C10.4341 4.41601 10.5081 4.43501 10.5191 4.37401C10.5551 4.31401 10.4421 4.14401 10.3651 4.06001C10.2991 3.98701 10.2071 3.97801 10.1181 4.05201C10.0551 4.11001 10.0651 4.17401 10.0521 4.23501C10.0371 4.30501 10.0401 4.39201 10.1121 4.48501C10.1741 4.60701 10.2871 4.76501 10.2491 4.98701C10.2491 4.98701 10.1841 5.09301 10.0691 5.07901C10.0191 5.06901 9.94111 5.04901 9.89911 4.73901C9.86911 4.50601 9.9071 4.17901 9.8091 4.02601C9.7861 3.96901 9.7671 3.91301 9.7351 3.91601L9.7331 3.91101ZM9.4151 3.93701C9.3851 3.94001 9.3521 3.97501 9.3251 4.04201C9.3021 4.09401 9.2731 4.36201 9.2781 4.36201C9.2581 4.44201 9.3611 4.47601 9.4081 4.37401C9.4781 4.18401 9.47811 4.10401 9.48211 4.02601C9.47211 3.96601 9.4451 3.93601 9.4151 3.93801V3.93701ZM10.5881 3.95701C10.5581 3.96101 10.5331 3.97901 10.5241 4.02501C10.5111 4.13101 10.5181 4.19001 10.5361 4.27901C10.5491 4.33901 10.6361 4.43701 10.6781 4.49501C10.8811 4.76801 11.0781 5.04201 11.2661 5.32501C11.2961 5.53701 11.3161 5.74301 11.3311 5.94901C11.3631 6.39901 11.3711 6.95901 11.3441 7.43401C11.4281 7.43701 11.5641 7.29701 11.6111 7.09401C11.6411 6.81001 11.6011 6.23401 11.5971 6.06601L11.5871 5.82801C11.8071 6.18801 12.0191 6.56801 12.2271 6.98401C12.3041 6.94801 12.2871 6.51901 12.2431 6.45901C12.0751 6.09901 11.8431 5.74301 11.7701 5.60601C11.7431 5.55601 11.6521 5.41901 11.5451 5.26001C11.5251 5.03201 11.5031 4.84001 11.4891 4.78201C11.4541 4.54201 11.5871 4.80901 11.5691 4.67001C11.5251 4.43001 11.3931 4.26801 11.2371 4.04801C11.1871 3.97801 11.1871 3.96201 11.1101 4.06601C11.0651 4.17101 11.0651 4.25901 11.0801 4.34101C11.0581 4.31101 11.0331 4.27701 10.9971 4.23301L10.7421 4.01701C10.7071 3.99201 10.6391 3.95401 10.5881 3.95701V3.95701ZM14.0641 3.99401C14.0491 3.99201 14.0341 3.99901 14.0141 4.02601C13.9791 4.05601 13.9421 4.11301 13.9441 4.18601C13.9511 4.31101 13.9741 4.44001 13.9821 4.56601L13.9921 4.61601C13.9781 4.60001 13.9661 4.58601 13.9591 4.58001C13.7121 4.32001 14.0721 4.53601 13.9111 4.33701C13.7761 4.18701 13.7361 4.14101 13.6211 4.05101C13.5611 4.01501 13.5271 3.94301 13.5081 4.06501C13.5001 4.17201 13.4921 4.29701 13.4981 4.38701C13.4981 4.43701 13.5511 4.53201 13.5961 4.58701C13.7601 4.79001 13.9281 5.00501 14.0961 5.22901C14.1321 5.68601 14.1411 6.10501 14.1761 6.56301C14.1721 6.75901 14.1121 7.01901 14.0561 7.04301C14.0561 7.04301 13.9681 7.09301 13.9101 7.03801C13.8671 7.02101 13.6981 6.75501 13.6981 6.75501C13.6111 6.67501 13.5531 6.69801 13.4921 6.75501C13.3221 6.91901 13.2441 7.22701 13.1291 7.43901C13.0991 7.48601 13.0161 7.52701 12.9231 7.43501C12.6861 7.11101 12.8231 6.65001 12.7951 6.76901C12.5851 7.00701 12.6771 7.40101 12.7251 7.48601C12.7951 7.62601 12.8511 7.71601 12.9851 7.78301C13.1101 7.87301 13.2051 7.81801 13.2591 7.75301C13.3831 7.62501 13.3851 7.29601 13.4431 7.23101C13.4831 7.11101 13.5861 7.13101 13.6361 7.18501C13.6861 7.25501 13.7421 7.30001 13.8131 7.33801C13.9291 7.44001 14.0671 7.45801 14.2031 7.36501C14.2961 7.31301 14.3571 7.24501 14.4111 7.11101C14.4711 6.95501 14.4411 6.13501 14.4281 5.67901L14.6881 6.05501C14.7241 6.45501 14.7411 6.85001 14.7281 7.22801C14.7201 7.30301 14.9911 7.00401 14.9881 6.86201C14.9881 6.73901 14.9901 6.62601 14.9881 6.52201C15.1211 6.73201 15.2481 6.94501 15.3681 7.16201C15.4431 7.12201 15.4181 6.69901 15.3711 6.64201C15.2451 6.43001 15.0831 6.20201 14.9581 6.02401C14.9331 5.80101 14.9001 5.53801 14.8841 5.45701C14.8611 5.33101 14.8371 5.14201 14.8011 4.99301C14.7911 4.93601 14.7611 4.75001 14.7711 4.73301C14.7851 4.69001 14.8411 4.73301 14.8681 4.68501C14.9081 4.64001 14.7261 4.16501 14.6331 4.03101C14.6001 3.97101 14.5391 3.99101 14.4651 4.09101C14.3951 4.15501 14.4211 4.30301 14.4471 4.44401C14.5151 4.80401 14.5771 5.16801 14.6251 5.53401C14.5351 5.39901 14.4251 5.23701 14.3171 5.08201L14.3031 5.01201C14.3031 5.00401 14.2891 4.71701 14.2761 4.64901C14.2731 4.62101 14.2661 4.61301 14.2961 4.61701C14.3261 4.64301 14.3301 4.64401 14.3491 4.65301C14.3811 4.65701 14.4091 4.60501 14.3891 4.55601L14.0991 4.02201C14.0891 4.00901 14.0751 3.99701 14.0591 3.99501L14.0641 3.99401ZM5.0941 4.00401C5.0391 4.00201 4.98111 4.03401 5.00411 4.09901C4.99011 4.13401 5.10811 4.25201 5.12911 4.31701C5.14611 4.36401 5.10911 4.51201 5.14911 4.52701C5.18411 4.54201 5.2331 4.42301 5.2511 4.31401C5.2611 4.25401 5.2541 4.04801 5.1141 4.00601C5.1071 4.00401 5.1001 4.00401 5.0921 4.00301L5.0941 4.00401ZM15.3141 4.00401C15.3011 4.00601 15.2861 4.02401 15.2641 4.07401C15.2091 4.16401 15.1901 4.32401 15.2121 4.46401C15.3421 5.35401 15.4421 6.21601 15.4621 7.00401C15.4501 7.08001 15.4461 7.12001 15.4121 7.21401C15.3341 7.31401 15.2481 7.43801 15.1671 7.49801C15.0871 7.55801 14.9151 7.61601 14.8591 7.66001C14.6791 7.76201 14.6791 7.88001 14.8231 7.88501C15.0711 7.85501 15.3651 7.83501 15.5671 7.53001C15.6211 7.44501 15.6851 7.21301 15.6871 7.07001C15.7071 6.24001 15.6771 5.42501 15.5521 4.82401C15.5441 4.76401 15.5181 4.63101 15.5281 4.61401C15.5431 4.57201 15.6241 4.61701 15.6531 4.57001C15.6961 4.52601 15.4431 4.20301 15.3551 4.06501C15.3371 4.03101 15.3251 4.00201 15.3111 4.00501L15.3141 4.00401ZM12.7111 4.01801C12.7011 4.02001 12.6871 4.03601 12.6591 4.07301C12.5891 4.29901 12.5651 4.48301 12.5921 4.62501C12.7721 5.55501 12.9521 6.40001 12.9241 7.28501C13.0081 7.28501 13.1061 7.09201 13.1481 6.90001C13.1711 6.63501 13.1321 6.47401 13.1261 6.32001C13.1191 6.16401 12.9501 4.90401 12.9161 4.78701C12.8741 4.56501 13.0801 4.75701 13.0581 4.62901C12.9861 4.46501 12.8081 4.22901 12.7541 4.08601C12.7341 4.04801 12.7301 4.01301 12.7141 4.01601L12.7111 4.01801ZM6.3771 4.03601C6.3571 4.04001 6.33411 4.05801 6.32711 4.08601C6.32211 4.10601 6.3351 4.13901 6.3171 4.14901C6.3071 4.15901 6.2691 4.15201 6.2711 4.09901C6.2711 4.08101 6.2581 4.06301 6.2511 4.05201C6.2431 4.04801 6.2381 4.04701 6.2241 4.04701C6.2071 4.04701 6.2071 4.05201 6.1981 4.06701C6.1941 4.08101 6.18811 4.09501 6.18811 4.11101C6.18611 4.13101 6.1781 4.13601 6.1651 4.13901C6.1491 4.13901 6.1521 4.14101 6.1401 4.13201C6.1301 4.12501 6.12211 4.12201 6.12211 4.10801C6.12211 4.09301 6.1181 4.06801 6.1141 4.06001C6.1071 4.05001 6.09611 4.04601 6.08411 4.04301C6.01811 4.04301 6.01411 4.12101 6.01711 4.14901C6.01211 4.15501 6.0101 4.28901 6.1001 4.32701C6.2201 4.38501 6.4481 4.36001 6.4401 4.16501C6.4401 4.14801 6.4351 4.09001 6.4331 4.07501C6.4211 4.04501 6.3981 4.03501 6.3761 4.03801L6.3771 4.03601ZM8.00311 4.03801C7.96111 4.04001 7.92311 4.05201 7.89311 4.06801C7.81311 4.14501 7.7931 4.26801 7.8571 4.34501C7.9171 4.37501 7.98011 4.43501 7.93911 4.47001C7.76511 4.65501 7.3121 4.96601 7.2891 5.02301V5.02901H7.29311V5.03101C7.31611 5.04601 7.6001 5.04601 7.6311 5.03101H7.6331C7.7311 4.99401 8.1931 4.46601 8.1931 4.46601C8.1691 4.44601 8.14711 4.43001 8.12311 4.40901C8.09711 4.38701 8.10011 4.36501 8.12311 4.34301C8.23711 4.27701 8.2011 4.13001 8.1411 4.06301C8.0911 4.04101 8.04511 4.03301 8.00311 4.03601V4.03801ZM12.2531 4.03801C12.2411 4.04101 12.2261 4.05801 12.2031 4.10801C12.1481 4.19801 12.1111 4.35301 12.1161 4.49801C12.2341 5.31801 12.2701 6.03501 12.3481 6.85501C12.3541 6.93501 12.3421 7.04901 12.2901 7.09501C12.0941 7.29901 11.8131 7.54901 11.5071 7.66501C11.4741 7.70201 11.5891 7.85901 11.7371 7.85901C11.9851 7.82901 12.2031 7.69101 12.4071 7.32401C12.4601 7.23901 12.5551 7.05601 12.5571 6.91401C12.5771 6.08201 12.5171 5.43401 12.3911 4.83401C12.3841 4.77401 12.3891 4.70401 12.3991 4.68801C12.4151 4.66801 12.4691 4.68801 12.4991 4.64101C12.5411 4.59701 12.3851 4.23801 12.2971 4.10101C12.2791 4.06601 12.2691 4.03801 12.2531 4.03901V4.03801ZM5.6691 4.06501C5.6351 4.06901 5.6031 4.09501 5.5871 4.13501C5.5821 4.26501 5.5811 4.39501 5.5971 4.51701C5.6571 4.73001 5.6741 4.91701 5.7031 5.13401C5.7131 5.42601 5.53511 5.26001 5.54311 5.11601C5.58311 4.92801 5.57311 4.63301 5.53711 4.55801C5.50711 4.48301 5.47511 4.46501 5.40511 4.47801C5.35011 4.47401 5.2071 4.62801 5.1671 4.88801C5.1671 4.88801 5.1331 5.02001 5.1191 5.13801C5.0991 5.27101 5.0111 5.36601 4.9491 5.12001C4.8961 4.94001 4.8641 4.50001 4.7751 4.60201C4.7491 4.94601 4.71911 5.55201 5.01111 5.61401C5.36511 5.64801 5.1691 5.01601 5.2971 4.90101C5.3221 4.84601 5.3671 4.84501 5.3701 4.91601V5.45301C5.3661 5.62701 5.48011 5.67901 5.57011 5.71501C5.66311 5.70801 5.72411 5.71101 5.76011 5.80101L5.8051 6.73101C5.8051 6.73101 6.0191 6.79101 6.0291 6.20801C6.0391 5.86501 5.9591 5.57801 6.0061 5.51101C6.0081 5.44501 6.09211 5.44101 6.1501 5.47401C6.24311 5.53901 6.2841 5.61901 6.4281 5.58701C6.6481 5.52701 6.77811 5.42101 6.78111 5.25301C6.77111 5.09301 6.75111 4.93301 6.68111 4.77301C6.69111 4.74501 6.6411 4.67001 6.6511 4.64101C6.6891 4.70101 6.74911 4.69701 6.76111 4.64101C6.72511 4.51801 6.6671 4.40101 6.5731 4.35101C6.4961 4.28101 6.3831 4.29601 6.3411 4.43801C6.3211 4.60201 6.4011 4.79601 6.5211 4.95501C6.5451 5.01701 6.5811 5.12001 6.5651 5.21301C6.5021 5.24901 6.43911 5.23301 6.38511 5.17801C6.38511 5.17801 6.2121 5.04801 6.2121 5.01801C6.2591 4.72301 6.2221 4.68801 6.1971 4.60801C6.1791 4.49401 6.1251 4.45801 6.0821 4.38001C6.0381 4.33301 5.97911 4.33301 5.95211 4.38001C5.87411 4.51301 5.9101 4.80001 5.9661 4.92701C6.0061 5.04501 6.0681 5.11901 6.0391 5.11901C6.0151 5.18401 5.9651 5.16901 5.9291 5.09201C5.8791 4.93201 5.86711 4.69601 5.86711 4.58901C5.85211 4.45701 5.83511 4.17401 5.74711 4.10201C5.72411 4.07001 5.6971 4.05901 5.6701 4.06201L5.6691 4.06501ZM6.9111 4.06501C6.8941 4.06901 6.8741 4.07901 6.8511 4.08501C6.7761 4.10801 6.70611 4.17301 6.72811 4.29901C6.81811 4.83901 6.87511 5.25201 6.96411 5.79201C6.97711 5.85601 6.9241 5.93901 6.8561 5.93201C6.7401 5.85201 6.7111 5.69201 6.5131 5.70001C6.3691 5.70001 6.2051 5.85801 6.1851 6.00801C6.1611 6.12801 6.1531 6.25801 6.1851 6.36201C6.2851 6.48201 6.4071 6.47001 6.5131 6.44201C6.6001 6.40701 6.6731 6.32201 6.7031 6.34201C6.7231 6.37501 6.70111 6.65601 6.29311 6.87201C6.04111 6.98601 5.8411 7.01201 5.7331 6.80801C5.6671 6.68001 5.7391 6.19201 5.5751 6.30401C5.0891 7.55601 6.71211 7.73001 6.89311 6.35601C6.90511 6.31601 6.9401 6.27801 6.9661 6.28801C6.9761 6.29301 6.9861 6.30801 6.9901 6.33601C6.9521 7.58001 5.7341 7.66601 5.5281 7.27401C5.4761 7.18201 5.4611 6.97601 5.4561 6.85401C5.4461 6.77901 5.4281 6.73601 5.4061 6.71901C5.3561 6.68201 5.2901 6.77901 5.2761 6.94601C5.2561 7.08101 5.26111 7.11801 5.26111 7.24801C5.32711 8.23101 6.89411 7.80801 7.14911 6.99801C7.27511 6.57801 7.14611 6.26101 7.18911 6.22201L7.1921 6.22001H7.19511L7.2001 6.21801C7.3561 6.38601 7.57411 6.23801 7.62211 6.18101C7.64211 6.15101 7.6941 6.13101 7.7301 6.17101C7.8501 6.25701 8.0641 6.21601 8.1081 6.06101C8.1341 5.91101 8.15611 5.75701 8.16111 5.59601C8.08111 5.62101 8.01711 5.63901 7.99111 5.66601C7.98511 5.67301 7.9811 5.68101 7.9791 5.68901L7.95911 5.82201C7.95911 5.82701 7.9571 5.83001 7.9551 5.83201C7.9521 5.83901 7.9451 5.84401 7.9411 5.84701C7.9131 5.86201 7.8641 5.85401 7.8611 5.81301C7.8241 5.64301 7.6691 5.62101 7.5751 5.88601C7.5121 5.93601 7.39511 5.94601 7.38511 5.87001C7.40011 5.69201 7.3281 5.66801 7.1851 5.75201L7.0471 4.71201C7.1071 4.70901 7.1611 4.75201 7.2171 4.68401C7.1571 4.50001 7.0321 4.12601 6.9611 4.09001H6.95911L6.9491 4.08001C6.9491 4.07801 6.9461 4.07701 6.9441 4.07601L6.9401 4.07001C6.9361 4.07001 6.9321 4.06801 6.9301 4.06701C6.9231 4.06501 6.9171 4.06501 6.9101 4.06501H6.9111ZM11.7531 4.06901C11.6911 4.06701 11.6231 4.10601 11.6491 4.18401C11.6331 4.22701 11.7821 4.37101 11.8061 4.44901C11.8491 4.56901 11.7731 4.68601 11.8181 4.70301C11.8601 4.72101 11.9181 4.57801 11.9381 4.44501C11.9641 4.33701 11.8881 4.11701 11.7781 4.07201L11.7531 4.07001V4.06901ZM7.9801 4.20001C8.0081 4.19801 8.04211 4.22401 8.06011 4.26001C8.07711 4.30001 8.0681 4.33701 8.0401 4.34401C8.0101 4.35101 7.9721 4.32601 7.9541 4.28601C7.9361 4.24601 7.9441 4.20901 7.9741 4.20201H7.9801V4.20001ZM14.9771 4.38201C14.9201 4.38001 14.8571 4.42201 14.8831 4.50701C14.8691 4.55301 15.0031 4.70901 15.0261 4.79501C15.0461 4.85501 14.9961 5.05101 15.0361 5.06901C15.0741 5.08901 15.1261 4.93301 15.1461 4.78901C15.1581 4.70901 15.1001 4.43401 15.0011 4.38501C14.9941 4.38301 14.9861 4.38101 14.9781 4.38101L14.9771 4.38201ZM11.1071 4.47801C11.1141 4.50101 11.1191 4.52401 11.1221 4.54801C11.1341 4.59801 11.1441 4.64801 11.1541 4.70001C11.1101 4.63801 11.0741 4.58801 11.0571 4.57001C10.9571 4.45001 11.0591 4.49201 11.1071 4.47801V4.47801ZM12.0001 4.91601C11.9781 4.92001 11.9571 4.93901 11.9501 4.96901C11.9441 4.98701 11.9581 5.01901 11.9401 5.02901C11.9301 5.03901 11.8901 5.03301 11.8931 4.97901C11.8931 4.96101 11.8801 4.94201 11.8731 4.93201C11.8651 4.92701 11.8601 4.92501 11.8461 4.92501C11.8291 4.92501 11.8291 4.93001 11.8201 4.94501C11.8161 4.95901 11.8101 4.97301 11.8101 4.99001C11.8101 5.01001 11.8021 5.01601 11.7881 5.02001C11.7721 5.02001 11.7751 5.02001 11.7621 5.01301C11.7541 5.00301 11.7451 5.00101 11.7451 4.98701C11.7451 4.97201 11.7421 4.94901 11.7371 4.93901C11.7301 4.92901 11.7201 4.92601 11.7071 4.92201C11.6421 4.92201 11.6371 4.99801 11.6411 5.02601C11.6371 5.03201 11.6341 5.16801 11.7241 5.20601C11.8461 5.26301 12.0741 5.23601 12.0641 5.04201C12.0641 5.02501 12.0591 4.96701 12.0581 4.95201C12.0451 4.92201 12.0221 4.91201 12.0011 4.91501L12.0001 4.91601ZM7.9301 4.95601C7.9161 4.95601 7.89611 4.96001 7.87311 4.97401C7.76611 5.03201 7.72511 5.20401 7.79311 5.30401C7.85311 5.39401 7.9531 5.36101 7.9661 5.36101C8.0711 5.37501 8.13311 5.16501 8.13311 5.16501C8.13311 5.16501 8.1361 5.10501 8.0131 5.21701C7.9591 5.22701 7.95311 5.20701 7.93911 5.17701C7.92711 5.12401 7.9291 5.06701 7.9541 5.01401C7.9661 4.98101 7.9541 4.96001 7.9301 4.95801V4.95601ZM13.6831 4.98301C13.6231 4.98001 13.5601 5.01901 13.5431 5.10001C13.5431 5.14801 13.5651 5.17401 13.5611 5.21801C13.5561 5.24301 13.5311 5.25801 13.4691 5.23001C13.4791 5.22001 13.4291 5.15201 13.4291 5.15201C13.3821 5.12201 13.3191 5.15201 13.2771 5.18001C13.2541 5.22201 13.2371 5.29301 13.2631 5.36501C13.3311 5.49201 13.5661 5.70801 13.6781 5.71001C13.6801 5.59601 13.6911 5.44401 13.6981 5.35001C13.7001 5.31401 13.7081 5.27501 13.7431 5.26601C13.7771 5.25601 13.8361 5.30001 13.8361 5.26301C13.8301 5.19101 13.8161 5.08301 13.7761 5.03301C13.7541 5.00301 13.7191 4.98501 13.6841 4.98301H13.6831ZM8.9201 5.38001L8.9171 5.38301C8.9171 5.38301 8.9151 5.38301 8.9141 5.38501C8.9021 5.39501 8.88811 5.41501 8.85711 5.43501C8.80411 5.49501 8.7951 5.53801 8.7971 5.65801C8.8011 5.67101 8.8971 5.94101 8.9801 6.13001C9.0361 6.32701 9.08711 6.55301 9.05011 6.76601C8.92011 7.04801 8.6601 7.30101 8.4071 7.43901C8.2771 7.47901 8.1671 7.46501 8.1371 7.43701C8.0631 7.38701 8.06211 7.29701 8.06711 7.28301V7.28001C8.27911 7.13201 8.5221 7.01201 8.7121 6.61301C8.7681 6.46001 8.7861 6.36801 8.7301 6.13301C8.7081 6.04301 8.6801 5.97301 8.6201 5.90901H8.6221C8.6581 5.89201 8.75211 5.96101 8.76711 5.91901C8.74411 5.80501 8.6671 5.65401 8.5821 5.57601C8.5061 5.50601 8.4221 5.49901 8.3541 5.56201C8.2761 5.60601 8.2601 5.76201 8.2971 5.89801C8.3391 6.00001 8.4521 6.01801 8.5321 6.22501C8.5341 6.23901 8.5591 6.38001 8.5191 6.43801C8.4851 6.54001 8.06411 6.87201 8.03411 6.89201L8.03111 6.89401L8.02911 6.89601H8.02711H8.0251V6.89301C8.0231 6.88501 8.0251 6.86301 8.0251 6.83001C8.0221 6.76801 8.0481 6.62701 8.0451 6.60201V6.60001C7.9051 6.69001 7.85811 6.96501 7.83311 7.04701C7.48011 7.29001 7.0801 7.47101 6.8491 7.71701C6.7291 7.90701 7.67711 7.50301 7.78711 7.45401L7.7901 7.45701C7.8121 7.48001 7.8131 7.56001 7.8761 7.63301C7.9761 7.76601 8.1841 7.84801 8.3881 7.79701C8.7301 7.67401 8.92811 7.44101 9.12811 7.18201C9.15611 7.14201 9.2011 7.10801 9.2431 7.14001C9.3801 7.44801 9.77811 7.66801 10.2911 7.69001C10.4111 7.54601 10.3541 7.47501 10.3061 7.44501C10.2911 7.43501 10.0511 7.34101 10.0131 7.24801C9.9901 7.16201 10.0471 7.08501 10.1611 7.02801C10.4911 6.98801 10.8151 6.94301 11.1291 6.84201C11.1321 6.73601 11.1941 6.57901 11.2361 6.51001C11.2661 6.46301 11.2831 6.45801 11.2901 6.45201V6.45001H11.2921V6.44701V6.43701L11.2381 6.40501L10.1851 6.40101C10.1721 6.39601 10.1631 6.39101 10.1571 6.38601L10.1551 6.38301C10.1551 6.38301 10.1531 6.38301 10.1531 6.38101C10.1531 6.37901 10.1511 6.37901 10.1511 6.37901V6.38001V6.37801V6.37601V6.37401L10.1531 6.37101C10.1581 6.36501 10.1711 6.35801 10.1861 6.35101C10.4381 6.31801 10.8841 6.24501 10.9141 5.81601C10.9091 5.59201 10.8181 5.44601 10.5441 5.40601C10.3421 5.42101 10.1981 5.61601 10.2211 5.83001C10.2111 5.88701 10.2411 6.00001 10.1811 6.01301C9.7951 6.04901 9.37311 6.29101 9.35911 6.46501H9.35711H9.3551H9.3531C9.3531 6.46701 9.35111 6.46701 9.35011 6.46701H9.3461H9.3441H9.34011C9.31511 6.45901 9.28311 6.41701 9.28811 6.36001C9.27311 6.06001 9.1751 5.72001 9.0231 5.46001C8.9681 5.40501 8.9431 5.38301 8.9291 5.38001H8.9261H8.92311H8.9211H8.9201ZM9.92811 5.53801C9.90811 5.54201 9.88511 5.56001 9.87811 5.59001C9.87311 5.61001 9.8881 5.64201 9.8701 5.65201C9.8601 5.66201 9.8201 5.65601 9.8221 5.60201C9.8221 5.58501 9.8091 5.56601 9.8021 5.55501C9.7941 5.55001 9.7891 5.54901 9.7761 5.54901C9.7591 5.54901 9.7581 5.55301 9.7491 5.56701C9.7441 5.58101 9.73911 5.59701 9.73911 5.61201C9.73711 5.63201 9.7291 5.63801 9.7161 5.64001C9.7001 5.64001 9.7041 5.64301 9.6911 5.63501C9.6831 5.62701 9.67311 5.62301 9.67311 5.60901C9.67311 5.59401 9.67011 5.56901 9.66611 5.55901C9.65911 5.55201 9.6481 5.54901 9.6361 5.54501C9.5691 5.54501 9.56611 5.62001 9.56911 5.64901C9.56411 5.65401 9.5611 5.78901 9.6511 5.82701C9.7711 5.88501 10.0611 5.85101 9.99111 5.66401C9.99111 5.64701 9.9861 5.58901 9.9851 5.57401C9.9721 5.54401 9.9491 5.53401 9.9271 5.53701L9.92811 5.53801ZM13.9931 5.70501H13.9831C13.9831 5.70501 13.4211 6.10501 13.4081 6.11901C13.3521 6.16901 13.3801 6.34201 13.4081 6.32201C13.4481 6.33701 14.0131 5.95401 14.0021 5.90901C14.0271 5.91101 14.0391 5.71201 13.9921 5.70401L13.9931 5.70501ZM10.4591 5.76501C10.4811 5.76201 10.5111 5.77001 10.5391 5.78501C10.5821 5.81101 10.6091 5.84701 10.6041 5.87501V5.87901C10.6021 5.87901 10.6021 5.87901 10.6021 5.88101V5.88301C10.6021 5.88301 10.6001 5.88301 10.6001 5.88501C10.6001 5.88701 10.5971 5.88901 10.5951 5.89101C10.5751 5.91101 10.5291 5.90701 10.4851 5.88101C10.4431 5.85801 10.4181 5.82101 10.4201 5.79501V5.79201L10.4251 5.78201C10.4251 5.78201 10.4251 5.78001 10.4271 5.77901L10.4321 5.77301C10.4391 5.76801 10.4481 5.76301 10.4591 5.76301V5.76501ZM5.5411 5.86501C5.2511 5.87101 4.82411 6.24701 4.81311 6.45501L5.7331 6.01501C5.6831 5.93901 5.7301 5.87101 5.5411 5.86501V5.86501ZM6.48411 5.99501C6.51211 5.99701 6.5421 6.01101 6.5581 6.05101C6.5721 6.08801 6.5581 6.12601 6.5411 6.14501V6.14801C6.5271 6.16401 6.4851 6.15801 6.4541 6.15801C6.4171 6.15601 6.3991 6.15001 6.3771 6.12001C6.3651 6.08501 6.39711 6.05201 6.41211 6.02801L6.41911 6.01801C6.42911 6.00801 6.4491 6.00001 6.4691 5.99801L6.4821 5.99601L6.48411 5.99501ZM13.8841 6.11201C13.8311 6.11801 13.7821 6.16701 13.8041 6.24501C13.7901 6.29101 13.8741 6.45201 13.8971 6.53701C13.9171 6.59701 13.8711 6.77001 13.9121 6.78701C13.9501 6.80701 14.0491 6.68701 14.0461 6.53301C14.0561 6.45301 14.0181 6.16301 13.9191 6.11501C13.9071 6.11201 13.8951 6.11101 13.8831 6.11201H13.8841ZM7.6001 6.39601C7.5541 6.39901 7.5131 6.42301 7.5321 6.48801C7.5291 6.53401 7.66211 6.59101 7.66911 6.69801C7.68711 6.74401 7.6391 6.88801 7.6791 6.90001C7.7151 6.91501 7.7651 6.80001 7.7841 6.69601C7.7941 6.63801 7.7381 6.43601 7.6441 6.39901C7.6291 6.39501 7.6141 6.39401 7.5991 6.39501L7.6001 6.39601ZM9.4801 6.65201H9.4921C9.6101 6.68401 9.78211 6.68801 9.93211 6.70201C10.0551 6.71201 10.1151 6.80601 10.0021 6.84701C9.8881 6.88501 9.77911 6.91701 9.77911 7.07901C9.79311 7.15901 9.78911 7.20101 9.77711 7.21901C9.77711 7.22201 9.7741 7.22401 9.7731 7.22501C9.7731 7.22501 9.7731 7.22701 9.7711 7.22701V7.22901H9.7681L9.7611 7.23201H9.7561C9.7291 7.23701 9.69011 7.21201 9.66111 7.19601C9.59111 7.14601 9.3961 7.02601 9.3681 6.76601C9.3641 6.70601 9.4081 6.65601 9.4781 6.65101L9.4801 6.65201ZM4.88611 6.85201C4.87911 6.85201 4.86611 6.87401 4.84611 6.89901C4.67211 7.17401 4.6561 7.58501 4.7521 7.70901C4.8021 7.76601 4.8861 7.79201 4.9481 7.77401C5.0581 7.72701 5.1051 7.50601 5.0781 7.42601C5.0431 7.36901 5.01411 7.36001 4.97811 7.40801C4.90111 7.56301 4.8681 7.45601 4.8631 7.36801C4.8511 7.20501 4.86711 7.05301 4.88511 6.93301C4.89511 6.87301 4.89511 6.85001 4.88511 6.85001L4.88611 6.85201ZM10.7831 7.21401C10.7701 7.21401 10.7571 7.21601 10.7431 7.22401C10.7401 7.22401 10.6191 7.30401 10.5801 7.36201C10.5561 7.38001 10.5601 7.39501 10.5661 7.42701C10.5841 7.47001 10.6161 7.45701 10.6541 7.43701C10.7041 7.42901 10.7271 7.46201 10.7241 7.52101C10.7011 7.59601 10.7341 7.62301 10.7341 7.62801C10.7341 7.63201 10.7811 7.67301 10.8371 7.64101C10.9541 7.59601 11.0271 7.55101 11.1921 7.51601C11.2351 7.51601 11.2321 7.40001 11.1641 7.39601C11.0741 7.40001 10.9941 7.40601 10.9041 7.47601C10.8491 7.48801 10.8401 7.45401 10.8271 7.42401C10.8131 7.35001 10.8591 7.29801 10.8491 7.24201C10.8511 7.24501 10.8211 7.21801 10.7821 7.21601L10.7831 7.21401ZM14.5591 7.35401L14.4791 7.36201C14.4431 7.36901 14.4311 7.38501 14.4241 7.42901C14.4271 7.49401 14.4671 7.49101 14.5091 7.51701C14.5331 7.54701 14.5491 7.57501 14.5071 7.62701C14.4671 7.66201 14.4401 7.68201 14.4001 7.71701C14.3831 7.74901 14.3701 7.79701 14.4281 7.81301C14.5331 7.84301 14.7761 7.68501 14.7761 7.68301C14.8161 7.65301 14.8021 7.59601 14.7991 7.59601C14.7751 7.57001 14.7231 7.58601 14.6891 7.58101C14.6721 7.58101 14.6191 7.57301 14.6431 7.52501C14.6651 7.49501 14.6731 7.47801 14.6881 7.44101C14.7031 7.40501 14.6881 7.38101 14.6301 7.36101C14.6001 7.35501 14.5801 7.35301 14.5571 7.35401H14.5591ZM13.1061 11.214C13.3761 11.227 13.6281 11.217 13.8961 11.23C13.9401 11.266 13.9191 11.35 13.8911 11.364L13.8861 11.366H13.8831H13.8791L13.6531 11.36V11.347C13.6311 11.285 13.4811 11.289 13.4451 11.337V11.34C13.4431 11.34 13.4421 11.343 13.4421 11.344L13.4401 11.349V11.361C13.3201 11.376 13.2151 11.357 13.0971 11.353C13.0621 11.31 13.0671 11.233 13.1071 11.213L13.1061 11.214Z" fill="white"/>
</svg>
