<svg width="21" height="15" viewBox="0 0 21 15" fill="none" xmlns="http://www.w3.org/2000/svg">
<rect width="21" height="15" rx="3" fill="white"/>
<path fill-rule="evenodd" clip-rule="evenodd" d="M0 0H21V9H0V0Z" fill="#F93939"/>
<path fill-rule="evenodd" clip-rule="evenodd" d="M6 7.863C5.71 7.953 5.4 8 5.077 8C3.377 8 2 6.657 2 5C2 3.343 3.378 2 5.077 2C5.399 2 5.709 2.048 6 2.137C4.752 2.52 3.846 3.657 3.846 5C3.846 6.343 4.752 7.48 6 7.863ZM8 3H9V4H8V3ZM10 4H11V5H10V4ZM9 6H10V7H9V6ZM6 4H7V5H6V4ZM7 6H8V7H7V6Z" fill="white"/>
</svg>
