<?xml version="1.0" encoding="utf-8"?>
<!-- Uploaded to: SVG Repo, www.svgrepo.com, Generator: SVG Repo Mixer Tools -->
<svg width="800px" height="800px" viewBox="0 0 24 24" fill="none" xmlns="http://www.w3.org/2000/svg">
  <path fill-rule="evenodd" clip-rule="evenodd"
    d="M2 3C2 2.44772 2.44772 2 3 2H21C21.5523 2 22 2.44772 22 3V10C22 10.5523 21.5523 11 21 11H3C2.44772 11 2 10.5523 2 10V3ZM4 4V9H20V4H4ZM10 14C10 13.4477 10.4477 13 11 13H21C21.5523 13 22 13.4477 22 14V21C22 21.5523 21.5523 22 21 22H11C10.4477 22 10 21.5523 10 21V14ZM12 15V20H20V15H12ZM3 13C2.44772 13 2 13.4477 2 14V21C2 21.5523 2.44772 22 3 22H7C7.55228 22 8 21.5523 8 21V14C8 13.4477 7.55228 13 7 13H3ZM4 20V15H6V20H4Z"
    fill="#ffffff" />
</svg>