<svg width="20" height="20" viewBox="0 0 20 20" fill="none" xmlns="http://www.w3.org/2000/svg">
  <path fill-rule="evenodd" clip-rule="evenodd"
    d="M3.2 4.94547V14.2546C3.2 14.6562 3.47524 14.8 3.6 14.8H6.5V16H3.6C2.71634 16 2 15.2185 2 14.2546V4.94547C2 3.98148 2.71634 3.20001 3.6 3.20001H16.4C17.2837 3.20001 18 3.98148 18 4.94547V14.2546C18 15.2185 17.2837 16 16.4 16H16V14.8H16.4C16.5248 14.8 16.8 14.6562 16.8 14.2546V4.94547C16.8 4.5438 16.5248 4.40001 16.4 4.40001H3.6C3.47524 4.40001 3.2 4.5438 3.2 4.94547ZM11.2327 13.9514C11.2327 13.3653 11.2934 12.8336 11.4148 12.3564C11.5404 11.8791 11.7455 11.427 12.0302 11H12.7398C12.61 11.2219 12.5012 11.4438 12.4132 11.6656C12.3295 11.8875 12.2625 12.1178 12.2123 12.3564C12.1621 12.595 12.1265 12.8462 12.1055 13.1099C12.0888 13.3695 12.0804 13.65 12.0804 13.9514C12.0804 14.2528 12.0888 14.5354 12.1055 14.7991C12.1265 15.0587 12.1621 15.3078 12.2123 15.5464C12.2625 15.785 12.3295 16.0153 12.4132 16.2371C12.5012 16.459 12.61 16.6809 12.7398 16.9028H12.0302C11.7455 16.4757 11.5404 16.0236 11.4148 15.5464C11.2934 15.0691 11.2327 14.5375 11.2327 13.9514ZM9.92198 16.1492V13.719H10.6064V13.0095H9.92198V12.7018C9.92198 12.6138 9.94082 12.5448 9.97849 12.4945C10.0162 12.4401 10.0873 12.4129 10.192 12.4129C10.305 12.4129 10.4055 12.4213 10.4934 12.438C10.5813 12.4506 10.6588 12.4652 10.7258 12.482V11.7724C10.663 11.7598 10.5646 11.7452 10.4306 11.7284C10.3008 11.7075 10.169 11.697 10.035 11.697C9.88012 11.697 9.74197 11.7117 9.62056 11.741C9.50334 11.7703 9.40496 11.8247 9.32542 11.9043C9.24588 11.9838 9.18518 12.0927 9.14332 12.2308C9.10564 12.3689 9.0868 12.5448 9.0868 12.7583V13.0095H8.67864V13.719H9.0868V16.1492H9.92198ZM7.5 11.7536V12.4757H8.39797V11.7536H7.5ZM7.5314 13.0095V16.1492H8.36657V13.0095H7.5314ZM15.3116 15.5464C15.4372 15.0691 15.5 14.5375 15.5 13.9514C15.5 13.3653 15.4372 12.8336 15.3116 12.3564C15.1902 11.8791 14.9872 11.427 14.7025 11H13.9929C14.1227 11.2219 14.2294 11.4438 14.3132 11.6656C14.4011 11.8875 14.4702 12.1178 14.5204 12.3564C14.5706 12.595 14.6041 12.8462 14.6209 13.1099C14.6418 13.3695 14.6523 13.65 14.6523 13.9514C14.6523 14.2528 14.6418 14.5354 14.6209 14.7991C14.6041 15.0587 14.5706 15.3078 14.5204 15.5464C14.4702 15.785 14.4011 16.0153 14.3132 16.2371C14.2294 16.459 14.1227 16.6809 13.9929 16.9028H14.7025C14.9872 16.4757 15.1902 16.0236 15.3116 15.5464Z"
    fill="#242424" />
</svg>