<svg width="20" height="20" viewBox="0 0 20 20" fill="none" xmlns="http://www.w3.org/2000/svg">
  <rect width="20" height="20" fill="none" />
  <path fill-rule="evenodd" clip-rule="evenodd"
    d="M16.5476 7.86666H3.45237C3.2362 7.86666 3.07041 7.94241 2.97293 8.02639C2.87795 8.10822 2.86666 8.17491 2.86666 8.20512V11.7949C2.86666 11.8251 2.87795 11.8918 2.97293 11.9736C3.07041 12.0576 3.2362 12.1333 3.45237 12.1333H9.99999V13.3333H3.45237C2.46615 13.3333 1.66666 12.6445 1.66666 11.7949V8.20512C1.66666 7.35545 2.46615 6.66666 3.45237 6.66666H16.5476C17.5338 6.66666 18.3333 7.35545 18.3333 8.20512V10.8333H17.1333V8.20512C17.1333 8.17491 17.122 8.10822 17.027 8.02639C16.9296 7.94241 16.7638 7.86666 16.5476 7.86666ZM14.9291 16.9928H16.3768C16.8957 16.9928 17.3933 16.7867 17.7603 16.4198C18.1272 16.0528 18.3333 15.5552 18.3333 15.0363V12.7536C18.3333 12.5807 18.2646 12.4148 18.1423 12.2925C18.02 12.1702 17.8541 12.1015 17.6811 12.1015C17.5082 12.1015 17.3423 12.1702 17.22 12.2925C17.0977 12.4148 17.029 12.5807 17.029 12.7536V12.4276C17.029 12.2546 16.9603 12.0887 16.8379 11.9664C16.7156 11.8441 16.5498 11.7754 16.3768 11.7754C16.2038 11.7754 16.0379 11.8441 15.9156 11.9664C15.7933 12.0887 15.7246 12.2546 15.7246 12.4276V12.1015C15.7246 11.9285 15.6559 11.7626 15.5336 11.6403C15.4113 11.518 15.2454 11.4493 15.0724 11.4493C14.8995 11.4493 14.7336 11.518 14.6113 11.6403C14.489 11.7626 14.4202 11.9285 14.4202 12.1015V9.81884C14.4202 9.64587 14.3515 9.47998 14.2292 9.35768C14.1069 9.23537 13.941 9.16666 13.7681 9.16666C13.5951 9.16666 13.4292 9.23537 13.3069 9.35768C13.1846 9.47998 13.1159 9.64587 13.1159 9.81884V14.0113L11.951 12.9476C11.8362 12.8379 11.6864 12.7722 11.5279 12.7619C11.3695 12.7516 11.2124 12.7974 11.0843 12.8912C11.0095 12.9496 10.9484 13.0237 10.9051 13.1081C10.8618 13.1926 10.8375 13.2855 10.8338 13.3804C10.8301 13.4752 10.8472 13.5697 10.8838 13.6573C10.9203 13.7449 10.9756 13.8234 11.0456 13.8875L14.0458 16.6483C14.2866 16.8699 14.6019 16.9928 14.9291 16.9928Z"
    fill="#254E8D" />
</svg>