<svg width="20" height="20" viewBox="0 0 20 20" fill="none" xmlns="http://www.w3.org/2000/svg">
  <rect width="20" height="20" fill="none" />
  <path
    d="M3.72923 13.8546C3.06462 13.8546 2.5528 13.6942 2.19376 13.3733C1.84236 13.0448 1.66666 12.5559 1.66666 11.9066V7.78147C1.66666 7.13215 1.84236 6.64706 2.19376 6.32622C2.5528 5.99774 3.06462 5.8335 3.72923 5.8335H5.12718V6.70436H3.61464C3.33199 6.70436 3.10282 6.78839 2.92712 6.95645C2.75142 7.12451 2.66357 7.32694 2.66357 7.56376V12.1243C2.66357 12.3611 2.75142 12.5636 2.92712 12.7316C3.10282 12.8997 3.33199 12.9837 3.61464 12.9837H5.12718V13.8546H3.72923Z"
    fill="#254E8D" />
  <path
    d="M8.73482 13.8546L6.98164 6.68144V13.8546H6.05349V5.8335H7.68062L9.44526 13.0066V5.8335H10.3734V13.8546H8.73482Z"
    fill="#254E8D" />
  <path
    d="M15.4167 8.92734C15.4167 9.54611 15.2524 10.0045 14.9239 10.3024C14.5955 10.5927 14.1104 10.7378 13.4687 10.7378H12.3916V13.8546H11.3947V5.8335H13.4458C14.0951 5.8335 14.584 5.97864 14.9125 6.26893C15.2486 6.55157 15.4167 7.00228 15.4167 7.62105V8.92734ZM14.4198 7.51792C14.4198 7.22764 14.351 7.01756 14.2135 6.88769C14.0836 6.75783 13.8736 6.6929 13.5833 6.6929H12.3916V9.87841H13.5833C13.8736 9.87841 14.0836 9.81348 14.2135 9.68361C14.351 9.54611 14.4198 9.33221 14.4198 9.04193V7.51792Z"
    fill="#254E8D" />
  <path
    d="M18.3333 11.9066C18.3333 12.5559 18.1538 13.0448 17.7948 13.3733C17.4434 13.6942 16.9354 13.8546 16.2708 13.8546H15.1822V12.9837H16.3854C16.668 12.9837 16.8972 12.8997 17.0729 12.7316C17.2486 12.5636 17.3364 12.3611 17.3364 12.1243V6.6929H15.6062V5.8335H18.3333V11.9066Z"
    fill="#254E8D" />
</svg>