<svg width="20" height="20" viewBox="0 0 20 20" fill="none" xmlns="http://www.w3.org/2000/svg">
  <rect width="20" height="20" fill="none" />
  <path fill-rule="evenodd" clip-rule="evenodd"
    d="M16.5477 4.5335H3.45243C3.23627 4.5335 3.07047 4.60925 2.97299 4.69323C2.87801 4.77506 2.86672 4.84175 2.86672 4.87196V15.1284C2.86672 15.1586 2.87801 15.2253 2.97299 15.3071C3.07047 15.3911 3.23627 15.4668 3.45243 15.4668H16.5477C16.7638 15.4668 16.9296 15.3911 17.0271 15.3071C17.1221 15.2253 17.1334 15.1586 17.1334 15.1284V4.87196C17.1334 4.84175 17.1221 4.77506 17.0271 4.69323C16.9296 4.60925 16.7638 4.5335 16.5477 4.5335ZM3.45243 3.3335H16.5477C17.5339 3.3335 18.3334 4.02229 18.3334 4.87196V15.1284C18.3334 15.978 17.5339 16.6668 16.5477 16.6668H3.45243C2.46621 16.6668 1.66672 15.978 1.66672 15.1284V4.87196C1.66672 4.02229 2.46621 3.3335 3.45243 3.3335ZM6.27622 7.18782C6.44872 6.97218 6.76337 6.93722 6.979 7.10973L10.104 9.60973C10.2226 9.70462 10.2917 9.84827 10.2917 10.0002C10.2917 10.1521 10.2226 10.2957 10.104 10.3906L6.979 12.8906C6.76337 13.0631 6.44872 13.0281 6.27622 12.8125C6.10372 12.5969 6.13868 12.2822 6.35431 12.1097L8.99126 10.0002L6.35431 7.8906C6.13868 7.71809 6.10372 7.40345 6.27622 7.18782ZM10.4166 12.0002C10.1405 12.0002 9.91664 12.224 9.91664 12.5002C9.91664 12.7763 10.1405 13.0002 10.4166 13.0002H12.9166C13.1928 13.0002 13.4166 12.7763 13.4166 12.5002C13.4166 12.224 13.1928 12.0002 12.9166 12.0002H10.4166Z"
    fill="#254E8D" />
</svg>