<svg width="20" height="20" viewBox="0 0 20 20" fill="none" xmlns="http://www.w3.org/2000/svg">
  <rect width="20" height="20" fill="none" />
  <path
    d="M4.64166 14.1667C3.965 14.1667 3.44389 14.0033 3.07833 13.6767C2.72055 13.3422 2.54166 12.8444 2.54166 12.1833V7.98333C2.54166 7.32222 2.72055 6.82833 3.07833 6.50167C3.44389 6.16722 3.965 6 4.64166 6H6.065V6.88667H4.525C4.23722 6.88667 4.00389 6.97222 3.825 7.14333C3.64611 7.31445 3.55666 7.52056 3.55666 7.76167V12.405C3.55666 12.6461 3.64611 12.8522 3.825 13.0233C4.00389 13.1944 4.23722 13.28 4.525 13.28H6.065V14.1667H4.64166Z"
    fill="#254E8D" />
  <path
    d="M11.9516 9.15C11.9516 9.78 11.7844 10.2467 11.4499 10.55C11.1155 10.8456 10.6216 10.9933 9.96824 10.9933H8.87157V14.1667H7.85657V6H9.94491C10.606 6 11.1038 6.14778 11.4382 6.44333C11.7805 6.73111 11.9516 7.19 11.9516 7.82V9.15ZM10.9366 7.715C10.9366 7.41945 10.8666 7.20556 10.7266 7.07333C10.5944 6.94111 10.3805 6.875 10.0849 6.875H8.87157V10.1183H10.0849C10.3805 10.1183 10.5944 10.0522 10.7266 9.92C10.8666 9.78 10.9366 9.56222 10.9366 9.26667V7.715Z"
    fill="#254E8D" />
  <path d="M14.9357 6.85167V9.64H17.4557V10.4917H14.9357V14.1667H13.9207V6H17.7474V6.85167H14.9357Z" fill="#254E8D" />
</svg>