<svg width="20" height="20" viewBox="0 0 20 20" fill="none" xmlns="http://www.w3.org/2000/svg">
  <rect width="20" height="20" fill="none" />
  <path fill-rule="evenodd" clip-rule="evenodd"
    d="M7.22274 1.81104C7.22274 1.53489 6.99888 1.31104 6.72274 1.31104C6.4466 1.31104 6.22274 1.53489 6.22274 1.81104V2.49987H4.16667C3.72464 2.49987 3.30072 2.67546 2.98816 2.98802C2.67559 3.30058 2.5 3.72451 2.5 4.16653V15.8332C2.5 16.2752 2.67559 16.6992 2.98816 17.0117C3.30072 17.3243 3.72464 17.4999 4.16667 17.4999H15.8333C16.2754 17.4999 16.6993 17.3243 17.0118 17.0117C17.3244 16.6992 17.5 16.2752 17.5 15.8332V4.16653C17.5 3.72451 17.3244 3.30058 17.0118 2.98802C16.6993 2.67546 16.2754 2.49987 15.8333 2.49987H13.8894V1.81104C13.8894 1.53489 13.6655 1.31104 13.3894 1.31104C13.1133 1.31104 12.8894 1.53489 12.8894 1.81104V2.49987H7.22274V1.81104ZM6.22274 3.49987V4.31103C6.22274 4.58718 6.4466 4.81103 6.72274 4.81103C6.99888 4.81103 7.22274 4.58718 7.22274 4.31103V3.49987H12.8894V4.31103C12.8894 4.58718 13.1133 4.81103 13.3894 4.81103C13.6655 4.81103 13.8894 4.58718 13.8894 4.31103V3.49987H15.8333C16.0101 3.49987 16.1797 3.5701 16.3047 3.69513C16.4298 3.82015 16.5 3.98972 16.5 4.16653V6.16653H3.5V4.16653C3.5 3.98972 3.57024 3.82015 3.69526 3.69513C3.82029 3.5701 3.98986 3.49987 4.16667 3.49987H6.22274ZM3.5 7.16653V15.8332C3.5 16.01 3.57024 16.1796 3.69526 16.3046C3.82029 16.4296 3.98986 16.4999 4.16667 16.4999H15.8333C16.0101 16.4999 16.1797 16.4296 16.3047 16.3046C16.4298 16.1796 16.5 16.01 16.5 15.8332V7.16653H3.5Z"
    fill="#254E8D" />
</svg>