<svg width="20" height="20" viewBox="0 0 20 20" fill="none" xmlns="http://www.w3.org/2000/svg">
  <rect width="20" height="20" fill="none" />
  <path
    d="M12.5 6.66683C12.5 6.66683 12.5228 8.99696 12.9167 10.4168C13.2479 11.611 13.3333 12.5002 14.5833 13.3335C15.8333 14.1668 17.3479 13.1908 17.5 10.0002C17.6521 6.80952 15.5078 2.7085 11.2309 2.7085C7.43399 2.7085 3.24909 5.78662 2.91666 9.5835C2.58424 13.3804 5.59736 16.8076 9.39423 16.8076C10.8333 16.8076 11.7838 16.4638 12.5 16.2502M12.5001 9.93256C12.3243 11.9247 10.9329 13.0576 9.35359 13.0576C7.77429 13.0576 6.72312 11.6583 6.87507 9.93256C7.02702 8.20678 8.32507 6.80757 9.90437 6.80757C11.4837 6.80757 12.6516 8.21381 12.5001 9.93256Z"
    stroke="#254E8D" stroke-width="1.2" stroke-linecap="round" stroke-linejoin="round" />
</svg>