<svg width="20" height="20" viewBox="0 0 20 20" fill="none" xmlns="http://www.w3.org/2000/svg">
  <rect width="20" height="20" fill="none" />
  <path fill-rule="evenodd" clip-rule="evenodd"
    d="M3.96793 2.30111C4.37426 1.89478 4.92536 1.6665 5.49999 1.6665H11.3333C11.4659 1.6665 11.5931 1.71918 11.6869 1.81295L16.6869 6.81295C16.7807 6.90672 16.8333 7.0339 16.8333 7.1665L16.8836 16.1665C16.8836 16.7412 16.6553 17.2923 16.249 17.6986C15.8427 18.1049 15.2916 18.3332 14.7169 18.3332H5.55027C4.97564 18.3332 4.42454 18.1049 4.01821 17.6986C3.61188 17.2923 3.38361 16.7412 3.38361 16.1665L3.33333 3.83317C3.33333 3.25853 3.5616 2.70743 3.96793 2.30111ZM5.49999 2.6665C5.19058 2.6665 4.89383 2.78942 4.67504 3.00821C4.45624 3.227 4.33333 3.52375 4.33333 3.83317L4.38361 16.1665C4.38361 16.4759 4.50652 16.7727 4.72531 16.9915C4.94411 17.2103 5.24085 17.3332 5.55027 17.3332H14.7169C15.0264 17.3332 15.3231 17.2103 15.5419 16.9915C15.7607 16.7727 15.8836 16.4759 15.8836 16.1665L15.8362 7.99983L15.8332 7.99984H11.6666C11.3904 7.99984 11.1666 7.77598 11.1666 7.49984V2.70686L11.1262 2.6665H5.49999ZM12.1666 3.70686L15.4596 6.99984H12.1666V3.70686ZM9.99998 7.49984C10.2761 7.49984 10.5 7.72368 10.5 7.99984V10.3006H12.8007C13.0769 10.3006 13.3007 10.5245 13.3007 10.8006C13.3007 11.0767 13.0769 11.3006 12.8007 11.3006H10.5V13.6014C10.5 13.8775 10.2761 14.1014 9.99998 14.1014C9.72383 14.1014 9.49998 13.8775 9.49998 13.6014V11.3006H7.19921C6.92306 11.3006 6.69921 11.0767 6.69921 10.8006C6.69921 10.5245 6.92306 10.3006 7.19921 10.3006H9.49998V7.99984C9.49998 7.72368 9.72383 7.49984 9.99998 7.49984Z"
    fill="#254E8D" />
</svg>