<svg width="20" height="20" viewBox="0 0 20 20" fill="none" xmlns="http://www.w3.org/2000/svg">
  <rect width="20" height="20" fill="none" />
  <path fill-rule="evenodd" clip-rule="evenodd"
    d="M5.99999 2.1665V6.99984C5.99999 7.27598 5.77613 7.49984 5.49999 7.49984C5.22385 7.49984 4.99999 7.27598 4.99999 6.99984V6.6665H3.45237C2.46615 6.6665 1.66666 5.97771 1.66666 5.12804V4.0383C1.66666 3.18863 2.46615 2.49984 3.45237 2.49984H4.99999V2.1665C4.99999 1.89036 5.22385 1.6665 5.49999 1.6665C5.77613 1.6665 5.99999 1.89036 5.99999 2.1665ZM4.99999 3.69984V5.4665H3.45237C3.2362 5.4665 3.07041 5.39075 2.97293 5.30677C2.87795 5.22494 2.86666 5.15825 2.86666 5.12804V4.0383C2.86666 4.00809 2.87795 3.94141 2.97293 3.85957C3.07041 3.77559 3.2362 3.69984 3.45237 3.69984H4.99999ZM7.49999 3.69984V2.49984H16.5476C17.5338 2.49984 18.3333 3.18863 18.3333 4.0383V5.12804C18.3333 5.97771 17.5338 6.6665 16.5476 6.6665H7.49999V5.4665H16.5476C16.7638 5.4665 16.9296 5.39075 17.027 5.30677C17.122 5.22494 17.1333 5.15825 17.1333 5.12804V4.0383C17.1333 4.00809 17.122 3.94141 17.027 3.85957C16.9296 3.77559 16.7638 3.69984 16.5476 3.69984H7.49999ZM3.45237 9.1165H16.5476C16.7638 9.1165 16.9296 9.19226 17.027 9.27624C17.122 9.35807 17.1333 9.42476 17.1333 9.45497V10.5447C17.1333 10.5749 17.122 10.6416 17.027 10.7234C16.9296 10.8074 16.7638 10.8832 16.5476 10.8832H3.45237C3.2362 10.8832 3.07041 10.8074 2.97293 10.7234C2.87795 10.6416 2.86666 10.5749 2.86666 10.5447V9.45497C2.86666 9.42476 2.87795 9.35807 2.97293 9.27624C3.07041 9.19226 3.2362 9.1165 3.45237 9.1165ZM16.5476 7.9165H3.45237C2.46615 7.9165 1.66666 8.6053 1.66666 9.45497V10.5447C1.66666 11.3944 2.46615 12.0832 3.45237 12.0832H16.5476C17.5338 12.0832 18.3333 11.3944 18.3333 10.5447V9.45497C18.3333 8.6053 17.5338 7.9165 16.5476 7.9165ZM3.45237 14.0332H16.5476C16.7638 14.0332 16.9296 14.1089 17.027 14.1929C17.122 14.2748 17.1333 14.3414 17.1333 14.3717V15.4614C17.1333 15.4916 17.122 15.5583 17.027 15.6401C16.9296 15.7241 16.7638 15.7999 16.5476 15.7999H3.45237C3.2362 15.7999 3.07041 15.7241 2.97293 15.6401C2.87795 15.5583 2.86666 15.4916 2.86666 15.4614V14.3717C2.86666 14.3414 2.87795 14.2748 2.97293 14.1929C3.07041 14.1089 3.2362 14.0332 3.45237 14.0332ZM16.5476 12.8332H3.45237C2.46615 12.8332 1.66666 13.522 1.66666 14.3717V15.4614C1.66666 16.3111 2.46615 16.9999 3.45237 16.9999H16.5476C17.5338 16.9999 18.3333 16.3111 18.3333 15.4614V14.3717C18.3333 13.522 17.5338 12.8332 16.5476 12.8332Z"
    fill="#254E8D" />
</svg>