<svg width="20" height="20" viewBox="0 0 20 20" fill="none" xmlns="http://www.w3.org/2000/svg">
  <g clip-path="url(#clip0_1383_77896)">
    <rect width="20" height="20" fill="none" />
    <path fill-rule="evenodd" clip-rule="evenodd"
      d="M4.88094 4.33334H3.45237C3.19005 4.33334 2.97748 4.42517 2.84239 4.54156C2.70938 4.65615 2.66666 4.77583 2.66666 4.87181V6.79488C2.66666 6.89086 2.70938 7.01053 2.84239 7.12513C2.97748 7.24151 3.19005 7.33334 3.45237 7.33334H4.88094C5.14327 7.33334 5.35584 7.24151 5.49092 7.12513C5.62394 7.01054 5.66666 6.89086 5.66666 6.79488V4.87181C5.66666 4.77583 5.62394 4.65615 5.49092 4.54156C5.35583 4.42517 5.14327 4.33334 4.88094 4.33334ZM3.45237 3.33334H4.88094C5.86717 3.33334 6.66666 4.02214 6.66666 4.87181V6.79488C6.66666 7.64455 5.86717 8.33334 4.88094 8.33334H3.45237C2.46615 8.33334 1.66666 7.64455 1.66666 6.79488V4.87181C1.66666 4.02214 2.46615 3.33334 3.45237 3.33334Z"
      fill="#254E8D" />
    <path fill-rule="evenodd" clip-rule="evenodd"
      d="M7.49999 5.83334C7.49999 5.5572 7.72385 5.33334 7.99999 5.33334L17 5.33334C17.2761 5.33334 17.5 5.5572 17.5 5.83334C17.5 6.10949 17.2761 6.33334 17 6.33334L7.99999 6.33334C7.72385 6.33334 7.49999 6.10949 7.49999 5.83334Z"
      fill="#254E8D" />
    <path fill-rule="evenodd" clip-rule="evenodd"
      d="M4.88094 12.6667H3.45237C3.19005 12.6667 2.97748 12.7585 2.84239 12.8749C2.70938 12.9895 2.66666 13.1092 2.66666 13.2051V15.1282C2.66666 15.2242 2.70938 15.3439 2.84239 15.4585C2.97748 15.5748 3.19005 15.6667 3.45237 15.6667H4.88094C5.14327 15.6667 5.35584 15.5748 5.49092 15.4585C5.62394 15.3439 5.66666 15.2242 5.66666 15.1282V13.2051C5.66666 13.1092 5.62394 12.9895 5.49092 12.8749C5.35583 12.7585 5.14327 12.6667 4.88094 12.6667ZM3.45237 11.6667H4.88094C5.86717 11.6667 6.66666 12.3555 6.66666 13.2051V15.1282C6.66666 15.9779 5.86717 16.6667 4.88094 16.6667H3.45237C2.46615 16.6667 1.66666 15.9779 1.66666 15.1282V13.2051C1.66666 12.3555 2.46615 11.6667 3.45237 11.6667Z"
      fill="#254E8D" />
    <path fill-rule="evenodd" clip-rule="evenodd"
      d="M7.49999 14.1667C7.49999 13.8905 7.72385 13.6667 7.99999 13.6667L17 13.6667C17.2761 13.6667 17.5 13.8905 17.5 14.1667C17.5 14.4428 17.2761 14.6667 17 14.6667H7.99999C7.72385 14.6667 7.49999 14.4428 7.49999 14.1667Z"
      fill="#254E8D" />
  </g>
  <defs>
    <clipPath id="clip0_1383_77896">
      <rect width="20" height="20" fill="none" />
    </clipPath>
  </defs>
</svg>