<svg width="20" height="20" viewBox="0 0 20 20" fill="none" xmlns="http://www.w3.org/2000/svg">
  <rect width="20" height="20" fill="none" />
  <path fill-rule="evenodd" clip-rule="evenodd"
    d="M3.69526 3.69526C3.82029 3.57024 3.98986 3.5 4.16667 3.5H6.16659V7.27778H3.5V4.16667C3.5 3.98986 3.57024 3.82029 3.69526 3.69526ZM3.5 8.27778V15.8333C3.5 16.0101 3.57024 16.1797 3.69526 16.3047C3.82029 16.4298 3.98986 16.5 4.16667 16.5H6.16659V8.27778H3.5ZM7.16658 16.5H15.8333C16.0101 16.5 16.1797 16.4298 16.3047 16.3047C16.4298 16.1797 16.5 16.0101 16.5 15.8333V8.27778H7.16658V16.5ZM16.5 7.27778V4.16667C16.5 3.98986 16.4298 3.82029 16.3047 3.69526C16.1797 3.57024 16.0101 3.5 15.8333 3.5H7.16658V7.27778H16.5ZM2.98816 2.98816C3.30072 2.67559 3.72464 2.5 4.16667 2.5H15.8333C16.2754 2.5 16.6993 2.67559 17.0118 2.98816C17.3244 3.30072 17.5 3.72464 17.5 4.16667V15.8333C17.5 16.2754 17.3244 16.6993 17.0118 17.0118C16.6993 17.3244 16.2754 17.5 15.8333 17.5H4.16667C3.72464 17.5 3.30072 17.3244 2.98816 17.0118C2.67559 16.6993 2.5 16.2754 2.5 15.8333V4.16667C2.5 3.72464 2.67559 3.30072 2.98816 2.98816Z"
    fill="#254E8D" />
</svg>