<svg width="20" height="20" viewBox="0 0 20 20" fill="none" xmlns="http://www.w3.org/2000/svg">
  <rect width="20" height="20" fill="none" />
  <path fill-rule="evenodd" clip-rule="evenodd"
    d="M10 1.70557C9.0607 1.70557 8.15986 2.07871 7.49567 2.7429C6.83148 3.40709 6.45834 4.30792 6.45834 5.24723V7.49984H5.33334C4.22877 7.49984 3.33334 8.35576 3.33334 9.4116V16.4214C3.33334 17.4772 4.22877 18.3332 5.33334 18.3332H14.6667C15.7712 18.3332 16.6667 17.4772 16.6667 16.4214V9.4116C16.6667 8.35576 15.7712 7.49984 14.6667 7.49984H13.5417V5.24723C13.5417 4.30792 13.1685 3.40709 12.5043 2.7429C11.8402 2.07871 10.9393 1.70557 10 1.70557ZM12.7083 7.49984V5.24723C12.7083 4.52894 12.423 3.84006 11.9151 3.33215C11.4072 2.82424 10.7183 2.5389 10 2.5389C9.28172 2.5389 8.59284 2.82424 8.08493 3.33215C7.57702 3.84006 7.29168 4.52894 7.29168 5.24723V7.49984H12.7083ZM4.16668 9.4116C4.16668 8.85104 4.65318 8.33317 5.33334 8.33317H14.6667C15.3468 8.33317 15.8333 8.85104 15.8333 9.4116V16.4214C15.8333 16.982 15.3468 17.4998 14.6667 17.4998H5.33334C4.65318 17.4998 4.16668 16.982 4.16668 16.4214V9.4116Z"
    fill="#254E8D" />
</svg>