<svg width="20" height="20" viewBox="0 0 20 20" fill="none" xmlns="http://www.w3.org/2000/svg">
  <rect width="20" height="20" fill="none" />
  <path fill-rule="evenodd" clip-rule="evenodd"
    d="M4.37166 16.981V16.0385H17.8142C18.1009 16.0385 18.3333 15.8061 18.3333 15.5193C18.3333 15.2326 18.1009 15.0002 17.8142 15.0002H5.46791L9.98336 10.8321L12.0757 12.9244C12.191 13.0397 12.3481 13.1031 12.5111 13.1001C12.674 13.097 12.8288 13.0279 12.9397 12.9084L18.3563 7.0751C18.5818 6.83227 18.5678 6.45264 18.3249 6.22715C18.0821 6.00167 17.7025 6.01573 17.477 6.25856L12.484 11.6356L10.4243 9.5759C10.1965 9.34818 9.82966 9.34085 9.59302 9.55928L4.37166 14.379V3.85266C4.37166 3.56594 4.13922 3.3335 3.85249 3.3335C3.56576 3.3335 3.33332 3.56594 3.33332 3.85266V15.0002H2.18582C1.8991 15.0002 1.66666 15.2326 1.66666 15.5193C1.66666 15.8061 1.89909 16.0385 2.18582 16.0385H3.33332V16.981C3.33332 17.2677 3.56576 17.5002 3.85249 17.5002C4.13922 17.5002 4.37166 17.2677 4.37166 16.981Z"
    fill="#254E8D" />
</svg>