<svg width="20" height="20" viewBox="0 0 20 20" fill="none" xmlns="http://www.w3.org/2000/svg">
  <rect width="20" height="20" fill="none" />
  <path fill-rule="evenodd" clip-rule="evenodd"
    d="M3.45237 8.7H16.5476C16.7638 8.7 16.9296 8.77576 17.027 8.85974C17.122 8.94157 17.1333 9.00825 17.1333 9.03846V10.9615C17.1333 10.9917 17.122 11.0584 17.027 11.1403C16.9296 11.2242 16.7638 11.3 16.5476 11.3H3.45237C3.2362 11.3 3.07041 11.2242 2.97293 11.1403C2.87795 11.0584 2.86666 10.9917 2.86666 10.9615V9.03846C2.86666 9.00825 2.87795 8.94157 2.97293 8.85974C3.07041 8.77576 3.2362 8.7 3.45237 8.7ZM16.5476 7.5H3.45237C2.46615 7.5 1.66666 8.18879 1.66666 9.03846V10.9615C1.66666 11.8112 2.46615 12.5 3.45237 12.5H16.5476C17.5338 12.5 18.3333 11.8112 18.3333 10.9615V9.03846C18.3333 8.18879 17.5338 7.5 16.5476 7.5ZM3.33332 10.8333H8.33332V9.16667H3.33332V10.8333Z"
    fill="#254E8D" />
</svg>