<svg width="20" height="20" viewBox="0 0 20 20" fill="none" xmlns="http://www.w3.org/2000/svg">
  <rect width="20" height="20" fill="none" />
  <path fill-rule="evenodd" clip-rule="evenodd"
    d="M9.66675 1.6665C9.88725 1.6665 10.0817 1.81095 10.1454 2.02205L11.7792 7.43573H17.1668C17.3827 7.43573 17.5742 7.57431 17.6417 7.77938C17.7092 7.98445 17.6374 8.2097 17.4638 8.33795L13.0629 11.5878L14.7644 17.017C14.8298 17.2258 14.7519 17.4529 14.572 17.5775C14.3922 17.7021 14.1522 17.6953 13.9797 17.5607L9.66675 14.195L5.35382 17.5607C5.18132 17.6953 4.94132 17.7021 4.76146 17.5775C4.58159 17.4529 4.50366 17.2258 4.5691 17.017L6.27056 11.5878L1.86973 8.33795C1.69605 8.2097 1.62431 7.98445 1.69183 7.77938C1.75934 7.57431 1.95085 7.43573 2.16675 7.43573H7.5543L9.18807 2.02205C9.25178 1.81095 9.44625 1.6665 9.66675 1.6665ZM9.66675 3.89711L8.40436 8.08019C8.34065 8.29129 8.14618 8.43573 7.92568 8.43573H3.68552L7.15127 10.9951C7.32283 11.1217 7.39515 11.3433 7.33137 11.5468L6.00294 15.7857L9.35914 13.1666C9.53995 13.0255 9.79356 13.0255 9.97436 13.1666L13.3306 15.7857L12.0021 11.5468C11.9384 11.3433 12.0107 11.1217 12.1822 10.9951L15.648 8.43573H11.4078C11.1873 8.43573 10.9929 8.29129 10.9291 8.08019L9.66675 3.89711Z"
    fill="#254E8D" />
</svg>