<svg width="20" height="20" viewBox="0 0 20 20" fill="none" xmlns="http://www.w3.org/2000/svg">
  <rect width="20" height="20" fill="none" />
  <path fill-rule="evenodd" clip-rule="evenodd"
    d="M5.99999 2.1665V7.83317C5.99999 8.10931 5.77613 8.33317 5.49999 8.33317C5.22385 8.33317 4.99999 8.10931 4.99999 7.83317V4.53317H3.45237C3.2362 4.53317 3.07041 4.60893 2.97293 4.69291C2.87795 4.77474 2.86666 4.84142 2.86666 4.87163V15.128C2.86666 15.1582 2.87795 15.2249 2.97293 15.3068C3.07041 15.3907 3.2362 15.4665 3.45237 15.4665H16.5476C16.7638 15.4665 16.9296 15.3907 17.027 15.3068C17.122 15.2249 17.1333 15.1582 17.1333 15.128V4.87163C17.1333 4.84142 17.122 4.77474 17.027 4.69291C16.9296 4.60893 16.7638 4.53317 16.5476 4.53317H7.49999V3.33317H16.5476C17.5338 3.33317 18.3333 4.02196 18.3333 4.87163V15.128C18.3333 15.9777 17.5338 16.6665 16.5476 16.6665H3.45237C2.46615 16.6665 1.66666 15.9777 1.66666 15.128V4.87163C1.66666 4.02196 2.46615 3.33317 3.45237 3.33317H4.99999V2.1665C4.99999 1.89036 5.22385 1.6665 5.49999 1.6665C5.77613 1.6665 5.99999 1.89036 5.99999 2.1665Z"
    fill="#254E8D" />
</svg>