<svg width="20" height="20" viewBox="0 0 20 20" fill="none" xmlns="http://www.w3.org/2000/svg">
  <rect width="20" height="20" fill="none" />
  <path fill-rule="evenodd" clip-rule="evenodd"
    d="M3.33333 3.80969C3.33333 3.54669 3.5676 3.3335 3.85659 3.3335H16.1434C16.4324 3.3335 16.6667 3.54669 16.6667 3.80969V6.19064C16.6667 6.45363 16.4324 6.66683 16.1434 6.66683C15.8544 6.66683 15.6202 6.45363 15.6202 6.19064V4.28588H10.625V15.8335H12.8333C13.1095 15.8335 13.3333 16.0574 13.3333 16.3335C13.3333 16.6096 13.1095 16.8335 12.8333 16.8335H7.16667C6.89052 16.8335 6.66667 16.6096 6.66667 16.3335C6.66667 16.0574 6.89052 15.8335 7.16667 15.8335H9.375V4.28588H4.37984V6.19064C4.37984 6.45363 4.14557 6.66683 3.85659 6.66683C3.5676 6.66683 3.33333 6.45363 3.33333 6.19064V3.80969Z"
    fill="#254E8D" />
</svg>