<svg width="20" height="20" viewBox="0 0 20 20" fill="none" xmlns="http://www.w3.org/2000/svg">
  <path
    d="M3.45238 6.83334H16.5476C16.8099 6.83334 17.0225 6.92517 17.1576 7.04156C17.2906 7.15615 17.3333 7.27583 17.3333 7.37181V12.6282C17.3333 12.7242 17.2906 12.8439 17.1576 12.9585C17.0225 13.0748 16.8099 13.1667 16.5476 13.1667H15.8333V14.1667H16.5476C17.5338 14.1667 18.3333 13.4779 18.3333 12.6282V7.37181C18.3333 6.52214 17.5338 5.83334 16.5476 5.83334H3.45238C2.46616 5.83334 1.66667 6.52214 1.66667 7.37181V12.6282C1.66667 13.4779 2.46616 14.1667 3.45238 14.1667H7.5V13.1667H3.45238C3.19006 13.1667 2.97749 13.0748 2.8424 12.9585C2.70939 12.8439 2.66667 12.7242 2.66667 12.6282V7.37181C2.66667 7.27583 2.70939 7.15615 2.8424 7.04156C2.97749 6.92517 3.19006 6.83334 3.45238 6.83334Z"
    fill="#254E8D" />
  <path fill-rule="evenodd" clip-rule="evenodd"
    d="M11.6667 8.69445C10.0252 8.69445 8.69445 10.0252 8.69445 11.6667C8.69445 13.3082 10.0252 14.6389 11.6667 14.6389C13.3082 14.6389 14.6389 13.3082 14.6389 11.6667C14.6389 10.0252 13.3082 8.69445 11.6667 8.69445ZM7.69445 11.6667C7.69445 9.47288 9.47287 7.69445 11.6667 7.69445C13.8605 7.69445 15.6389 9.47288 15.6389 11.6667C15.6389 13.8605 13.8605 15.6389 11.6667 15.6389C9.47287 15.6389 7.69445 13.8605 7.69445 11.6667Z"
    fill="#254E8D" />
  <path fill-rule="evenodd" clip-rule="evenodd"
    d="M11.6667 9.08334C11.9428 9.08334 12.1667 9.3072 12.1667 9.58334V11.3577L13.2792 11.9139C13.5262 12.0374 13.6263 12.3377 13.5028 12.5847C13.3793 12.8317 13.0789 12.9318 12.8319 12.8083L11.4431 12.1139C11.2737 12.0292 11.1667 11.8561 11.1667 11.6667V9.58334C11.1667 9.3072 11.3905 9.08334 11.6667 9.08334Z"
    fill="#254E8D" />
</svg>