<svg width="20" height="20" viewBox="0 0 20 20" fill="none" xmlns="http://www.w3.org/2000/svg">
  <rect width="20" height="20" fill="none" />
  <path
    d="M14.1667 14.1668C16.4679 14.1668 18.3333 12.3013 18.3333 10.0002C18.3333 7.69898 16.4679 5.8335 14.1667 5.8335C11.8655 5.8335 10 7.69898 10 10.0002C10 12.3013 11.8655 14.1668 14.1667 14.1668Z"
    fill="#254E8D" fill-opacity="0.2" />
  <path fill-rule="evenodd" clip-rule="evenodd"
    d="M13.8889 5.8335H6.11112C3.65652 5.8335 1.66667 7.69898 1.66667 10.0002C1.66667 12.3013 3.65652 14.1668 6.11112 14.1668H13.8889C13.9369 14.1668 13.9847 14.1661 14.0323 14.1647C14.0769 14.1661 14.1217 14.1668 14.1667 14.1668C16.4679 14.1668 18.3333 12.3013 18.3333 10.0002C18.3333 7.69898 16.4679 5.8335 14.1667 5.8335C14.1217 5.8335 14.0769 5.83421 14.0323 5.83562C13.9847 5.83421 13.9369 5.8335 13.8889 5.8335ZM14.0343 6.83621C12.3468 6.90558 11 8.29559 11 10.0002C11 11.7047 12.3468 13.0947 14.0343 13.1641C15.9256 13.0933 17.3333 11.6473 17.3333 10.0002C17.3333 8.35303 15.9256 6.90703 14.0343 6.83621ZM11.4585 13.1668C10.5658 12.4026 10 11.2675 10 10.0002C10 8.73286 10.5658 7.5977 11.4585 6.8335H6.11112C4.14703 6.8335 2.66667 8.31108 2.66667 10.0002C2.66667 11.6892 4.14703 13.1668 6.11112 13.1668H11.4585Z"
    fill="#254E8D" />
</svg>