<svg width="20" height="20" viewBox="0 0 20 20" fill="none" xmlns="http://www.w3.org/2000/svg">
  <path fill-rule="evenodd" clip-rule="evenodd"
    d="M2.66667 5.15168V14.8486C2.66667 15.3842 3.04527 15.6668 3.33334 15.6668H11.6667V16.6668H3.33334C2.41286 16.6668 1.66667 15.8528 1.66667 14.8486V5.15168C1.66667 4.14752 2.41286 3.3335 3.33334 3.3335H16.6667C17.5871 3.3335 18.3333 4.14752 18.3333 5.15168V12.5002H17.3333V5.15168C17.3333 4.61612 16.9547 4.3335 16.6667 4.3335H3.33334C3.04527 4.3335 2.66667 4.61612 2.66667 5.15168ZM8.10157 12.6564C8.00164 12.6563 7.90347 12.6301 7.81674 12.5804C7.62142 12.4698 7.50001 12.2549 7.50001 12.0217V7.30162C7.50001 7.06774 7.62142 6.85354 7.81674 6.74287C7.90554 6.69183 8.00642 6.66559 8.10884 6.66687C8.21125 6.66816 8.31144 6.69694 8.39893 6.75019L12.4329 9.1649C12.517 9.21762 12.5863 9.29083 12.6344 9.37765C12.6824 9.46448 12.7076 9.56209 12.7076 9.66132C12.7076 9.76056 12.6824 9.85816 12.6344 9.94499C12.5863 10.0318 12.517 10.105 12.4329 10.1577L8.39828 12.5731C8.30874 12.6272 8.20619 12.656 8.10157 12.6564Z"
    fill="#254E8D" fill-opacity="0.9" />
  <path fill-rule="evenodd" clip-rule="evenodd"
    d="M15.8536 12.6464C15.6583 12.4512 15.3417 12.4512 15.1464 12.6464L12.6464 15.1464C12.4512 15.3417 12.4512 15.6583 12.6464 15.8536C12.8417 16.0488 13.1583 16.0488 13.3536 15.8536L15 14.2071V17.7083C15 17.9385 15.2239 18.125 15.5 18.125C15.7761 18.125 16 17.9385 16 17.7083V14.2071L17.6464 15.8536C17.8417 16.0488 18.1583 16.0488 18.3536 15.8536C18.5488 15.6583 18.5488 15.3417 18.3536 15.1464L15.8536 12.6464Z"
    fill="#254E8D" fill-opacity="0.9" />
</svg>